<svg width="30" height="30" viewBox="0 0 30 30" fill="none" xmlns="http://www.w3.org/2000/svg">
<path d="M28.1667 30C24.8611 30 21.5278 29.2292 18.1667 27.6875C14.8056 26.1458 11.7083 23.9583 8.875 21.125C6.04167 18.2917 3.85417 15.1944 2.3125 11.8333C0.770833 8.47222 0 5.13889 0 1.83333C0 1.31481 0.175931 0.879625 0.527792 0.527791C0.879625 0.17593 1.31481 0 1.83333 0H7.97221C8.3611 0 8.69906 0.13657 8.98608 0.409709C9.27314 0.682875 9.46296 1.01853 9.55554 1.41667L10.6667 6.86108C10.7222 7.2685 10.713 7.62961 10.6389 7.94442C10.5648 8.25925 10.4166 8.52778 10.1944 8.75L6.06942 12.9167C6.73608 14.0741 7.46525 15.1644 8.25692 16.1875C9.04858 17.2106 9.92128 18.1852 10.875 19.1111C11.8472 20.1019 12.8704 21.0116 13.9445 21.8403C15.0185 22.669 16.1482 23.4074 17.3333 24.0556L21.2778 20.0278C21.5463 19.7408 21.8681 19.5394 22.2431 19.4236C22.6181 19.3079 22.9908 19.2778 23.3611 19.3333L28.5833 20.4445C28.9908 20.5556 29.3287 20.7708 29.5972 21.0903C29.8657 21.4097 30 21.7685 30 22.1667V28.1667C30 28.6852 29.8241 29.1204 29.4722 29.4722C29.1204 29.8241 28.6852 30 28.1667 30Z" fill="#E2A856"/>
</svg>
