<svg width="28" height="34" viewBox="0 0 28 34" fill="none" xmlns="http://www.w3.org/2000/svg">
<path d="M14.0018 16.7221C14.8428 16.7221 15.5618 16.4227 16.1591 15.8238C16.7563 15.225 17.0549 14.5051 17.0549 13.6641C17.0549 12.8232 16.7555 12.1041 16.1566 11.5069C15.5577 10.9097 14.8378 10.611 13.9969 10.611C13.1559 10.611 12.4369 10.9105 11.8396 11.5093C11.2424 12.1082 10.9438 12.8281 10.9438 13.669C10.9438 14.51 11.2432 15.2291 11.8421 15.8263C12.441 16.4235 13.1609 16.7221 14.0018 16.7221ZM13.9993 33.6666C9.52713 29.861 6.18685 26.3263 3.97852 23.0624C1.77018 19.7985 0.666016 16.7777 0.666016 13.9999C0.666016 9.83325 2.00629 6.51381 4.68685 4.04159C7.3674 1.56936 10.4716 0.333252 13.9993 0.333252C17.5271 0.333252 20.6313 1.56936 23.3118 4.04159C25.9924 6.51381 27.3327 9.83325 27.3327 13.9999C27.3327 16.7777 26.2285 19.7985 24.0202 23.0624C21.8118 26.3263 18.4716 29.861 13.9993 33.6666Z" fill="#E2A856"/>
</svg>
