<svg width="38" height="27" viewBox="0 0 38 27" fill="none" xmlns="http://www.w3.org/2000/svg">
<path d="M8.55814 26.8054C7.18561 26.8054 6.01786 26.3247 5.05489 25.3633C4.09192 24.4018 3.61043 23.2344 3.61043 21.861H0.666016V2.94425C0.666016 2.19425 0.941474 1.5438 1.49239 0.992879C2.04331 0.441963 2.69377 0.166504 3.44377 0.166504H27.3049V7.02763H31.8882L37.3327 14.2776V21.861H34.2494C34.2494 23.2344 33.769 24.4018 32.8082 25.3633C31.8474 26.3247 30.6807 26.8054 29.3082 26.8054C27.9356 26.8054 26.7679 26.3247 25.8049 25.3633C24.842 24.4018 24.3605 23.2344 24.3605 21.861H13.4993C13.4993 23.2313 13.0189 24.398 12.0581 25.361C11.0974 26.3239 9.9307 26.8054 8.55814 26.8054ZM8.55489 24.0276C9.15675 24.0276 9.66833 23.817 10.0896 23.3957C10.5109 22.9744 10.7216 22.4628 10.7216 21.861C10.7216 21.2591 10.5109 20.7475 10.0896 20.3262C9.66833 19.9049 9.15675 19.6943 8.55489 19.6943C7.95303 19.6943 7.44145 19.9049 7.02014 20.3262C6.59886 20.7475 6.38822 21.2591 6.38822 21.861C6.38822 22.4628 6.59886 22.9744 7.02014 23.3957C7.44145 23.817 7.95303 24.0276 8.55489 24.0276ZM29.3049 24.0276C29.9068 24.0276 30.4183 23.817 30.8396 23.3957C31.2609 22.9744 31.4716 22.4628 31.4716 21.861C31.4716 21.2591 31.2609 20.7475 30.8396 20.3262C30.4183 19.9049 29.9068 19.6943 29.3049 19.6943C28.7031 19.6943 28.1915 19.9049 27.7702 20.3262C27.3489 20.7475 27.1382 21.2591 27.1382 21.861C27.1382 22.4628 27.3489 22.9744 27.7702 23.3957C28.1915 23.817 28.7031 24.0276 29.3049 24.0276ZM27.3049 15.5832H34.8327L30.4993 9.80538H27.3049V15.5832Z" fill="#E2A856"/>
</svg>
