<svg width="34" height="28" viewBox="0 0 34 28" fill="none" xmlns="http://www.w3.org/2000/svg">
<path d="M3.11173 27.3334C2.36173 27.3334 1.71128 27.058 1.16036 26.507C0.609443 25.9561 0.333984 25.3057 0.333984 24.5557V3.4445C0.333984 2.6945 0.609443 2.04404 1.16036 1.49312C1.71128 0.942207 2.36173 0.666748 3.11173 0.666748H30.8896C31.6396 0.666748 32.29 0.942207 32.8409 1.49312C33.3919 2.04404 33.6673 2.6945 33.6673 3.4445V24.5557C33.6673 25.3057 33.3919 25.9561 32.8409 26.507C32.29 27.058 31.6396 27.3334 30.8896 27.3334H3.11173ZM17.0007 15.0556L30.8896 6.08337V3.4445L17.0007 12.2779L3.11173 3.4445V6.08337L17.0007 15.0556Z" fill="#E2A856"/>
</svg>
