<svg width="34" height="35" viewBox="0 0 34 35" fill="none" xmlns="http://www.w3.org/2000/svg">
<path d="M22.9173 25.4724L24.9451 23.4446L18.4729 16.9446V8.80571H15.6951V18.0557L22.9173 25.4724ZM17.0007 34.1668C14.7136 34.1668 12.5562 33.7293 10.5284 32.8543C8.50067 31.9793 6.73214 30.7872 5.22286 29.278C3.71361 27.7687 2.52148 26.0002 1.64648 23.9724C0.771484 21.9446 0.333984 19.7872 0.333984 17.5002C0.333984 15.2131 0.771484 13.0557 1.64648 11.028C2.52148 9.00018 3.71361 7.23165 5.22286 5.72237C6.73214 4.21312 8.50067 3.021 10.5284 2.146C12.5562 1.271 14.7136 0.833496 17.0007 0.833496C19.2877 0.833496 21.4451 1.271 23.4729 2.146C25.5006 3.021 27.2692 4.21312 28.7784 5.72237C30.2877 7.23165 31.4798 9.00018 32.3548 11.028C33.2298 13.0557 33.6673 15.2131 33.6673 17.5002C33.6673 19.7872 33.2298 21.9446 32.3548 23.9724C31.4798 26.0002 30.2877 27.7687 28.7784 29.278C27.2692 30.7872 25.5006 31.9793 23.4729 32.8543C21.4451 33.7293 19.2877 34.1668 17.0007 34.1668Z" fill="#E2A856"/>
</svg>
