<svg width="89" height="35" viewBox="0 0 89 35" fill="none" xmlns="http://www.w3.org/2000/svg">
<g clip-path="url(#clip0_3460_251620)">
<path d="M34.1587 7.5V27.5H73.1092V7.5H34.1587ZM35.0418 26.6169V8.38315H72.2341V26.6169H35.0418Z" fill="white"/>
<path d="M15 7.5V27.5H35.0419V7.5H15ZM15.8831 26.6169V8.38315H34.1588V26.6169H15.8831Z" fill="white"/>
<path d="M42.1302 13.3384C42.1982 13.2784 42.257 13.2087 42.3046 13.1315C42.4286 12.9228 42.4905 12.683 42.4832 12.4404C42.4842 12.2661 42.4545 12.0931 42.3953 11.9292C42.3347 11.7662 42.2386 11.6189 42.1139 11.4977C41.9795 11.3691 41.819 11.2709 41.6433 11.2097C41.4395 11.1385 41.2248 11.1042 41.009 11.1082H38.25V16.1556H41.1767C41.4218 16.1597 41.6655 16.1194 41.8962 16.0366C42.0938 15.9646 42.2736 15.8512 42.4237 15.7039C42.5657 15.5648 42.6748 15.3956 42.7428 15.2089C42.8106 15.0132 42.8445 14.8073 42.8429 14.6003C42.8504 14.2756 42.7474 13.958 42.5508 13.6995C42.4378 13.5507 42.2944 13.4276 42.1302 13.3384ZM39.1088 12.9881V11.9724H40.9779C41.2227 11.9724 41.3985 12.0198 41.4837 12.1077C41.5299 12.1573 41.5657 12.2156 41.5889 12.2793C41.6122 12.3429 41.6224 12.4106 41.6189 12.4783C41.6254 12.6147 41.58 12.7485 41.4918 12.8529C41.4134 12.9422 41.2633 12.9881 41.0442 12.9881H39.1088ZM41.9719 14.5678C41.9801 14.7604 41.9121 14.9484 41.7826 15.0912C41.6595 15.2264 41.4445 15.2887 41.1442 15.2887H39.1088V13.8564H41.1172C41.2546 13.8532 41.3917 13.8724 41.5229 13.9132C41.6171 13.9422 41.7042 13.9906 41.7785 14.0552C41.8421 14.116 41.8912 14.1905 41.9219 14.273C41.957 14.3672 41.974 14.4672 41.9719 14.5678Z" fill="white"/>
<path d="M44.6267 15.9678C44.6267 15.796 44.6335 15.6297 44.647 15.4728C44.6551 15.3687 44.6659 15.2672 44.6781 15.1658H47.3938C47.406 15.2672 47.4154 15.37 47.4249 15.4728C47.4371 15.6297 47.4438 15.796 47.4438 15.9678V16.1558H48.3013V15.9678C48.3065 15.2667 48.2048 14.569 47.9997 13.8985C47.9183 13.6406 47.8207 13.3881 47.7076 13.1425C47.5954 12.8992 47.4652 12.6645 47.3181 12.4406C47.2075 12.2653 47.0864 12.0969 46.9556 11.9361C46.8393 11.8009 46.7324 11.6738 46.6378 11.5777C46.5627 11.498 46.4827 11.4231 46.3984 11.3532C46.3565 11.3181 46.3281 11.2964 46.3172 11.2856L46.0549 11.0854L45.7979 11.2599L45.7763 11.2775L45.6951 11.3397C45.6316 11.3897 45.5599 11.4587 45.4544 11.5534C45.3393 11.6644 45.2301 11.7813 45.1271 11.9037C44.9918 12.0626 44.8671 12.2302 44.7538 12.4054C44.4618 12.8586 44.2342 13.3502 44.0776 13.8661C43.8735 14.5478 43.7719 15.2561 43.776 15.9678V16.1558H44.6335L44.6267 15.9678ZM47.2166 14.3083H44.8404C44.9056 14.0611 44.9906 13.8196 45.0946 13.5861C45.2005 13.3467 45.3244 13.1157 45.4652 12.895C45.5768 12.7141 45.7049 12.5438 45.8479 12.3865C45.9142 12.3148 45.9737 12.2513 46.0278 12.1985C46.0792 12.2526 46.1387 12.3162 46.2036 12.3892C46.3449 12.5536 46.4746 12.7276 46.5918 12.9099C46.7286 13.135 46.8519 13.368 46.961 13.6078C47.0643 13.8343 47.1498 14.0685 47.2166 14.3083Z" fill="white"/>
<path d="M50.2609 12.1148C50.3258 12.1351 50.3961 12.1608 50.4746 12.1878C50.6718 12.2618 50.8611 12.3551 51.0399 12.4664C51.7103 12.8674 52.2489 13.4555 52.5898 14.1583V16.1559H53.454V11.1153H52.5898V12.6395C52.268 12.2793 51.8926 11.971 51.4768 11.7253C51.2852 11.6088 51.0849 11.5075 50.8776 11.4223C50.7136 11.3548 50.5461 11.2961 50.3759 11.2465C50.2582 11.211 50.1385 11.1825 50.0175 11.1613C49.9665 11.151 49.9151 11.1438 49.8633 11.1397L49.4021 11.1045V16.1559H50.2609V12.1148Z" fill="white"/>
<path d="M56.5513 13.3387L56.5189 13.4091C56.5067 13.3861 56.4959 13.3617 56.4837 13.3387L55.2665 11.1221H54.29L56.0645 14.3544V16.1464H56.949V14.3341L58.695 11.1221H57.7482L56.5513 13.3387Z" fill="white"/>
<path d="M59.7972 15.9678C59.7972 15.796 59.7972 15.6297 59.8161 15.4728C59.8242 15.3687 59.835 15.2672 59.8472 15.1658H62.5629C62.5751 15.2672 62.5845 15.37 62.594 15.4728C62.6062 15.6297 62.6129 15.796 62.6129 15.9678V16.1558H63.4704V15.9678C63.4734 15.2664 63.3694 14.5686 63.162 13.8985C63.0829 13.6408 62.9876 13.3883 62.8767 13.1425C62.7645 12.8992 62.6343 12.6645 62.4872 12.4406C62.3766 12.2653 62.2555 12.0969 62.1247 11.9361C62.0084 11.8009 61.9016 11.6738 61.8082 11.5777C61.7328 11.498 61.6523 11.423 61.5675 11.3532C61.5256 11.3181 61.4972 11.2964 61.4864 11.2856L61.224 11.0854L60.967 11.2599L60.9454 11.2775L60.8656 11.3397C60.7788 11.4078 60.6957 11.4805 60.6167 11.5575C60.5018 11.6682 60.393 11.7851 60.2908 11.9077C60.1569 12.0664 60.034 12.2341 59.9229 12.4095C59.6286 12.8623 59.3987 13.3539 59.2399 13.8701C59.0359 14.5519 58.9342 15.2602 58.9384 15.9718V16.1558H59.7972V15.9678ZM62.3857 14.3083H60.0095C60.0747 14.0611 60.1597 13.8196 60.2637 13.5861C60.3696 13.3467 60.4935 13.1157 60.6343 12.895C60.7459 12.7141 60.8741 12.5438 61.0171 12.3865C61.0833 12.3148 61.1428 12.2513 61.1969 12.1985C61.2483 12.2526 61.3078 12.3162 61.3728 12.3892C61.514 12.5536 61.6437 12.7276 61.7609 12.9099C61.8977 13.135 62.021 13.368 62.1301 13.6078C62.2334 13.8343 62.3189 14.0685 62.3857 14.3083Z" fill="white"/>
<path d="M65.4301 12.1148C65.4964 12.1351 65.5653 12.1608 65.6451 12.1878C65.8421 12.2623 66.0314 12.3556 66.2105 12.4664C66.8801 12.8679 67.4182 13.4559 67.759 14.1583V16.1559H68.6232V11.1153H67.759V12.6395C67.4372 12.2793 67.0618 11.971 66.6459 11.7253C66.4544 11.6088 66.2541 11.5075 66.0468 11.4223C65.8828 11.3548 65.7153 11.2961 65.5451 11.2465C65.4274 11.211 65.3077 11.1825 65.1867 11.1613C65.1357 11.151 65.0843 11.1438 65.0325 11.1397L64.5713 11.1045V16.1559H65.4301V12.1148Z" fill="white"/>
<path d="M42.1302 21.0892C42.1971 21.0307 42.2558 20.9633 42.3046 20.889C42.4287 20.6798 42.4906 20.4397 42.4832 20.1966C42.484 20.0223 42.4543 19.8493 42.3953 19.6853C42.3341 19.5228 42.238 19.3755 42.1139 19.2539C41.9798 19.1233 41.8193 19.0228 41.6433 18.9591C41.4394 18.8886 41.2247 18.8542 41.009 18.8577H38.25V23.9104H41.1767C41.4218 23.9145 41.6655 23.8742 41.8962 23.7914C42.0935 23.719 42.2733 23.6056 42.4237 23.4587C42.5666 23.3164 42.6753 23.1434 42.7415 22.9529C42.8091 22.7571 42.843 22.5513 42.8416 22.3443C42.8494 22.0195 42.7464 21.7018 42.5494 21.4435C42.4365 21.2969 42.2936 21.1761 42.1302 21.0892ZM39.1088 20.7389V19.7219H40.9779C41.2227 19.7219 41.3985 19.7692 41.4837 19.8571C41.5298 19.907 41.5656 19.9656 41.5888 20.0295C41.612 20.0933 41.6223 20.1612 41.6189 20.229C41.6254 20.3655 41.58 20.4993 41.4918 20.6037C41.4134 20.6916 41.2633 20.7389 41.0442 20.7389H39.1088ZM41.9719 22.3172C41.9804 22.5098 41.9123 22.698 41.7826 22.8406C41.6595 22.9759 41.4445 23.0394 41.1442 23.0394H39.1088V21.6031H41.1172C41.2546 21.5999 41.3917 21.6191 41.5229 21.6599C41.6179 21.689 41.7053 21.7389 41.7785 21.806C41.8424 21.8666 41.8915 21.9411 41.9219 22.0237C41.9569 22.1175 41.9738 22.2171 41.9719 22.3172Z" fill="white"/>
<path d="M48.5476 20.8895C48.4351 20.6458 48.3049 20.4108 48.1581 20.1862C48.0471 20.0112 47.9261 19.8427 47.7956 19.6817C47.6793 19.5465 47.5738 19.4207 47.4791 19.3233C47.4033 19.2439 47.3229 19.169 47.2384 19.0988L47.1572 19.0326L46.8949 18.8311L46.6379 19.0069L46.6163 19.0245L46.5365 19.0867C46.4521 19.1531 46.3712 19.224 46.2944 19.299C46.0303 19.5551 45.7974 19.8416 45.6006 20.1524C45.3082 20.6054 45.0806 21.097 44.9244 21.613C44.7192 22.296 44.6162 23.0056 44.6187 23.7188V23.9041H45.4761V23.7188C45.4761 23.547 45.4761 23.3807 45.4951 23.2238C45.5032 23.1197 45.514 23.0169 45.5262 22.9168H48.2419C48.2541 23.0182 48.2649 23.121 48.273 23.2238C48.2852 23.3807 48.2919 23.547 48.2919 23.7188V23.9041H49.1494V23.7188C49.1523 23.0169 49.0484 22.3187 48.841 21.6482C48.7591 21.3894 48.6611 21.136 48.5476 20.8895ZM48.0634 22.0553H45.6871C45.7517 21.8071 45.8368 21.5646 45.9414 21.3304C46.0467 21.0907 46.1706 20.8596 46.312 20.6393C46.4232 20.4581 46.5514 20.2878 46.6947 20.1308C46.761 20.0591 46.8218 19.9955 46.8746 19.9414C46.926 19.9969 46.9855 20.0604 47.0504 20.1335C47.1919 20.2967 47.3216 20.4698 47.4386 20.6514C47.5757 20.8759 47.699 21.1085 47.8078 21.348C47.9117 21.5779 47.9972 21.8158 48.0634 22.0593V22.0553Z" fill="white"/>
<path d="M50.1042 19.7222H51.9585V23.8904H52.8227V19.7222H54.6769V18.8647H50.1042V19.7222Z" fill="white"/>
<path d="M57.3423 18.8647H56.4849V23.9026H57.3423V18.8647Z" fill="white"/>
<path d="M63.7138 23.4397C63.6773 23.3775 63.6381 23.3153 63.5975 23.2504C63.2636 22.7372 62.8259 22.2995 62.3127 21.9656C62.2137 21.8997 62.1102 21.841 62.003 21.7898C61.9421 21.76 61.8799 21.7316 61.8163 21.7032C61.9137 21.6396 62.0111 21.568 62.103 21.5003C62.5867 21.1189 62.9836 20.639 63.2675 20.0924C63.3563 19.9257 63.4358 19.7541 63.5055 19.5785C63.5718 19.4135 63.63 19.2539 63.68 19.1051L63.7611 18.8604H62.8631L62.8171 18.9794C62.7739 19.0939 62.7265 19.2129 62.6751 19.3364C62.6239 19.46 62.5657 19.5806 62.5007 19.6975C62.0084 20.6077 61.3376 21.1487 60.4558 21.3434V18.8604H59.5916V23.8996H60.4558V22.2496C60.693 22.2628 60.928 22.3027 61.1563 22.3686C61.8326 22.5769 62.4114 23.03 62.8699 23.7211V23.7292C62.8807 23.7427 62.8888 23.7562 62.8969 23.7684L62.9429 23.836L62.9997 23.9104H63.9789L63.8234 23.625C63.7855 23.5628 63.7503 23.5006 63.7138 23.4397Z" fill="white"/>
<path d="M68.5987 21.5806C68.4791 21.4422 68.3396 21.3224 68.1849 21.2249C68.0117 21.1155 67.8309 21.0188 67.6439 20.9355L67.2652 20.7623C67.1513 20.7126 67.0406 20.6557 66.9338 20.5919C66.8607 20.55 66.7934 20.4987 66.7337 20.4391C66.6916 20.396 66.6593 20.3443 66.639 20.2876C66.6158 20.2179 66.6049 20.1447 66.6066 20.0712C66.6023 20.0053 66.6121 19.9392 66.6355 19.8774C66.6588 19.8156 66.695 19.7595 66.7418 19.7128C66.8637 19.6135 67.0192 19.565 67.1759 19.5776C67.3286 19.5687 67.4801 19.6085 67.6087 19.6912C67.7266 19.779 67.8275 19.8876 67.9063 20.0117L68.005 20.1673L68.7218 19.7196L68.6271 19.5627C68.4872 19.3287 68.2951 19.1301 68.0658 18.9825C67.7974 18.8222 67.4884 18.7428 67.1759 18.754C66.9831 18.7521 66.7914 18.7837 66.6093 18.8473C66.4402 18.9066 66.2845 18.9985 66.1508 19.1178C66.0157 19.2399 65.9084 19.3895 65.8358 19.5565C65.7633 19.7235 65.7273 19.9041 65.7302 20.0861C65.7273 20.2595 65.7548 20.4321 65.8113 20.596C65.8648 20.7446 65.945 20.8821 66.048 21.0017C66.1561 21.1234 66.2814 21.2287 66.4199 21.3141C66.5724 21.4081 66.7299 21.4934 66.8919 21.5698L67.2733 21.7429C67.5012 21.8339 67.712 21.9629 67.8968 22.1243C67.9545 22.1835 67.9991 22.2542 68.0278 22.3318C68.0564 22.4094 68.0685 22.4921 68.0631 22.5746C68.0656 22.6639 68.0466 22.7525 68.0077 22.8329C67.9688 22.9091 67.9139 22.976 67.8467 23.029C67.7708 23.0898 67.6841 23.1357 67.5911 23.1643C67.4824 23.1974 67.3694 23.2138 67.2557 23.213C67.1232 23.2152 66.991 23.1978 66.8635 23.1616C66.7626 23.1322 66.6671 23.0865 66.5809 23.0263C66.499 22.9679 66.4253 22.8987 66.3618 22.8208C66.2967 22.7422 66.24 22.6569 66.1927 22.5665L66.1075 22.4029L65.3623 22.7829L65.4407 22.9452C65.5103 23.0906 65.5975 23.2269 65.7004 23.3509C65.8131 23.4848 65.9448 23.6014 66.0913 23.6972C66.253 23.8024 66.4293 23.883 66.6147 23.9365C66.8314 23.9986 67.0561 24.0282 67.2814 24.0244C67.5005 24.0266 67.7186 23.9947 67.9279 23.9298C68.1208 23.8697 68.3007 23.7738 68.4581 23.6471C68.6123 23.521 68.7358 23.3615 68.8192 23.1805C68.9059 22.99 68.9494 22.7826 68.9463 22.5733C68.9482 22.3892 68.9184 22.2063 68.8584 22.0323C68.7996 21.8674 68.7116 21.7144 68.5987 21.5806Z" fill="white"/>
<path d="M26.3605 13.8915C26.4133 14.8531 26.6013 15.9608 25.5572 17.8204C24.8985 18.993 24.624 19.6935 24.6957 20.762C24.7673 21.8304 25.0473 22.0982 25.1514 23.2234C25.2596 24.4027 25.0811 25.3143 25.3746 25.72C25.4801 25.8661 25.9913 25.8269 26.1942 25.8269C26.397 25.8269 26.5445 25.7024 26.4011 25.3576C26.2577 25.0127 25.5261 23.8848 26.0522 23.0733C26.5783 22.2618 27.172 22.0887 28.3067 22.0292C29.4414 21.9697 30.3516 22.0211 30.967 21.852C31.5823 21.683 31.9637 21.4747 32.2856 21.1312C32.6075 20.7877 32.905 20.1615 32.9334 19.8396C32.9618 19.5177 32.978 19.2202 32.882 19.1701C32.8591 19.1616 32.8348 19.1577 32.8104 19.1588C32.786 19.1598 32.762 19.1658 32.74 19.1762C32.7179 19.1867 32.6981 19.2015 32.6819 19.2197C32.6656 19.2379 32.6532 19.2593 32.6453 19.2824C32.6016 19.7477 32.4123 20.1873 32.1044 20.5388C31.8558 20.8291 31.5173 21.0281 31.1428 21.1041C31.1281 21.1069 31.113 21.1048 31.0997 21.0981C31.0864 21.0914 31.0757 21.0805 31.0692 21.0671C31.0627 21.0537 31.0609 21.0385 31.0639 21.0239C31.0669 21.0094 31.0747 20.9962 31.086 20.9865C31.3047 20.8157 31.4908 20.6068 31.6351 20.3697C31.8609 19.964 31.9515 19.7111 31.9056 19.6313C31.8596 19.5515 31.7595 19.5082 31.6526 19.7043C31.4818 20.0465 31.2203 20.3351 30.8966 20.5388C30.4016 20.8769 29.77 21.3002 28.6651 21.334C27.7698 21.3611 27.0814 21.3881 26.6567 21.4936C26.5904 21.5112 26.5215 21.4531 26.5796 21.3422C26.6878 21.1082 27.3194 20.8242 28.001 20.8201C29.0316 20.8201 29.8945 20.6051 30.4206 20.2561C30.8682 19.96 31.0643 19.8125 30.9075 19.6976C30.7276 19.5623 30.2204 20.0492 29.5388 20.2007C29.1742 20.2771 28.8021 20.3116 28.4298 20.3035C28.4143 20.304 28.3992 20.2991 28.387 20.2897C28.3747 20.2802 28.3662 20.2668 28.3628 20.2517C28.3595 20.2366 28.3615 20.2208 28.3685 20.2071C28.3755 20.1933 28.3872 20.1824 28.4014 20.1763C28.8233 19.9775 29.7186 19.5853 30.3448 19.5191C31.1901 19.4284 31.7419 19.4514 32.2274 19.0011C32.713 18.5507 32.878 18.2532 33.0051 17.8177C33.1403 17.3335 33.3703 16.7465 33.1863 16.6965C33.043 16.6573 32.9253 16.6965 32.7684 17.0792C32.6115 17.462 32.5953 17.9137 32.1896 18.3411C31.8149 18.7319 31.3646 18.9416 30.6113 18.8604C30.5976 18.8587 30.5848 18.8529 30.5745 18.8438C30.5642 18.8346 30.557 18.8226 30.5538 18.8092C30.5505 18.7958 30.5514 18.7818 30.5564 18.7689C30.5614 18.7561 30.5701 18.7451 30.5815 18.7373C30.8777 18.5521 31.5012 18.1274 31.8379 17.6473C32.2883 17.0049 32.7427 16.2137 32.7995 15.3981C32.8563 14.5826 32.7617 14.3459 32.529 14.3568C32.2964 14.3676 32.3167 14.6908 32.2937 15.1195C32.2734 15.5253 32.1828 16.2826 31.7392 16.7425C31.7302 16.7523 31.7184 16.7591 31.7055 16.7621C31.6925 16.7651 31.6789 16.7641 31.6665 16.7593C31.6541 16.7545 31.6435 16.746 31.6359 16.7351C31.6284 16.7241 31.6243 16.7112 31.6242 16.6978C31.6242 16.4909 31.8501 15.3981 31.8866 14.8044C31.9448 13.8496 31.9231 13.3032 31.8582 13.1017C31.7838 12.8691 31.6689 12.696 31.5539 12.7149C31.3538 12.7473 31.3335 12.8704 31.3781 13.2559C31.476 14.0209 31.455 14.7964 31.3159 15.555C31.209 16.1555 31.1347 16.9467 30.9426 17.2943C30.7506 17.6419 30.6532 18.1531 29.7727 18.6724C29.7604 18.679 29.7462 18.6816 29.7323 18.6796C29.7184 18.6777 29.7054 18.6713 29.6953 18.6616C29.6853 18.6518 29.6785 18.639 29.6762 18.6252C29.6738 18.6113 29.6759 18.5971 29.6821 18.5845C29.8634 18.1937 30.2732 17.1996 30.3584 16.8182C30.4706 16.307 30.4801 16.0392 30.3868 15.9986C30.2934 15.9581 30.2515 16.0906 30.2177 16.2123C30.1839 16.334 29.6767 17.934 28.7503 18.9064C28.7408 18.9157 28.7287 18.9221 28.7156 18.9245C28.7024 18.927 28.6889 18.9256 28.6766 18.9204C28.6643 18.9152 28.6538 18.9064 28.6465 18.8953C28.6391 18.8841 28.6353 18.8711 28.6353 18.8577C28.6421 18.4384 28.7219 17.2889 29.3805 16.5099C30.2001 15.5402 30.5044 15.0573 30.6316 14.7287C30.7587 14.4 30.8236 13.8726 30.6505 13.8198C30.4774 13.7671 30.2826 14.3973 30.1393 14.7179C29.8758 15.2706 29.4772 15.7478 28.9802 16.1055C28.9701 16.1123 28.9583 16.1163 28.9461 16.117C28.9339 16.1176 28.9217 16.115 28.9109 16.1093C28.9001 16.1036 28.891 16.0951 28.8846 16.0847C28.8782 16.0742 28.8748 16.0623 28.8747 16.05C28.8829 15.6003 29.024 15.1631 29.2805 14.7936C29.7538 14.1174 30.6694 13.3059 30.8358 12.865C31.0021 12.4241 31.0819 12.086 30.948 11.825C30.7817 11.4977 30.4895 11.3043 30.43 11.6221C30.3922 11.825 30.5274 12.1482 30.3624 12.4566C30.197 12.7882 29.9917 13.0984 29.7511 13.3803C29.7418 13.3894 29.7301 13.3957 29.7173 13.3983C29.7046 13.401 29.6913 13.3998 29.6792 13.3951C29.6671 13.3904 29.6565 13.3823 29.6489 13.3717C29.6413 13.3612 29.6368 13.3487 29.6361 13.3357C29.6253 13.0016 29.6605 12.1942 29.6794 11.9981C29.7119 11.6519 29.9377 11.3138 29.8661 11.1717C29.7011 10.8377 29.5117 10.7363 29.4387 10.7876C29.2385 10.931 29.1831 11.2313 29.1682 11.8547C29.1533 12.4782 29.2818 13.8266 28.7814 14.2891C28.7744 14.2958 28.7661 14.3009 28.757 14.304C28.7478 14.3072 28.7381 14.3083 28.7285 14.3074C28.7189 14.3066 28.7096 14.3036 28.7012 14.2988C28.6929 14.294 28.6856 14.2875 28.68 14.2797C28.611 14.1809 28.5217 13.8739 28.6502 12.8894C28.8382 11.4544 28.9207 10.3873 28.5826 10.1087C28.2445 9.83012 28.0795 10.1317 28.1174 10.2818C28.2971 10.8322 28.3611 11.4137 28.3053 11.99C28.3033 12.0102 28.2944 12.0291 28.2801 12.0436C28.2659 12.0581 28.2471 12.0672 28.2269 12.0696C28.2067 12.072 28.1864 12.0674 28.1691 12.0566C28.1519 12.0458 28.1389 12.0295 28.1322 12.0103C28.0173 11.7736 27.9618 11.5937 27.878 11.3854C27.7537 11.0964 27.6778 10.7889 27.6535 10.4752C27.6318 10.1452 27.6967 9.85987 27.6751 9.77602C27.6426 9.65024 27.2694 9.53528 27.1422 9.67864C27.0151 9.822 27.2017 10.8661 27.4276 11.5491C27.6535 12.2321 28.1944 13.5777 28.1633 15.2088C28.1349 16.8128 28.3635 18.9957 27.099 19.8071C27.0839 19.8175 27.0664 19.8238 27.0482 19.8254C27.03 19.827 27.0116 19.824 26.9949 19.8165C26.9783 19.8091 26.9638 19.7974 26.9528 19.7828C26.9419 19.7681 26.935 19.7509 26.9326 19.7327C26.9036 19.6502 26.892 19.5625 26.8985 19.4752C26.905 19.3879 26.9295 19.3029 26.9705 19.2256C27.195 18.713 27.3032 18.6386 27.3762 18.5615C27.4181 18.5169 27.4736 18.4357 27.4019 18.383C27.3302 18.3303 26.9542 18.475 26.7338 18.759C26.5228 19.021 26.3731 19.3269 26.2956 19.6543C26.1739 20.1601 26.2794 20.2832 25.9467 20.8715C25.9351 20.8901 25.9184 20.905 25.8986 20.9144C25.8788 20.9238 25.8568 20.9274 25.835 20.9247C25.8133 20.922 25.7927 20.9131 25.7759 20.8991C25.759 20.8852 25.7465 20.8667 25.7397 20.8458C25.6383 20.555 25.4963 20.1831 25.7073 19.6989C26.0075 19.0078 26.2631 18.3465 26.7744 17.7068C27.2856 17.0671 28.0321 15.885 27.713 13.8564C27.5074 12.5418 27.4195 12.3484 27.3235 12.2334C27.2099 12.0982 27.0881 12.1617 27.0435 12.297C26.9989 12.4322 27.0435 12.6189 27.1558 13.1179C27.291 13.7346 27.5615 15.0465 26.9204 15.9783C26.9131 15.9888 26.9029 15.997 26.8912 16.0019C26.8794 16.0068 26.8664 16.0083 26.8539 16.0062C26.8413 16.004 26.8295 15.9984 26.82 15.9899C26.8105 15.9814 26.8036 15.9703 26.8001 15.9581C26.7736 15.8309 26.7736 15.6997 26.8001 15.5726C26.9184 14.825 26.9198 14.0635 26.8041 13.3154C26.6459 12.2551 26.443 11.0162 26.4728 10.5956C26.5025 10.175 26.5634 9.6259 26.2929 9.48254C26.0224 9.33918 25.7966 9.48254 25.7817 9.7679C25.761 10.2093 25.7814 10.6516 25.8425 11.0892C25.9156 11.6924 26.3078 12.9299 26.3605 13.8915Z" fill="white"/>
<path d="M18.9328 19.4964C20.2853 19.5789 21.773 19.9332 21.8406 20.3079C21.9082 20.6825 20.7438 20.4729 20.3529 20.3227C19.962 20.1726 19.0911 19.6316 18.9558 19.7209C18.8206 19.8102 19.4224 20.5324 20.1203 20.6838C20.8039 20.8365 21.4963 20.9467 22.1936 21.0138C22.8333 21.0733 23.4338 21.3925 23.4108 21.5697C23.3743 21.8699 22.9753 21.3438 21.8487 21.2992C20.7221 21.2546 19.8119 21.187 19.0762 20.6311C18.3405 20.0752 17.84 19.4017 17.5696 19.4288C17.2991 19.4558 17.7346 19.9386 17.8847 20.0969C18.0078 20.2321 18.4121 20.6663 18.5609 20.8231C18.5664 20.8289 18.57 20.8361 18.5713 20.8439C18.5726 20.8518 18.5715 20.8598 18.5681 20.867C18.5647 20.8741 18.5593 20.8801 18.5524 20.8841C18.5456 20.8881 18.5377 20.89 18.5298 20.8894C18.4148 20.8799 18.166 20.8002 17.6872 20.412C17.41 20.1861 17.0719 19.5924 16.9515 19.7736C16.8311 19.9549 17.245 20.8083 18.0618 21.1599C18.9342 21.5413 19.7686 21.8294 20.8641 21.8916C22.249 21.97 23.7529 22.3176 23.9071 23.1886C24.0613 24.0596 24.0424 24.5072 23.7908 25.0022C23.5393 25.4972 23.4067 25.8218 23.899 25.8218C24.2642 25.8218 24.4697 25.8583 24.605 25.7163C24.7754 25.5364 24.7943 25.0401 24.8011 24.5857C24.7772 23.7409 24.6868 22.8993 24.5306 22.0687C24.3724 21.3168 23.876 20.2132 24.5306 18.9432C25.1852 17.6733 26.2604 16.471 26.0183 14.0284C25.81 11.8645 25.5422 11.8348 25.3894 11.8808C25.2839 11.9119 25.3029 12.3487 25.3894 12.9384C25.4949 13.6376 25.6599 15.1699 25.077 16.1315C25.0661 16.15 25.0506 16.1654 25.032 16.176C25.0134 16.1867 24.9923 16.1923 24.9708 16.1923C24.9494 16.1923 24.9283 16.1867 24.9097 16.176C24.891 16.1654 24.8755 16.15 24.8647 16.1315C24.7037 15.8434 24.3967 15.0807 24.4806 14.4166C24.5942 13.5294 24.7889 13.4469 24.7605 13.3346C24.7321 13.2224 24.6118 13.2359 24.4725 13.3982C24.3331 13.5605 24.0099 14.2097 24.1005 15.1131C24.1857 15.9652 24.4779 16.6468 24.0735 17.277C24.0667 17.2876 24.057 17.2961 24.0456 17.3015C24.0343 17.3069 24.0216 17.309 24.0091 17.3076C23.9966 17.3062 23.9847 17.3013 23.9748 17.2935C23.9649 17.2857 23.9574 17.2753 23.9531 17.2635C23.8828 17.0512 23.7354 16.6211 23.642 16.4155C23.5068 16.1383 23.3161 15.412 23.4081 14.8372C23.5006 14.2291 23.7547 13.6569 24.1438 13.1805C24.5495 12.63 25.2569 11.287 25.361 10.4837C25.4841 9.60188 25.4124 9.50316 25.127 9.53697C24.8417 9.57078 24.7213 10.1253 24.6266 10.4837C24.4344 11.1294 24.2004 11.7618 23.9261 12.3771C23.7716 12.6832 23.5906 12.9751 23.3851 13.2494C23.3765 13.2607 23.3646 13.269 23.351 13.273C23.3374 13.277 23.3229 13.2765 23.3096 13.2717C23.2963 13.2669 23.2849 13.2579 23.2771 13.2461C23.2692 13.2343 23.2654 13.2203 23.2661 13.2062C23.2728 12.772 23.2661 11.5832 23.4825 10.8745C23.7529 9.99545 23.9409 9.67492 23.7083 9.52209C23.4757 9.36926 22.9564 10.0847 22.7535 11.0395C22.5506 11.9944 22.5506 13.3603 22.6061 14.4085C22.6482 15.1001 22.7386 15.7879 22.8766 16.4669C22.8789 16.4804 22.8771 16.4942 22.8714 16.5066C22.8657 16.519 22.8564 16.5295 22.8447 16.5365C22.833 16.5435 22.8195 16.5468 22.8058 16.546C22.7922 16.5452 22.7791 16.5402 22.7684 16.5318C22.5935 16.375 22.4621 16.1756 22.387 15.953C22.1841 15.412 22.2166 14.7885 22.13 14.7696C22.0096 14.7439 21.8852 14.7831 21.9069 15.3173C21.9285 15.8515 21.892 16.3668 22.6358 17.1702C23.3797 17.9735 23.477 18.0263 23.4392 18.7025C23.4054 19.3111 23.3377 19.4883 23.4297 20.22C23.4432 20.3336 23.2404 20.4066 23.1592 20.2281C23.0781 20.0495 23.0605 20.0806 23.0483 19.7331C23.0267 19.0785 22.9712 18.9716 22.8671 18.7512C22.698 18.3928 22.4046 18.0885 22.3031 18.1548C22.2017 18.221 22.268 18.4253 22.3207 18.5348C22.4265 18.7495 22.5047 18.9767 22.5533 19.211C22.6101 19.5126 22.4965 19.6627 22.3058 19.5248C22.1151 19.3868 21.7189 18.9838 21.6215 16.9362C21.4862 14.2624 21.7784 12.864 22.0042 12.0985C22.2301 11.333 22.9415 10.0698 22.6575 9.94946C22.3437 9.81422 22.1625 9.92647 22.0948 10.2118C22.0272 10.4972 21.8419 11.5656 21.466 12.2337C21.4594 12.2447 21.4498 12.2536 21.4383 12.2594C21.4269 12.2651 21.414 12.2675 21.4012 12.2663C21.3885 12.265 21.3763 12.2601 21.3663 12.2522C21.3562 12.2443 21.3485 12.2337 21.3442 12.2216C21.2457 11.9042 21.2331 11.5663 21.3077 11.2424C21.443 10.5513 21.4051 10.2659 21.2103 10.2741C21.0156 10.2822 20.7221 11.0328 20.8263 11.7617C20.9304 12.4907 21.0602 12.933 21.0075 13.3847C20.9615 13.7796 20.9696 13.9527 20.8655 14.1123C20.8593 14.1204 20.8513 14.127 20.8422 14.1316C20.833 14.1361 20.8229 14.1384 20.8127 14.1384C20.8025 14.1384 20.7924 14.1361 20.7833 14.1316C20.7741 14.127 20.7662 14.1204 20.76 14.1123C20.6518 13.9892 20.5179 13.7904 20.3177 12.956C20.2177 12.5502 20.1284 12.1864 20.2163 11.7388C20.3042 11.2911 20.4746 11.0517 20.3218 10.9908C20.2366 10.957 19.8309 11.3776 19.8336 12.0025C19.8336 12.9884 20.2393 13.5591 19.9593 13.7255C19.6794 13.8918 19.2574 13.2332 19.2642 12.676C19.2642 12.2851 19.3088 12.0431 19.1587 12.0431C19.0086 12.0431 18.8138 12.3771 18.922 12.9735C19.0207 13.5375 19.275 13.9662 20.0716 14.5072C20.8682 15.0482 20.9507 15.9083 20.8046 16.0436C20.6585 16.1788 19.8714 15.5432 19.5401 15.1496C19.0748 14.5965 18.9017 13.7133 18.7665 13.735C18.6312 13.7566 18.4838 14.4653 19.1573 15.5188C19.7943 16.5156 21.2699 16.736 21.0508 18.3319C20.998 18.7228 20.645 18.6917 20.3745 18.4956C19.9711 18.1879 19.665 17.7705 19.4927 17.2933C19.1086 16.3168 19.1032 15.8651 18.9518 15.8434C18.7354 15.8123 18.7218 16.2911 18.8098 16.6968C18.9098 17.1621 19.2696 17.956 19.6212 18.4956C19.629 18.5072 19.6328 18.5211 19.6322 18.5351C19.6316 18.5491 19.6266 18.5625 19.6179 18.5735C19.6092 18.5844 19.5972 18.5924 19.5837 18.5961C19.5702 18.5999 19.5559 18.5992 19.5428 18.5943C19.3399 18.524 19.0018 18.3238 18.7624 17.8085C18.3656 16.9133 18.1522 15.9475 18.1349 14.9684C18.1443 14.3219 18.1849 13.9189 18.2701 13.6849C18.3445 13.4875 18.3729 13.1669 18.2552 13.1196C18.0875 13.0533 17.8806 13.2548 17.7684 13.6606C17.6561 14.0663 17.6588 14.7655 17.694 15.435C17.7509 16.0218 17.8613 16.6022 18.024 17.1688C18.0269 17.1816 18.0254 17.195 18.0196 17.2068C18.0137 17.2185 18.004 17.2279 17.9921 17.2333C17.9801 17.2388 17.9667 17.2399 17.954 17.2365C17.9413 17.2331 17.9302 17.2255 17.9225 17.2148C17.7635 16.9811 17.6277 16.7324 17.5168 16.4723C17.1773 15.6974 17.291 14.9697 17.0773 14.9386C16.8311 14.8981 16.8149 15.4106 16.9042 15.8624C16.9515 16.0977 17.3924 18.0479 18.6434 18.7891C18.6577 18.7962 18.669 18.8083 18.6751 18.8231C18.6812 18.8379 18.6818 18.8544 18.6767 18.8695C18.6716 18.8847 18.6611 18.8975 18.6473 18.9056C18.6335 18.9137 18.6172 18.9165 18.6015 18.9135C18.357 18.8814 18.1245 18.7883 17.9253 18.643C17.0908 18.0114 17.2071 17.3501 16.9447 17.3135C16.6824 17.277 16.7987 17.9411 16.9447 18.2143C17.1111 18.5199 17.5885 19.4139 18.9328 19.4964Z" fill="white"/>
</g>
<defs>
<clipPath id="clip0_3460_251620">
<rect width="58.1106" height="20" fill="white" transform="translate(15 7.5)"/>
</clipPath>
</defs>
</svg>
