<svg width="77" height="35" viewBox="0 0 77 35" fill="none" xmlns="http://www.w3.org/2000/svg">
<g clip-path="url(#clip0_3460_251733)">
<path d="M15 24.3696V10.5212C14.9997 10.4543 15.0125 10.388 15.0379 10.3261C15.0632 10.2642 15.1006 10.2079 15.1477 10.1605C15.1949 10.1131 15.251 10.0755 15.3128 10.0498C15.3745 10.0241 15.4408 10.0109 15.5077 10.0109H23.6462C23.775 10.0081 23.9012 10.0469 24.0061 10.1215C24.111 10.1961 24.1891 10.3025 24.2287 10.425C24.249 10.5075 24.2507 10.5935 24.2336 10.6767C24.2165 10.7599 24.1811 10.8383 24.1299 10.9061C24.0787 10.9739 24.0131 11.0295 23.9377 11.0687C23.8624 11.108 23.7792 11.13 23.6943 11.1331H16.7474C16.617 11.1331 16.492 11.1849 16.3998 11.2771C16.3076 11.3693 16.2558 11.4943 16.2558 11.6247V16.036C16.2558 16.1621 16.3059 16.2831 16.3951 16.3723C16.4843 16.4615 16.6053 16.5116 16.7314 16.5116H22.5267C22.6565 16.5093 22.7834 16.5493 22.8885 16.6254C22.9935 16.7015 23.071 16.8098 23.1092 16.9338C23.1299 17.0178 23.1312 17.1055 23.1129 17.1902C23.0946 17.2749 23.0573 17.3542 23.0037 17.4222C22.9501 17.4903 22.8817 17.5452 22.8036 17.5828C22.7256 17.6203 22.64 17.6396 22.5534 17.6391H16.7608C16.6191 17.6391 16.4831 17.6954 16.3829 17.7957C16.2827 17.8959 16.2264 18.0318 16.2264 18.1735V24.3883C16.2279 24.5519 16.1652 24.7095 16.0518 24.8274C15.9384 24.9453 15.7834 25.014 15.6199 25.0189C15.4526 25.012 15.2945 24.9405 15.1789 24.8194C15.0633 24.6983 14.9992 24.5371 15 24.3696Z" fill="white"/>
<path d="M27.3282 24.3535V10.6921C27.3232 10.5254 27.3812 10.363 27.4906 10.2372C27.6001 10.1114 27.7529 10.0315 27.9187 10.0134C28.0045 10.0092 28.0902 10.023 28.1703 10.0539C28.2505 10.0847 28.3233 10.132 28.3842 10.1926C28.4451 10.2532 28.4926 10.3258 28.5238 10.4059C28.555 10.4859 28.5691 10.5715 28.5653 10.6574V24.3642C28.5682 24.5301 28.5061 24.6907 28.3923 24.8115C28.2785 24.9323 28.1219 25.0038 27.9561 25.0108C27.7864 25.0045 27.6259 24.9323 27.5087 24.8096C27.3914 24.6868 27.3267 24.5232 27.3282 24.3535Z" fill="white"/>
<path d="M44.9813 18.2161V22.0904C44.9583 22.396 44.8364 22.6858 44.634 22.916C43.9567 23.5857 43.1535 24.1147 42.2707 24.4724C41.3879 24.8301 40.443 25.0094 39.4906 25C35.432 25 32.1536 21.9621 32.1536 17.4894C32.1536 13.0166 35.432 10.0081 39.4906 10.0081C40.4269 9.98185 41.3586 10.1475 42.2284 10.4949C43.0983 10.8423 43.8878 11.364 44.5485 12.028C44.6009 12.0779 44.6417 12.1387 44.668 12.2061C44.6943 12.2735 44.7055 12.3459 44.7008 12.4181C44.7046 12.4962 44.692 12.5742 44.6638 12.6471C44.6356 12.7201 44.5924 12.7862 44.537 12.8414C44.4816 12.8966 44.4152 12.9395 44.3422 12.9673C44.2691 12.9952 44.191 13.0075 44.113 13.0032C43.9688 13.0036 43.8298 12.9502 43.7229 12.8536C42.5939 11.7454 41.0725 11.1288 39.4906 11.1383C36.0812 11.1383 33.4548 13.722 33.4548 17.4974C33.4548 21.238 36.0812 23.8805 39.4906 23.8805C40.9497 23.869 42.3571 23.3386 43.461 22.3843C43.5501 22.3069 43.6215 22.2112 43.6704 22.1038C43.7192 21.9964 43.7444 21.8797 43.7442 21.7617V19.0658C43.7442 18.9531 43.6995 18.845 43.6198 18.7654C43.5401 18.6857 43.4321 18.6409 43.3194 18.6409H40.0597C39.9293 18.6421 39.8026 18.5976 39.7016 18.5151C39.6005 18.4326 39.5316 18.3174 39.5066 18.1894C39.4933 18.1078 39.4981 18.0242 39.5206 17.9446C39.543 17.8651 39.5826 17.7914 39.6366 17.7287C39.6906 17.6661 39.7577 17.616 39.833 17.582C39.9084 17.5481 39.9904 17.531 40.0731 17.5321H44.3C44.4809 17.5328 44.6542 17.6052 44.7819 17.7334C44.9096 17.8616 44.9813 18.0352 44.9813 18.2161Z" fill="white"/>
<path d="M54.7258 10.0239C58.9607 10.0239 61.7609 13.2783 61.7609 17.5052C61.7609 21.7322 58.9607 24.9865 54.7258 24.9865C50.4908 24.9865 47.6934 21.7295 47.6934 17.5052C47.6934 13.281 50.4721 10.0239 54.7258 10.0239ZM54.7258 11.1515C51.2096 11.1515 48.9972 13.8234 48.9972 17.5106C48.9972 21.1577 51.2096 23.8723 54.7258 23.8723C58.1992 23.8723 60.457 21.1577 60.457 17.5106C60.457 13.8207 58.1992 11.1515 54.7258 11.1515Z" fill="white"/>
</g>
<defs>
<clipPath id="clip0_3460_251733">
<rect width="46.7581" height="15" fill="white" transform="translate(15 10)"/>
</clipPath>
</defs>
</svg>
