<svg width="59" height="35" viewBox="0 0 59 35" fill="none" xmlns="http://www.w3.org/2000/svg">
<g clip-path="url(#clip0_87_442)">
<path d="M42.9584 12.566C42.5201 11.952 40.7775 9.83552 39.5427 9.34335C39.4638 9.30591 39.3801 9.27957 39.294 9.26509C39.2271 9.2509 39.1589 9.24333 39.0905 9.24248C38.8132 9.23306 38.536 9.2647 38.2679 9.33639L38.1966 9.35553L38.1392 9.37118C38.0422 9.3951 37.9483 9.43012 37.8592 9.47553C36.9514 9.86509 35.2662 11.0581 31.3566 14.8668C31.3566 14.8668 30.6732 15.4199 31.0992 14.439C31.5253 13.4581 32.1236 11.7538 31.3984 10.6025C30.7619 9.59204 29.3114 7.89118 28.3236 7.66335C28.1791 7.6249 28.029 7.61195 27.8801 7.62509C27.4768 7.66126 27.0789 7.74294 26.694 7.86857C25.4192 8.24422 22.7462 9.62335 15.7062 15.1729C15.7062 15.1729 15.2453 15.5781 15.1845 15.6651C15.1236 15.752 14.9271 16.0286 15.0888 16.2286C15.2627 16.4025 15.5045 16.4025 15.7358 16.4025C15.8231 16.4053 15.9102 16.4128 15.9966 16.4251C16.6366 16.4981 17.8053 16.7729 19.301 17.7712C19.6853 18.0703 20.1966 18.2825 20.581 18.0268C20.9653 17.7712 26.4227 12.8251 26.934 13.3781C27.4453 13.9312 25.8262 16.0651 24.5879 17.8129C23.3497 19.5607 18.8749 24.9764 18.8749 24.9764C18.8749 24.9764 17.8523 25.9573 19.174 25.9573C20.4958 25.9573 24.4123 26.2129 24.8349 26.039C25.2575 25.8651 30.0384 19.7294 30.0384 19.7294C30.0384 19.7294 35.2297 13.1816 35.9219 13.6738C36.0958 13.799 36.0175 14.2877 35.6227 14.9538C35.5132 15.1399 30.6349 22.7138 30.6349 22.7138C30.6349 22.7138 30.1566 23.2355 31.1897 23.8216C32.1149 24.352 33.5775 24.5903 35.1549 26.6373C35.6679 27.0929 35.8766 27.8547 36.4314 27.2581C37.0419 26.6025 39.7166 20.2842 41.4227 17.2129C43.1288 14.1416 43.4697 13.2894 42.9584 12.566Z" fill="white" stroke="white" stroke-width="0.26"/>
<path d="M42.9336 12.4445C42.4971 11.8254 40.7545 9.71408 39.5232 9.22713C39.38 9.16599 39.2266 9.13237 39.071 9.128C38.7936 9.11678 38.5161 9.14846 38.2484 9.22191L38.1771 9.2393L38.1197 9.25669C38.0222 9.28102 37.9278 9.31601 37.838 9.36104C36.9319 9.75061 35.2467 10.9437 31.3354 14.7523C31.3354 14.7523 30.6536 15.3071 31.0797 14.3263C31.5058 13.3454 32.1041 11.6393 31.3788 10.488C30.7423 9.47756 29.2919 7.77843 28.3041 7.55061C28.1592 7.51123 28.0083 7.49826 27.8588 7.51235C27.4562 7.54776 27.0588 7.62886 26.6745 7.75409C25.398 8.12974 22.7267 9.50887 15.6867 15.0584C15.6867 15.0584 15.2258 15.4637 15.1649 15.5506C15.1041 15.6376 14.9075 15.9123 15.0693 16.1141C15.2432 16.288 15.4832 16.288 15.7162 16.288C15.8035 16.2908 15.8906 16.2984 15.9771 16.3106C16.6154 16.3837 17.7858 16.6584 19.2815 17.655C19.6641 17.9541 20.1771 18.168 20.5597 17.9123C20.9423 17.6567 26.4015 12.7089 26.9145 13.2637C27.4275 13.8184 25.8049 15.9506 24.5684 17.6984C23.3319 19.4463 18.8467 24.8532 18.8467 24.8532C18.8467 24.8532 17.8223 25.8341 19.1441 25.8341C20.4658 25.8341 24.3893 26.0897 24.8154 25.9193C25.2415 25.7489 30.0136 19.6045 30.0136 19.6045C30.0136 19.6045 35.2067 13.0567 35.8988 13.5506C36.0728 13.6758 35.9928 14.1645 35.5997 14.8289C35.4884 15.0167 30.6101 22.5906 30.6101 22.5906C30.6101 22.5906 30.1336 23.1123 31.1649 23.6984C32.0901 24.2289 33.5528 24.4671 35.1319 26.5123C35.6536 26.968 35.8519 27.7297 36.4084 27.135C37.0188 26.4776 39.6936 20.1593 41.3997 17.0897C43.1058 14.0202 43.4467 13.1697 42.9336 12.4445Z" fill="white"/>
</g>
<defs>
<clipPath id="clip0_87_442">
<rect width="28.1983" height="20" fill="white" transform="translate(15 7.5)"/>
</clipPath>
</defs>
</svg>
