<svg width="229" height="50" viewBox="0 0 229 50" fill="none" xmlns="http://www.w3.org/2000/svg">
<g clip-path="url(#clip0_183_1051)">
<path d="M74.6727 31.2252V16.4316L84.7715 26.9991V17.3689H86.8614V32.0696L76.7626 21.5233V31.2252H74.6727Z" fill="#231F20"/>
<path d="M97.2347 24.2591C97.2218 24.9368 97.3427 25.6103 97.5905 26.2412C97.8382 26.8721 98.208 27.448 98.6786 27.9358C99.1491 28.4236 99.7113 28.8139 100.333 29.0842C100.954 29.3545 101.623 29.4996 102.301 29.5111C102.985 29.5272 103.664 29.4016 104.297 29.1422C104.93 28.8828 105.502 28.4953 105.978 28.0039C106.939 27.0095 107.478 25.6819 107.482 24.2992C107.486 22.9165 106.954 21.5858 105.999 20.586C105.031 19.621 103.72 19.0791 102.354 19.0791C100.987 19.0791 99.676 19.621 98.7081 20.586C98.2214 21.0635 97.8379 21.636 97.5815 22.2678C97.3252 22.8996 97.2014 23.5774 97.2178 24.2591H97.2347ZM95.1237 24.2337C95.1143 23.2941 95.3001 22.3628 95.6693 21.4987C96.0385 20.6347 96.583 19.8566 97.2684 19.2139C97.9369 18.5332 98.7366 17.9951 99.619 17.6323C100.501 17.2694 101.448 17.0894 102.402 17.1029C104.311 17.1152 106.138 17.8797 107.486 19.2305C108.835 20.5813 109.596 22.4095 109.605 24.3182C109.62 25.2647 109.439 26.2042 109.071 27.0765C108.703 27.9488 108.157 28.7349 107.469 29.3845C106.142 30.6822 104.373 31.4283 102.519 31.4722C100.664 31.5161 98.8612 30.8544 97.4753 29.6209C96.7063 28.9552 96.0961 28.1259 95.6892 27.1937C95.2823 26.2616 95.0891 25.2502 95.1237 24.2337Z" fill="#231F20"/>
<path d="M119.834 23.7355H120.497C122.468 23.7355 123.453 22.9784 123.453 21.4642C123.453 20.0569 122.49 19.3532 120.565 19.3532H119.822V23.7524L119.834 23.7355ZM122.435 25.323L126.72 31.2337H124.166L120.21 25.5636H119.834V31.2337H117.724V17.3731H120.172C122 17.3731 123.322 17.7193 124.137 18.4033C124.576 18.7739 124.925 19.2392 125.158 19.7642C125.391 20.2893 125.503 20.8604 125.483 21.4346C125.505 22.3515 125.206 23.2473 124.639 23.9678C124.082 24.6695 123.293 25.15 122.414 25.323H122.435Z" fill="#231F20"/>
<path d="M137.976 19.3363V31.2252H135.886V19.3363H132.703V17.3689H141.151V19.3363H137.976Z" fill="#231F20"/>
<path d="M150.616 22.7898H156.59V17.3689H158.68V31.2252H156.59V24.7572H150.616V31.2252H148.526V17.3689H150.616V22.7898Z" fill="#231F20"/>
<path d="M177.763 18.112V20.586C176.737 19.6458 175.406 19.1076 174.014 19.0703C173.34 19.0578 172.672 19.1878 172.052 19.4519C171.432 19.7161 170.875 20.1083 170.417 20.6029C169.936 21.0961 169.559 21.6802 169.307 22.321C169.054 22.9618 168.932 23.6465 168.948 24.3351C168.933 25.016 169.055 25.6929 169.307 26.3254C169.56 26.958 169.937 27.5332 170.417 28.0166C170.882 28.5012 171.443 28.8841 172.063 29.1414C172.684 29.3986 173.351 29.5245 174.023 29.5111C174.667 29.5299 175.309 29.4074 175.901 29.1522C176.213 29.0197 176.512 28.8571 176.792 28.6667C177.13 28.4408 177.454 28.1955 177.763 27.9321V30.4653C176.611 31.1404 175.299 31.496 173.963 31.4954C173.02 31.5069 172.084 31.3256 171.213 30.9627C170.341 30.5997 169.553 30.0626 168.897 29.3844C168.218 28.7343 167.68 27.9511 167.317 27.0838C166.953 26.2165 166.773 25.2837 166.786 24.3435C166.775 22.6092 167.398 20.9306 168.538 19.6234C169.213 18.8057 170.065 18.1526 171.03 17.7137C171.995 17.2747 173.047 17.0615 174.107 17.0903C175.396 17.0929 176.66 17.4461 177.763 18.112Z" fill="#231F20"/>
<path d="M187.22 24.259C187.197 25.2843 187.481 26.2931 188.037 27.1553C188.592 28.0176 189.393 28.6937 190.336 29.0967C191.279 29.4996 192.321 29.6109 193.328 29.4161C194.335 29.2213 195.26 28.7295 195.985 28.0039C196.941 27.0058 197.475 25.6771 197.475 24.2949C197.475 22.9128 196.941 21.5841 195.985 20.586C195.016 19.6207 193.705 19.0788 192.337 19.0788C190.97 19.0788 189.658 19.6207 188.689 20.586C188.204 21.0643 187.822 21.637 187.566 22.2687C187.311 22.9004 187.187 23.5778 187.203 24.259H187.22ZM185.109 24.2337C185.098 23.2935 185.284 22.3614 185.654 21.497C186.024 20.6326 186.57 19.855 187.258 19.2139C187.925 18.5334 188.723 17.9954 189.604 17.6326C190.485 17.2697 191.431 17.0895 192.384 17.1029C194.293 17.114 196.121 17.878 197.47 19.229C198.82 20.58 199.582 22.4088 199.59 24.3182C199.606 25.2647 199.424 26.2042 199.056 27.0765C198.688 27.9488 198.143 28.7349 197.454 29.3844C196.128 30.6821 194.359 31.4283 192.504 31.4722C190.649 31.516 188.847 30.8544 187.461 29.6209C186.692 28.9552 186.082 28.1259 185.675 27.1937C185.268 26.2616 185.075 25.2502 185.109 24.2337Z" fill="#231F20"/>
<path d="M211.057 19.3363V31.2252H208.967V19.3363H205.784V17.3689H214.232V19.3363H211.057Z" fill="#231F20"/>
<path d="M225.433 19.3363V31.2252H223.339V19.3363H220.155V17.3689H228.603V19.3363H225.433Z" fill="#231F20"/>
<path d="M80.824 36.663C80.7151 36.7781 80.6201 36.9056 80.5412 37.043C80.4288 37.2422 80.3747 37.4689 80.385 37.6974C80.3791 37.8528 80.4049 38.0078 80.4608 38.1529C80.5167 38.2981 80.6015 38.4304 80.71 38.5418C80.8157 38.6485 80.9422 38.7325 81.0816 38.7884C81.2211 38.8443 81.3705 38.871 81.5206 38.8668C81.8208 38.8707 82.1151 38.7839 82.365 38.6178C82.622 38.4511 82.8454 38.2377 83.0236 37.9887C83.208 37.7312 83.3505 37.4463 83.4458 37.1443C83.5383 36.8721 83.5881 36.5873 83.5936 36.2999C83.6072 36.1619 83.5879 36.0226 83.5372 35.8934C83.4866 35.7642 83.4061 35.6489 83.3023 35.5569C83.0711 35.4008 82.7956 35.3238 82.517 35.3373C81.9875 35.3446 81.4644 35.4535 80.976 35.6582C80.4336 35.8797 79.9238 36.1737 79.4604 36.5321C78.9573 36.9131 78.496 37.3461 78.084 37.824C77.2295 38.815 76.5923 39.9743 76.2137 41.2269C76.0321 41.828 75.9397 42.4524 75.9393 43.0803C75.9374 43.373 75.9772 43.6644 76.0575 43.9458C76.1314 44.2042 76.2485 44.4483 76.4037 44.6677C76.5464 44.8673 76.7272 45.0366 76.9357 45.1659C77.1399 45.2872 77.3736 45.35 77.6112 45.3475C77.9829 45.346 78.349 45.2563 78.6793 45.0857C79.0247 44.9091 79.3386 44.6766 79.6081 44.3975C79.8842 44.1129 80.1073 43.7812 80.2667 43.4181C80.4325 43.058 80.5175 42.6661 80.5158 42.2697C80.5163 42.0668 80.4951 41.8644 80.4525 41.666C80.4148 41.4873 80.3478 41.3161 80.2541 41.1593C80.1695 41.0159 80.0524 40.8944 79.9121 40.8047C79.7623 40.7095 79.587 40.6623 79.4097 40.6696C79.2385 40.6639 79.068 40.6944 78.9094 40.7591C78.7507 40.8239 78.6076 40.9214 78.4893 41.0453C78.2512 41.2973 78.066 41.5945 77.9447 41.9193C77.8205 42.229 77.7327 42.552 77.6829 42.8819C77.6428 43.1022 77.6188 43.3251 77.6112 43.5489H77.4381C77.4403 43.1613 77.4914 42.7755 77.5901 42.4006C77.6841 42.0105 77.841 41.6384 78.0545 41.2987C78.2655 40.9686 78.5466 40.689 78.8777 40.4796C79.238 40.2591 79.6545 40.1477 80.0768 40.1587C80.319 40.156 80.5597 40.1989 80.786 40.2854C80.9976 40.3662 81.1902 40.4898 81.3518 40.6485C81.5143 40.8063 81.6448 40.9941 81.736 41.2016C81.8321 41.4226 81.881 41.6613 81.8795 41.9024C81.873 42.3812 81.7374 42.8495 81.4869 43.2576C81.2197 43.717 80.8689 44.1222 80.4525 44.4524C80.006 44.8101 79.5059 45.095 78.9706 45.2968C78.4195 45.5141 77.832 45.6244 77.2396 45.6219C76.1138 45.6219 75.2821 45.3404 74.7445 44.7775C74.1905 44.1411 73.9046 43.315 73.9466 42.4724C73.9532 41.8627 74.0884 41.2614 74.3434 40.7076C74.621 40.1006 74.9772 39.5328 75.4031 39.0188C75.8565 38.4656 76.3642 37.9592 76.9188 37.5074C77.4785 37.0469 78.0791 36.6385 78.7131 36.2873C79.3064 35.9533 79.9333 35.683 80.5834 35.4809C81.1466 35.2965 81.7345 35.1983 82.327 35.1896C82.6097 35.1899 82.8919 35.211 83.1714 35.2529C83.4355 35.2882 83.6913 35.3696 83.9271 35.4936C84.1648 35.6196 84.3608 35.812 84.4912 36.0474C84.6216 36.2827 84.6808 36.5508 84.6617 36.8192C84.6578 37.1143 84.5825 37.404 84.4422 37.6636C84.2923 37.9465 84.087 38.1964 83.8385 38.3982C83.5738 38.6172 83.2741 38.79 82.9519 38.9091C82.6104 39.0369 82.2484 39.1013 81.8837 39.0991C81.6717 39.0998 81.4604 39.0743 81.2547 39.0231C81.0607 38.974 80.8775 38.8895 80.7143 38.774C80.5599 38.6645 80.434 38.5198 80.347 38.3518C80.2506 38.1565 80.2042 37.9403 80.2119 37.7227C80.2136 37.5227 80.2537 37.3249 80.3301 37.1401C80.4179 36.9329 80.5456 36.745 80.7058 36.587L80.8198 36.6757L80.824 36.663Z" fill="#7E543A"/>
<path d="M86.3041 40.5387C86.0544 40.7107 85.8286 40.9151 85.6328 41.1466C85.4048 41.4099 85.1999 41.6924 85.0206 41.991C84.8353 42.2994 84.6703 42.6195 84.5267 42.9494C84.3909 43.2511 84.2794 43.5631 84.1931 43.8824C84.1188 44.1407 84.0776 44.4075 84.0707 44.6762C84.0611 44.8641 84.1146 45.0498 84.2227 45.2039C84.271 45.2695 84.3349 45.322 84.4086 45.3566C84.4823 45.3913 84.5635 45.407 84.6449 45.4023C84.8929 45.3948 85.1328 45.3124 85.333 45.1659C85.5833 44.9929 85.8103 44.7886 86.0086 44.5579C86.2339 44.2935 86.4372 44.0111 86.6165 43.7136C86.8007 43.4053 86.967 43.0867 87.1147 42.7594C87.25 42.4532 87.3615 42.137 87.4482 41.8137C87.5202 41.5579 87.5599 41.2941 87.5664 41.0284C87.5763 40.8424 87.5243 40.6583 87.4187 40.5049C87.3703 40.4393 87.3064 40.3868 87.2327 40.3522C87.159 40.3175 87.0778 40.3018 86.9965 40.3065C86.7489 40.3125 86.5089 40.3935 86.3083 40.5387H86.3041ZM91.7714 41.7673C91.7335 41.801 91.6701 41.8644 91.5857 41.9572C91.4887 42.0573 91.3811 42.1465 91.2648 42.2232C91.1338 42.3194 90.9922 42.4002 90.8426 42.4639C90.6779 42.5373 90.4994 42.5747 90.3191 42.5736C90.0873 42.5772 89.8592 42.5158 89.6605 42.3963C89.4481 42.2731 89.2594 42.113 89.1032 41.9235C89.1019 42.4117 88.9831 42.8924 88.757 43.3251C88.525 43.7696 88.2113 44.1663 87.8324 44.4946C87.4451 44.8325 87.0023 45.101 86.5236 45.2883C86.0358 45.4813 85.5157 45.5802 84.9911 45.5796C84.6856 45.5803 84.3811 45.5463 84.0834 45.4783C83.8049 45.4199 83.54 45.3096 83.3023 45.1532C83.0771 44.9996 82.8907 44.7959 82.7577 44.5579C82.613 44.2778 82.5418 43.9654 82.5508 43.6502C82.5452 43.1376 82.6779 42.633 82.935 42.1894C83.188 41.7579 83.5237 41.3806 83.9229 41.0791C84.3312 40.7661 84.7914 40.5274 85.2824 40.374C85.7657 40.2194 86.2695 40.1383 86.7769 40.1334C87.1201 40.1224 87.462 40.1813 87.7817 40.3065C88.029 40.4083 88.2574 40.551 88.4573 40.7287C88.638 40.8875 88.7957 41.0709 88.9259 41.2733C89.0445 41.4613 89.1727 41.6431 89.3101 41.8179C89.4286 41.9792 89.571 42.1216 89.7323 42.2401C89.9055 42.3599 90.1128 42.4206 90.3233 42.4132C90.5602 42.4079 90.7915 42.3409 90.9946 42.219C91.2508 42.0744 91.4794 41.8857 91.6701 41.6617L91.7841 41.7757L91.7714 41.7673Z" fill="#7E543A"/>
<path d="M90.7203 40.6443L90.8216 40.4205H91.9953L93.2027 38.3602L95.1701 38.2927L93.9036 40.4036H95.8583L95.7485 40.6274H93.7896C93.6587 40.8554 93.4772 41.1509 93.245 41.5224C93.0128 41.894 92.7848 42.2739 92.5568 42.6708C92.3288 43.0677 92.1346 43.4476 91.9615 43.8192C91.8144 44.1009 91.7268 44.4099 91.704 44.7269C91.6972 44.7924 91.706 44.8586 91.7294 44.9202C91.7529 44.9818 91.7904 45.037 91.8391 45.0815C91.9469 45.1628 92.08 45.2032 92.2148 45.1955C92.4876 45.1871 92.7547 45.1163 92.9959 44.9886C93.2944 44.84 93.5773 44.6618 93.8403 44.4567C94.1252 44.2316 94.3946 43.9876 94.6466 43.7263C94.9042 43.4561 95.1533 43.1901 95.3855 42.9241L96.0145 42.1811L96.4705 41.6196L96.5803 41.6744C96.2594 42.0544 95.9174 42.4724 95.5628 42.941C95.2054 43.3907 94.816 43.814 94.3975 44.2076C93.9934 44.5915 93.5406 44.9209 93.0508 45.1871C92.5666 45.4461 92.0251 45.5797 91.476 45.5755C91.2989 45.5891 91.1209 45.5653 90.9537 45.5056C90.7864 45.446 90.6335 45.3518 90.505 45.2293C90.2863 44.9822 90.1727 44.6596 90.1883 44.33C90.1883 44.1403 90.2138 43.9514 90.2643 43.7685C90.3352 43.5322 90.4286 43.3032 90.5429 43.0846C90.6738 42.8144 90.8511 42.4893 91.0665 42.1008C91.2818 41.7124 91.5646 41.2269 91.9108 40.6401L90.7203 40.6443Z" fill="#7E543A"/>
<path d="M95.4361 40.6443L95.5374 40.4205H96.7026L97.9059 38.3602L99.8775 38.2927L98.6109 40.4036H100.549L100.439 40.6274H98.4801C98.3492 40.8554 98.1677 41.1509 97.9354 41.5224C97.7032 41.894 97.4753 42.2739 97.2473 42.6708C97.0193 43.0677 96.8251 43.4476 96.652 43.8192C96.5059 44.1011 96.4197 44.4101 96.3987 44.7269C96.3914 44.7921 96.3995 44.8581 96.4222 44.9197C96.4449 44.9812 96.4817 45.0366 96.5295 45.0815C96.6386 45.1634 96.7733 45.2039 96.9095 45.1955C97.1809 45.1871 97.4467 45.1163 97.6863 44.9886C97.9849 44.84 98.2678 44.6618 98.5307 44.4567C98.8165 44.2327 99.086 43.9886 99.3371 43.7263C99.5989 43.4561 99.8437 43.1901 100.076 42.9241C100.308 42.6581 100.498 42.409 100.705 42.1811L101.161 41.6196L101.275 41.6744C100.95 42.0544 100.612 42.4724 100.253 42.941C99.8973 43.3907 99.5093 43.814 99.0922 44.2076C98.6858 44.5907 98.2317 44.9199 97.7412 45.1871C97.2584 45.4456 96.7184 45.5792 96.1707 45.5755C95.9999 45.597 95.8265 45.5799 95.6632 45.5256C95.4999 45.4713 95.3508 45.3811 95.2269 45.2617C95.103 45.1422 95.0074 44.9965 94.9472 44.8353C94.8869 44.6741 94.8636 44.5014 94.8788 44.33C94.8788 44.1403 94.9043 43.9514 94.9548 43.7685C95.0295 43.5335 95.1226 43.3048 95.2334 43.0846C95.3643 42.8144 95.5416 42.4893 95.7569 42.1008C95.9723 41.7124 96.2551 41.2269 96.6013 40.6401L95.4361 40.6443Z" fill="#7E543A"/>
<path d="M103.361 40.5387C103.11 40.7116 102.883 40.916 102.685 41.1466C102.46 41.4111 102.256 41.6935 102.077 41.991C101.892 42.3002 101.726 42.6203 101.579 42.9494C101.445 43.2518 101.334 43.5637 101.245 43.8824C101.172 44.1409 101.132 44.4076 101.127 44.6762C101.119 44.8633 101.171 45.0482 101.275 45.2039C101.324 45.2686 101.388 45.3205 101.462 45.3551C101.535 45.3896 101.616 45.4059 101.697 45.4023C101.945 45.3948 102.185 45.3124 102.385 45.1659C102.636 44.9929 102.863 44.7886 103.061 44.5579C103.286 44.2935 103.489 44.0111 103.669 43.7136C103.853 43.4053 104.019 43.0867 104.167 42.7594C104.303 42.4539 104.413 42.1375 104.496 41.8137C104.569 41.558 104.61 41.2942 104.619 41.0284C104.629 40.8424 104.577 40.6583 104.471 40.5049C104.423 40.4393 104.359 40.3868 104.285 40.3522C104.211 40.3175 104.13 40.3018 104.049 40.3065C103.801 40.3125 103.561 40.3935 103.361 40.5387ZM108.824 41.7673C108.79 41.801 108.727 41.8644 108.642 41.9572C108.545 42.0573 108.438 42.1465 108.321 42.2232C108.19 42.3194 108.049 42.4002 107.899 42.4639C107.734 42.5373 107.556 42.5747 107.376 42.5736C107.143 42.5766 106.913 42.5153 106.713 42.3963C106.51 42.2696 106.33 42.1097 106.181 41.9235H106.155C106.155 42.4123 106.034 42.8935 105.805 43.3251C105.576 43.7703 105.264 44.1673 104.885 44.4946C104.497 44.8316 104.054 45.1 103.576 45.2883C103.088 45.4813 102.568 45.5802 102.043 45.5796C101.738 45.5805 101.433 45.5465 101.136 45.4783C100.857 45.4199 100.592 45.3096 100.355 45.1532C100.128 45.0017 99.9407 44.7975 99.8099 44.5579C99.6632 44.2785 99.5919 43.9656 99.6031 43.6502C99.5953 43.1374 99.7281 42.6321 99.9872 42.1894C100.24 41.7592 100.574 41.3821 100.971 41.0791C101.381 40.766 101.842 40.5274 102.335 40.374C102.818 40.2194 103.322 40.1383 103.829 40.1334C104.172 40.1224 104.514 40.1813 104.834 40.3065C105.081 40.4083 105.31 40.551 105.509 40.7287C105.689 40.8886 105.847 41.0718 105.978 41.2733C106.105 41.4731 106.231 41.6547 106.358 41.8179C106.478 41.978 106.62 42.1201 106.78 42.2401C106.954 42.3599 107.161 42.4206 107.371 42.4132C107.608 42.4079 107.84 42.3409 108.043 42.219C108.299 42.0744 108.527 41.8857 108.718 41.6617L108.828 41.7757L108.824 41.7673Z" fill="#7E543A"/>
<path d="M106.088 45.4276L109.022 40.4078L111.036 40.3234C110.355 41.2691 109.703 42.2331 109.081 43.2154L109.111 43.2407C109.356 42.9325 109.63 42.5948 109.93 42.2359C110.227 41.872 110.547 41.5279 110.888 41.2057C111.206 40.914 111.553 40.6551 111.923 40.4331C112.24 40.2362 112.605 40.1282 112.978 40.1207C113.302 40.1099 113.62 40.208 113.882 40.3994C114.005 40.5006 114.102 40.6303 114.165 40.7774C114.227 40.9244 114.253 41.0845 114.24 41.2437C114.233 41.5864 114.132 41.9206 113.949 42.2106C113.755 42.5466 113.54 42.8708 113.307 43.1816C113.071 43.4982 112.856 43.8022 112.661 44.0893C112.492 44.3086 112.391 44.5729 112.37 44.8492C112.368 44.9376 112.397 45.024 112.45 45.0941C112.479 45.1315 112.516 45.1612 112.559 45.1804C112.602 45.1996 112.648 45.2077 112.695 45.2039C112.956 45.1824 113.204 45.0806 113.405 44.9126C113.697 44.6947 113.972 44.4548 114.228 44.1948C114.443 43.9795 114.65 43.7431 114.878 43.494C115.106 43.2449 115.3 43 115.49 42.7721L116.001 42.1303C116.149 41.9404 116.271 41.7841 116.351 41.6702L116.482 41.7419C116.161 42.1641 115.819 42.5863 115.452 43.0592C115.085 43.532 114.722 43.9289 114.354 44.3257C114.019 44.6809 113.64 44.9929 113.227 45.2545C112.895 45.4672 112.511 45.5827 112.117 45.5881C111.939 45.6011 111.761 45.5742 111.595 45.5091C111.429 45.4441 111.28 45.3427 111.158 45.2123C110.938 44.9381 110.824 44.5931 110.838 44.2413C110.838 43.898 110.935 43.5617 111.116 43.2703C111.297 42.9649 111.503 42.6754 111.733 42.4048L112.349 41.6617C112.512 41.4862 112.609 41.2593 112.623 41.02C112.632 40.9676 112.628 40.9141 112.612 40.8636C112.596 40.8131 112.568 40.767 112.531 40.7289C112.495 40.6908 112.449 40.6618 112.399 40.6442C112.349 40.6266 112.296 40.6208 112.243 40.6273C112.013 40.6485 111.795 40.7398 111.619 40.8891C111.334 41.0948 111.069 41.3251 110.825 41.5773C110.542 41.8601 110.255 42.1768 109.959 42.523C109.664 42.8692 109.389 43.2238 109.115 43.5742C108.841 43.9246 108.625 44.254 108.435 44.5664C108.28 44.8141 108.139 45.0706 108.013 45.3348L106.084 45.4192L106.088 45.4276Z" fill="#7E543A"/>
<path d="M122.211 41.7504C121.868 42.2621 121.496 42.754 121.097 43.2238C120.711 43.6828 120.27 44.0925 119.784 44.444C119.292 44.8048 118.748 45.0895 118.171 45.2884C117.511 45.5004 116.821 45.6031 116.128 45.5923C115.858 45.593 115.589 45.5646 115.325 45.5079C115.095 45.4595 114.876 45.3678 114.679 45.2377C114.502 45.1152 114.357 44.9515 114.257 44.7606C114.151 44.5485 114.099 44.3136 114.105 44.0767C114.094 43.9199 114.118 43.7627 114.176 43.6166C114.234 43.4705 114.324 43.3392 114.439 43.2323C114.645 43.0314 114.923 42.9206 115.211 42.9241C115.396 42.9192 115.577 42.9789 115.722 43.093C115.795 43.156 115.851 43.235 115.888 43.3236C115.924 43.4122 115.94 43.5081 115.933 43.6038C115.939 43.6908 115.925 43.778 115.893 43.8591C115.861 43.9401 115.811 44.013 115.748 44.0724C115.632 44.1766 115.481 44.2325 115.325 44.2287C115.229 44.2329 115.133 44.2171 115.043 44.1822C114.993 44.2634 114.968 44.3573 114.971 44.4524C114.962 44.58 114.979 44.7079 115.021 44.8289C115.062 44.9499 115.127 45.0616 115.211 45.1575C115.306 45.2453 115.418 45.3127 115.54 45.3555C115.662 45.3984 115.792 45.4157 115.921 45.4066C116.089 45.4197 116.258 45.3947 116.415 45.3333C116.572 45.2719 116.714 45.1757 116.828 45.0519C117.026 44.8158 117.131 44.5156 117.124 44.2075C117.122 43.9997 117.059 43.7971 116.942 43.6249C116.816 43.4392 116.685 43.245 116.52 43.055C116.356 42.865 116.237 42.6665 116.098 42.4681C115.982 42.2956 115.919 42.0932 115.916 41.8855C115.916 41.6586 115.968 41.4346 116.068 41.2311C116.182 41.0135 116.34 40.8222 116.533 40.6696C116.754 40.4948 117.006 40.363 117.276 40.2812C117.601 40.18 117.94 40.1316 118.281 40.1376C118.744 40.119 119.205 40.2147 119.623 40.4163C119.778 40.4853 119.909 40.598 120.001 40.7405C120.092 40.883 120.14 41.0491 120.138 41.2184C120.142 41.3385 120.119 41.4578 120.072 41.5684C120.026 41.6791 119.956 41.7786 119.868 41.8602C119.784 41.9419 119.684 42.0059 119.574 42.0487C119.465 42.0915 119.348 42.1121 119.231 42.1093C119.016 42.1102 118.806 42.0517 118.623 41.9404C118.688 41.8375 118.741 41.7269 118.779 41.6111C118.818 41.4883 118.836 41.3599 118.834 41.2311C118.836 41.0083 118.781 40.7886 118.673 40.5936C118.62 40.5011 118.542 40.4255 118.448 40.3755C118.354 40.3254 118.248 40.303 118.141 40.3107C118.045 40.3059 117.948 40.3236 117.86 40.3624C117.771 40.4013 117.693 40.4602 117.631 40.5345C117.501 40.7066 117.435 40.9186 117.445 41.134C117.446 41.3707 117.521 41.6011 117.66 41.7926C117.799 41.9953 117.956 42.1937 118.12 42.3963C118.286 42.5935 118.44 42.8008 118.58 43.017C118.721 43.236 118.794 43.4914 118.792 43.7516C118.802 44.0404 118.725 44.3256 118.572 44.5706C118.398 44.8168 118.168 45.018 117.901 45.1575L117.926 45.187C118.349 45.0666 118.752 44.8876 119.125 44.6551C119.526 44.4094 119.904 44.1267 120.252 43.8107C120.612 43.4894 120.947 43.1408 121.253 42.7679C121.55 42.4111 121.822 42.0344 122.068 41.6406L122.169 41.7546L122.211 41.7504Z" fill="#7E543A"/>
<path d="M125.23 40.6443L125.327 40.4205H126.505L127.708 38.3602L129.68 38.2927L128.413 40.4036H130.355L130.241 40.6274H128.287C128.152 40.8554 127.97 41.1509 127.742 41.5224C127.514 41.894 127.278 42.2739 127.054 42.6708C126.83 43.0677 126.632 43.4476 126.459 43.8192C126.31 44.1001 126.222 44.4095 126.201 44.7269C126.194 44.7924 126.203 44.8586 126.227 44.9202C126.25 44.9818 126.288 45.037 126.336 45.0815C126.444 45.1635 126.577 45.204 126.712 45.1955C126.985 45.1871 127.252 45.1163 127.493 44.9886C127.792 44.8402 128.075 44.662 128.337 44.4567C128.624 44.2317 128.894 43.9877 129.148 43.7263C129.405 43.4561 129.65 43.1901 129.883 42.9241C130.115 42.6581 130.326 42.409 130.516 42.1811L130.942 41.628L131.056 41.6829C130.735 42.0629 130.393 42.4808 130.035 42.9495C129.679 43.3991 129.291 43.8224 128.874 44.216C128.469 44.599 128.016 44.9283 127.527 45.1955C127.042 45.4542 126.501 45.5878 125.952 45.5839C125.775 45.5975 125.597 45.5737 125.43 45.5141C125.262 45.4544 125.109 45.3603 124.981 45.2377C124.763 44.9902 124.648 44.6683 124.66 44.3385C124.661 44.1485 124.688 43.9597 124.74 43.7769C124.811 43.5413 124.903 43.3124 125.015 43.093C125.15 42.8228 125.323 42.4977 125.542 42.1093C125.762 41.7209 126.036 41.2354 126.387 40.6485L125.23 40.6443Z" fill="#7E543A"/>
<path d="M128.261 45.4277C129.238 43.7812 130.198 42.1388 131.141 40.5007C132.084 38.8626 133.043 37.2147 134.02 35.5569L136.047 35.4176L133.674 39.3862C132.872 40.7203 132.074 41.9911 131.267 43.1859L131.297 43.2154C131.517 42.9199 131.766 42.599 132.057 42.2444C132.344 41.8881 132.659 41.555 132.998 41.248C133.325 40.9434 133.686 40.6784 134.075 40.4585C134.419 40.2536 134.81 40.1429 135.211 40.1377C135.502 40.1321 135.787 40.2194 136.026 40.3867C136.149 40.4871 136.246 40.6171 136.307 40.7646C136.367 40.9122 136.39 41.0726 136.372 41.2311C136.365 41.5926 136.265 41.9461 136.08 42.2571C135.889 42.6031 135.675 42.936 135.439 43.2534C135.202 43.5658 134.987 43.8656 134.793 44.1485C134.626 44.3613 134.525 44.618 134.501 44.8873C134.496 44.9775 134.524 45.0664 134.582 45.1364C134.611 45.1681 134.647 45.193 134.687 45.209C134.727 45.2251 134.771 45.232 134.814 45.2293C135.047 45.2129 135.271 45.1309 135.46 44.9929C135.722 44.8201 135.968 44.6237 136.194 44.406C136.459 44.1592 136.707 43.8955 136.937 43.6165C137.187 43.3294 137.415 43.055 137.621 42.7975L138.162 42.1051C138.31 41.8982 138.419 41.7589 138.483 41.6829L138.571 41.7546C138.411 41.9531 138.234 42.1768 138.039 42.447C137.845 42.7172 137.617 42.9917 137.402 43.2914C137.187 43.5912 136.925 43.8614 136.671 44.1358C136.425 44.3988 136.162 44.6469 135.886 44.8789C135.63 45.0936 135.346 45.2726 135.042 45.4108C134.77 45.5389 134.473 45.6066 134.172 45.6092C134.005 45.6119 133.84 45.5742 133.691 45.4995C133.552 45.4359 133.431 45.3404 133.336 45.2208C133.236 45.0962 133.163 44.9526 133.121 44.7986C133.074 44.644 133.05 44.4832 133.049 44.3216C133.049 43.9687 133.142 43.622 133.319 43.3168C133.497 43.0086 133.694 42.7124 133.91 42.4302C134.121 42.1515 134.333 41.894 134.489 41.6533C134.644 41.4671 134.737 41.2367 134.755 40.9947C134.755 40.7541 134.645 40.6401 134.425 40.6401C134.202 40.6582 133.989 40.7386 133.809 40.8723C133.536 41.0553 133.28 41.2631 133.045 41.4929C132.755 41.7752 132.48 42.0725 132.222 42.3837C131.943 42.713 131.677 43.055 131.419 43.4012C131.162 43.7474 130.93 44.0936 130.719 44.4313C130.529 44.7268 130.355 45.0327 130.199 45.3475L128.257 45.4319L128.261 45.4277Z" fill="#7E543A"/>
<path d="M140.074 44.5833C140.417 44.2942 140.726 43.967 140.995 43.6081C141.301 43.2049 141.562 42.7688 141.772 42.3077C141.979 41.8916 142.092 41.4344 142.101 40.9694C142.107 40.8785 142.092 40.7874 142.059 40.7027C142.025 40.618 141.973 40.5418 141.907 40.4796C141.789 40.3781 141.64 40.3212 141.484 40.3192C141.269 40.3234 141.06 40.3926 140.885 40.5176C140.662 40.6635 140.461 40.8413 140.29 41.0454C140.085 41.2815 139.9 41.5343 139.737 41.8011C139.564 42.0724 139.409 42.3545 139.272 42.6455C139.145 42.918 139.041 43.2004 138.96 43.4898C138.893 43.735 138.856 43.9873 138.85 44.2413C138.85 44.4049 138.881 44.5669 138.943 44.7184C138.97 44.7927 139.022 44.8558 139.089 44.8978C139.156 44.9398 139.236 44.9584 139.314 44.9506C139.605 44.909 139.875 44.7742 140.083 44.5664L140.074 44.5833ZM144.934 40.3192C144.832 40.4712 144.697 40.6654 144.512 40.8976L143.988 41.6533C143.802 41.9235 143.612 42.2106 143.422 42.4977C143.232 42.7848 143.063 43.0845 142.907 43.3674C142.764 43.6241 142.635 43.8892 142.523 44.1611C142.434 44.358 142.384 44.5702 142.375 44.786C142.375 45.0604 142.485 45.2082 142.7 45.2082C142.957 45.1846 143.202 45.0846 143.401 44.9211C143.718 44.6952 144.015 44.4423 144.288 44.1653C144.643 43.8115 144.98 43.4395 145.297 43.0508C145.643 42.6286 145.998 42.1768 146.357 41.704L146.445 41.7631C146.065 42.2444 145.694 42.713 145.335 43.1732C145.003 43.6005 144.646 44.0079 144.267 44.3933C143.946 44.7149 143.589 44.9982 143.203 45.2377C142.879 45.4476 142.503 45.5618 142.118 45.567C141.863 45.5829 141.609 45.5289 141.383 45.4108C141.223 45.3178 141.093 45.1817 141.007 45.0182C140.928 44.8676 140.881 44.7023 140.868 44.5326C140.868 44.3638 140.843 44.2118 140.843 44.0809L140.801 44.0513C140.653 44.2287 140.488 44.4102 140.315 44.5875C140.149 44.7726 139.965 44.9408 139.766 45.0899C139.565 45.235 139.347 45.3541 139.116 45.4446C138.886 45.5343 138.641 45.5802 138.394 45.5797C138.201 45.5924 138.009 45.561 137.83 45.4878C137.652 45.4147 137.492 45.3017 137.364 45.1575C137.1 44.7797 136.977 44.3207 137.018 43.8614C137.028 43.4214 137.134 42.9889 137.33 42.5948C137.546 42.1409 137.847 41.7325 138.217 41.3916C138.617 41.0131 139.08 40.7074 139.585 40.4881C140.134 40.2473 140.728 40.1264 141.328 40.1334C141.635 40.111 141.939 40.2112 142.173 40.4121C142.368 40.5959 142.499 40.8369 142.548 41.1002H142.578L142.945 40.3614L144.959 40.3065L144.934 40.3192Z" fill="#7E543A"/>
<path d="M145.444 40.6443L145.546 40.4205H146.719L147.927 38.3602L149.894 38.2927L148.628 40.4036H150.57L150.456 40.6274H148.501C148.37 40.8554 148.189 41.1509 147.956 41.5224C147.724 41.894 147.496 42.2739 147.268 42.6708C147.04 43.0677 146.846 43.4476 146.673 43.8192C146.526 44.1009 146.438 44.4099 146.415 44.7269C146.409 44.7924 146.417 44.8586 146.441 44.9202C146.464 44.9818 146.502 45.037 146.551 45.0815C146.658 45.1635 146.791 45.204 146.926 45.1955C147.199 45.1871 147.466 45.1163 147.707 44.9886C148.005 44.839 148.288 44.6609 148.552 44.4567C148.836 44.2305 149.105 43.9866 149.358 43.7263C149.616 43.4561 149.861 43.1901 150.093 42.9241C150.325 42.6581 150.515 42.409 150.726 42.1811L151.165 41.628L151.279 41.6829C150.958 42.0629 150.616 42.4808 150.257 42.9495C149.903 43.4001 149.515 43.8235 149.096 44.216C148.691 44.599 148.239 44.9283 147.75 45.1955C147.265 45.4546 146.724 45.5881 146.175 45.5839C145.998 45.5975 145.82 45.5737 145.653 45.5141C145.485 45.4544 145.332 45.3603 145.204 45.2377C144.985 44.9906 144.872 44.668 144.887 44.3385C144.887 44.1487 144.913 43.9598 144.963 43.7769C145.034 43.5406 145.127 43.3116 145.242 43.093C145.373 42.8228 145.55 42.4977 145.765 42.1093C145.981 41.7209 146.259 41.2354 146.61 40.6485L145.444 40.6443Z" fill="#7E543A"/>
<path d="M156.472 40.4205C156.776 39.859 157.118 39.2933 157.507 38.7107C157.887 38.1379 158.33 37.6096 158.828 37.1359C159.315 36.6709 159.87 36.2835 160.475 35.9875C161.097 35.6861 161.78 35.5329 162.471 35.54C162.953 35.522 163.43 35.6344 163.852 35.8651C164.034 35.9776 164.181 36.1379 164.278 36.3285C164.375 36.5192 164.417 36.7327 164.401 36.9459C164.404 37.1372 164.354 37.3255 164.257 37.4905C164.166 37.6461 164.04 37.7789 163.89 37.8789C163.58 38.0908 163.214 38.2055 162.839 38.2083C162.726 38.206 162.613 38.1961 162.501 38.1787C162.385 38.1626 162.273 38.1239 162.172 38.0647C162.374 37.8605 162.545 37.6288 162.683 37.3765C162.802 37.1577 162.866 36.9126 162.868 36.663C162.87 36.4462 162.816 36.2325 162.712 36.0424C162.655 35.9495 162.573 35.8744 162.475 35.8259C162.377 35.7774 162.268 35.7573 162.159 35.768C161.846 35.7905 161.55 35.9151 161.315 36.1226C160.955 36.4104 160.631 36.7391 160.348 37.1021C159.976 37.5719 159.634 38.0639 159.322 38.5756C158.976 39.1413 158.617 39.7577 158.258 40.4205H161.661L161.534 40.6443H158.157C157.823 41.2902 157.481 41.9658 157.127 42.6877C156.772 43.4096 156.392 44.1105 155.991 44.7986C155.594 45.4846 155.155 46.1458 154.678 46.7787C154.217 47.3958 153.681 47.9532 153.082 48.4379C152.493 48.9157 151.833 49.3001 151.127 49.5778C150.362 49.8695 149.548 50.0128 148.729 50C148.422 49.9964 148.117 49.9539 147.821 49.8734C147.523 49.7873 147.238 49.6579 146.977 49.4892C146.722 49.3202 146.505 49.1003 146.34 48.8432C146.173 48.5732 146.088 48.261 146.095 47.944C146.082 47.6121 146.166 47.2838 146.335 46.9983C146.492 46.7531 146.705 46.549 146.956 46.403C147.22 46.2563 147.505 46.151 147.8 46.0905C148.104 46.0322 148.412 46.0025 148.721 46.0019C148.863 45.9989 149.004 46.0131 149.143 46.0441L149.476 46.1159V46.2299C149.245 46.2161 149.013 46.2502 148.795 46.3301C148.577 46.41 148.378 46.534 148.21 46.6943C148.053 46.8557 147.93 47.0475 147.849 47.2581C147.769 47.4686 147.732 47.6934 147.741 47.9186C147.74 48.1573 147.774 48.3949 147.843 48.6237C147.904 48.8398 148.004 49.043 148.138 49.2232C148.273 49.3973 148.442 49.5411 148.636 49.6454C148.852 49.7543 149.091 49.8079 149.333 49.8016C149.84 49.8001 150.335 49.644 150.751 49.3541C151.23 49.0284 151.657 48.6327 152.018 48.1804C152.448 47.6498 152.833 47.085 153.171 46.4916C153.542 45.8499 153.905 45.1955 154.26 44.52C154.615 43.8445 154.961 43.1732 155.298 42.5061C155.636 41.8391 155.987 41.2396 156.337 40.6696H155.159L155.273 40.4459L156.472 40.4205Z" fill="#7E543A"/>
<path d="M162.839 40.3065C162.584 40.3277 162.346 40.4401 162.167 40.6232C161.914 40.8507 161.69 41.1088 161.5 41.3915C161.301 41.6819 161.123 41.9868 160.968 42.3035C160.84 42.5504 160.745 42.813 160.686 43.0845C161.059 43.0078 161.418 42.877 161.754 42.6961C162.049 42.5358 162.321 42.337 162.564 42.1051C162.772 41.9064 162.942 41.6718 163.067 41.4127C163.174 41.1913 163.232 40.9493 163.236 40.7034C163.243 40.6495 163.238 40.5945 163.221 40.5428C163.204 40.4911 163.175 40.4441 163.137 40.4056C163.098 40.367 163.051 40.338 162.999 40.3208C162.948 40.3036 162.893 40.2987 162.839 40.3065ZM166.356 41.7673C166.136 42.0755 165.895 42.3921 165.625 42.7088C165.355 43.0254 165.051 43.3505 164.713 43.6798C164.148 44.237 163.508 44.7142 162.813 45.0984C162.177 45.424 161.472 45.5892 160.757 45.5797C160.221 45.6175 159.69 45.455 159.267 45.1237C159.09 44.9555 158.952 44.7501 158.864 44.5223C158.776 44.2946 158.739 44.0501 158.756 43.8065C158.755 43.3038 158.901 42.8118 159.178 42.3921C159.463 41.944 159.825 41.5496 160.246 41.2269C160.676 40.8978 161.149 40.6306 161.652 40.4332C162.109 40.2439 162.598 40.1422 163.092 40.1334C163.477 40.1206 163.859 40.1957 164.211 40.353C164.344 40.4177 164.455 40.5203 164.53 40.648C164.606 40.7757 164.641 40.9228 164.633 41.0707C164.628 41.243 164.582 41.4117 164.498 41.5623C164.414 41.713 164.296 41.8412 164.152 41.9362C163.802 42.1983 163.416 42.4101 163.008 42.5652C162.578 42.7376 162.136 42.8787 161.686 42.9874L160.635 43.2365C160.615 43.3298 160.601 43.4243 160.593 43.5194C160.593 43.6123 160.593 43.7094 160.593 43.8023C160.592 43.9713 160.61 44.1398 160.648 44.3047C160.683 44.4564 160.747 44.5999 160.838 44.7268C160.932 44.8503 161.054 44.9513 161.192 45.0224C161.363 45.1037 161.552 45.1428 161.741 45.1364C162.255 45.1146 162.752 44.9445 163.172 44.6466C163.726 44.2894 164.243 43.8794 164.717 43.4223C165.025 43.1251 165.316 42.8123 165.591 42.485C165.84 42.1853 166.052 41.9066 166.22 41.6617L166.347 41.7504L166.356 41.7673Z" fill="#7E543A"/>
<path d="M168.897 40.3065C168.641 40.3274 168.401 40.4398 168.222 40.6231C167.97 40.8509 167.747 41.109 167.559 41.3915C167.356 41.68 167.178 41.985 167.027 42.3035C166.898 42.5504 166.801 42.8129 166.74 43.0845C167.114 43.0078 167.475 42.877 167.812 42.6961C168.107 42.5358 168.38 42.337 168.623 42.105C168.83 41.9063 169.001 41.6718 169.125 41.4126C169.23 41.1906 169.288 40.949 169.294 40.7034C169.302 40.6494 169.297 40.5944 169.28 40.5427C169.263 40.491 169.234 40.4441 169.195 40.4055C169.156 40.367 169.109 40.338 169.058 40.3208C169.006 40.3036 168.951 40.2987 168.897 40.3065ZM172.414 41.7673C172.194 42.0755 171.954 42.3921 171.684 42.7088C171.413 43.0254 171.109 43.3505 170.767 43.6798C170.203 44.2388 169.564 44.7163 168.868 45.0984C168.232 45.424 167.526 45.5892 166.812 45.5797C166.277 45.6176 165.747 45.4551 165.325 45.1237C165.148 44.9554 165.011 44.7501 164.922 44.5223C164.834 44.2946 164.797 44.0501 164.815 43.8065C164.815 43.304 164.962 42.8125 165.237 42.3921C165.523 41.9439 165.886 41.5494 166.309 41.2269C166.737 40.8986 167.209 40.6315 167.711 40.4332C168.168 40.2443 168.656 40.1427 169.15 40.1334C169.537 40.1209 169.921 40.1959 170.274 40.3529C170.407 40.4176 170.518 40.5203 170.593 40.648C170.668 40.7757 170.704 40.9227 170.696 41.0707C170.691 41.243 170.645 41.4116 170.561 41.5623C170.477 41.713 170.358 41.8412 170.214 41.9362C169.863 42.1966 169.478 42.4082 169.07 42.5652C168.639 42.737 168.196 42.878 167.745 42.9874C167.322 43.0972 166.951 43.1774 166.698 43.2365C166.698 43.3294 166.664 43.4265 166.651 43.5194C166.638 43.6123 166.651 43.7094 166.651 43.8022C166.65 43.9715 166.67 44.1403 166.71 44.3046C166.745 44.4564 166.81 44.5998 166.9 44.7268C166.993 44.8522 167.115 44.9535 167.255 45.0224C167.425 45.1032 167.611 45.1422 167.799 45.1364C168.314 45.1151 168.811 44.9449 169.231 44.6466C169.785 44.2884 170.304 43.8785 170.78 43.4223C171.087 43.1262 171.378 42.8133 171.65 42.485C171.899 42.1852 172.11 41.9066 172.283 41.6617L172.41 41.7504L172.414 41.7673Z" fill="#7E543A"/>
<path d="M177.472 35.4007C176.526 36.9656 175.717 38.2927 175.044 39.3819C174.377 40.4712 173.824 41.3789 173.398 42.1135C172.971 42.8481 172.651 43.4265 172.444 43.8572C172.274 44.1766 172.171 44.527 172.14 44.8873C172.138 44.931 172.145 44.9747 172.161 45.0154C172.177 45.0561 172.201 45.093 172.233 45.1237C172.287 45.1794 172.361 45.2113 172.439 45.2124C172.751 45.1793 173.045 45.0527 173.284 44.8493C173.649 44.5773 173.992 44.2766 174.31 43.9501C174.664 43.5912 175.006 43.2028 175.34 42.7933C175.632 42.4318 175.905 42.0555 176.159 41.666L176.273 41.7209L175.948 42.2064C175.796 42.4288 175.606 42.6863 175.378 42.979C175.154 43.2661 174.901 43.5616 174.622 43.8614C174.348 44.1611 174.054 44.4431 173.744 44.7058C173.45 44.9482 173.132 45.159 172.794 45.3348C172.495 45.4946 172.162 45.5801 171.823 45.5839C171.661 45.5959 171.499 45.5756 171.345 45.5241C171.192 45.4726 171.05 45.3911 170.928 45.2842C170.83 45.1859 170.753 45.0684 170.702 44.9391C170.651 44.8099 170.628 44.6715 170.632 44.5327C170.633 44.3096 170.666 44.0879 170.73 43.8741C170.815 43.5938 170.921 43.32 171.046 43.055C171.198 42.7384 171.388 42.3626 171.629 41.932C171.869 41.5013 172.169 40.9905 172.524 40.3952C172.879 39.7999 173.292 39.1033 173.79 38.3096C174.289 37.5159 174.816 36.5955 175.429 35.5442L177.514 35.4049L177.472 35.4007Z" fill="#7E543A"/>
<path d="M185.481 35.4007C184.538 36.9656 183.73 38.2927 183.057 39.3819C182.386 40.4712 181.837 41.3789 181.407 42.1135C180.976 42.8481 180.659 43.4265 180.457 43.8572C180.285 44.1758 180.182 44.5266 180.153 44.8873C180.15 44.9311 180.156 44.9751 180.172 45.016C180.189 45.0569 180.214 45.0937 180.246 45.1237C180.272 45.1516 180.303 45.1738 180.338 45.189C180.373 45.2043 180.41 45.2122 180.448 45.2124C180.753 45.1767 181.04 45.0502 181.272 44.8493C181.638 44.5783 181.981 44.2776 182.297 43.9501C182.66 43.5822 183.004 43.1961 183.328 42.7933C183.657 42.3795 183.938 42.0038 184.172 41.666L184.286 41.7209L183.957 42.2064C183.809 42.4302 183.619 42.6877 183.391 42.979C183.163 43.2703 182.91 43.5616 182.631 43.8614C182.357 44.1621 182.064 44.4442 181.753 44.7058C181.459 44.9481 181.141 45.159 180.803 45.3348C180.504 45.4959 180.171 45.5814 179.832 45.5839C179.671 45.5961 179.509 45.5758 179.356 45.5243C179.203 45.4728 179.062 45.3912 178.941 45.2842C178.842 45.1867 178.763 45.0695 178.712 44.9401C178.66 44.8107 178.636 44.6719 178.641 44.5327C178.645 44.3098 178.677 44.0884 178.738 43.8741C178.824 43.5931 178.931 43.3193 179.059 43.055C179.207 42.7384 179.401 42.3626 179.642 41.932C179.883 41.5013 180.182 40.9905 180.533 40.3952C180.883 39.7999 181.301 39.1033 181.799 38.3096C182.297 37.5159 182.821 36.5955 183.433 35.5442L185.519 35.4049L185.481 35.4007Z" fill="#7E543A"/>
<path d="M186.144 37.4061C186.259 37.2895 186.401 37.2032 186.557 37.1548C186.713 37.1065 186.879 37.0975 187.04 37.1289C187.201 37.1602 187.351 37.2308 187.478 37.3343C187.605 37.4379 187.704 37.5712 187.766 37.7224C187.829 37.8736 187.854 38.0379 187.837 38.2008C187.821 38.3637 187.765 38.5201 187.674 38.6559C187.582 38.7918 187.459 38.903 187.314 38.9796C187.17 39.0562 187.008 39.0957 186.844 39.0948C186.582 39.0937 186.33 38.9888 186.144 38.803C185.958 38.6172 185.853 38.3655 185.852 38.1027C185.85 37.9715 185.875 37.8413 185.925 37.72C185.975 37.5988 186.05 37.4891 186.144 37.3976V37.4061ZM186.566 40.3234L185.675 41.7251C185.379 42.181 185.118 42.6032 184.894 42.9916C184.67 43.38 184.472 43.7305 184.345 44.0302C184.23 44.2565 184.161 44.5033 184.142 44.7564C184.138 44.8718 184.163 44.9866 184.214 45.0899C184.24 45.134 184.277 45.17 184.321 45.1939C184.366 45.2178 184.417 45.2286 184.468 45.225C184.688 45.2139 184.901 45.1424 185.084 45.0181C185.328 44.8637 185.558 44.6885 185.772 44.4946C186.021 44.2666 186.258 44.0256 186.481 43.7727C186.718 43.5025 186.937 43.2365 187.148 42.9747C187.36 42.713 187.541 42.4681 187.706 42.2359L188.128 41.6786L188.242 41.7208C188.014 42.0417 187.731 42.4343 187.398 42.8903C187.044 43.3635 186.659 43.8121 186.245 44.2329C185.884 44.616 185.481 44.956 185.042 45.2461C184.672 45.4758 184.244 45.5959 183.809 45.5923C183.646 45.6041 183.483 45.5803 183.331 45.5227C183.179 45.4651 183.041 45.3751 182.927 45.2588C182.717 44.9962 182.612 44.6654 182.631 44.33C182.677 43.761 182.864 43.2124 183.176 42.7341C183.539 42.1008 184.02 41.3113 184.56 40.374L186.587 40.3192L186.566 40.3234Z" fill="#7E543A"/>
<path d="M185.468 45.4277C186.442 43.7812 187.409 42.1403 188.369 40.505L191.273 35.54L193.312 35.4007C192.516 36.7376 191.724 38.0563 190.936 39.3566C190.147 40.657 189.347 41.9376 188.533 43.1986L188.559 43.2239L189.403 42.2106C189.695 41.8548 190.011 41.519 190.349 41.2058C190.665 40.9086 191.016 40.6519 191.396 40.4416C191.751 40.2412 192.153 40.1351 192.561 40.1334C192.719 40.1331 192.876 40.1501 193.03 40.1841C193.172 40.2133 193.307 40.2707 193.426 40.353C193.539 40.4332 193.633 40.5369 193.701 40.657C193.777 40.7966 193.815 40.9539 193.811 41.1129C193.815 41.2573 193.787 41.4007 193.727 41.5324C193.668 41.6641 193.58 41.7805 193.469 41.8729C193.231 42.0706 192.959 42.2236 192.666 42.3246C192.361 42.4345 192.046 42.5137 191.725 42.561C191.404 42.6075 191.147 42.637 190.957 42.6581V42.6877L191.379 42.8566C191.513 42.9112 191.642 42.9791 191.763 43.0592C191.874 43.142 191.97 43.2434 192.046 43.359C192.123 43.4861 192.163 43.6325 192.16 43.7812C192.156 43.8829 192.139 43.9837 192.109 44.0809C192.075 44.1823 192.037 44.2836 191.995 44.3849C191.954 44.4787 191.917 44.5745 191.885 44.672C191.854 44.7544 191.837 44.8415 191.835 44.9295C191.835 45.1069 191.915 45.1997 192.075 45.1997C192.274 45.1853 192.465 45.1183 192.628 45.0055C192.863 44.8596 193.085 44.6943 193.291 44.5116C193.543 44.2956 193.783 44.0659 194.009 43.8234C194.25 43.5659 194.478 43.3083 194.697 43.0423C194.917 42.7764 195.119 42.523 195.293 42.2824C195.466 42.0417 195.618 41.8391 195.715 41.666L195.841 41.7251C195.613 42.0544 195.331 42.4428 194.997 42.8819C194.646 43.328 194.267 43.751 193.861 44.1485C193.621 44.3957 193.366 44.6284 193.097 44.8451C192.894 45.0058 192.676 45.1471 192.447 45.2673C192.253 45.3625 192.049 45.4361 191.839 45.4868C191.642 45.5294 191.441 45.5507 191.239 45.5502C190.898 45.5661 190.559 45.4777 190.268 45.2968C190.144 45.2097 190.044 45.0921 189.979 44.9554C189.913 44.8186 189.883 44.6672 189.893 44.5158C189.888 44.3369 189.924 44.1593 189.998 43.9965C190.068 43.8516 190.145 43.7107 190.23 43.5743C190.318 43.4386 190.397 43.2976 190.467 43.1521C190.54 43.0098 190.576 42.8517 190.572 42.6919C190.447 42.7417 190.319 42.784 190.188 42.8186C190.059 42.8571 189.926 42.877 189.791 42.8777C189.732 42.8799 189.674 42.8652 189.623 42.8355C189.598 42.8182 189.578 42.7947 189.565 42.7672C189.553 42.7397 189.548 42.7093 189.551 42.6793C189.551 42.5273 189.665 42.4513 189.893 42.4513C190.026 42.4504 190.159 42.4617 190.29 42.485C190.386 42.5083 190.485 42.5211 190.585 42.523C190.735 42.5164 190.881 42.4698 191.007 42.3879C191.164 42.2957 191.307 42.1804 191.429 42.046C191.559 41.9114 191.665 41.7558 191.742 41.5858C191.818 41.4321 191.858 41.2633 191.86 41.0918C191.865 40.986 191.831 40.882 191.763 40.8005C191.728 40.7599 191.685 40.7277 191.636 40.7065C191.587 40.6853 191.533 40.6756 191.48 40.6781C191.253 40.6997 191.038 40.7895 190.864 40.9356C190.588 41.1346 190.331 41.3579 190.095 41.6027C189.809 41.8946 189.538 42.2018 189.285 42.523C189.01 42.865 188.753 43.2028 188.508 43.5448C188.263 43.8867 188.052 44.2076 187.866 44.5158C187.68 44.824 187.528 45.0731 187.444 45.2757L185.485 45.3602L185.468 45.4277Z" fill="#7E543A"/>
<path d="M198.425 40.3065C198.171 40.3277 197.932 40.4401 197.754 40.6231C197.501 40.8507 197.277 41.1088 197.087 41.3915C196.887 41.6819 196.709 41.9867 196.555 42.3035C196.427 42.5504 196.332 42.813 196.272 43.0845C196.646 43.0078 197.008 42.877 197.344 42.6961C197.638 42.5348 197.909 42.3361 198.151 42.105C198.36 41.9075 198.53 41.6727 198.653 41.4126C198.76 41.1913 198.818 40.9493 198.822 40.7034C198.83 40.6494 198.825 40.5944 198.808 40.5427C198.79 40.4911 198.761 40.4441 198.723 40.4055C198.684 40.367 198.637 40.338 198.586 40.3208C198.534 40.3036 198.479 40.2987 198.425 40.3065ZM201.942 41.7673C201.727 42.0755 201.482 42.3921 201.212 42.7088C200.941 43.0254 200.637 43.3505 200.3 43.6798C199.734 44.237 199.095 44.7142 198.4 45.0984C197.764 45.424 197.058 45.5892 196.344 45.5797C195.808 45.6175 195.277 45.455 194.853 45.1237C194.676 44.9554 194.539 44.7501 194.45 44.5223C194.362 44.2946 194.325 44.0501 194.343 43.8065C194.343 43.3041 194.49 42.8127 194.765 42.3921C195.05 41.9429 195.413 41.5483 195.837 41.2269C196.264 40.8969 196.736 40.6296 197.239 40.4332C197.696 40.2443 198.184 40.1427 198.678 40.1334C199.065 40.1213 199.448 40.1963 199.801 40.353C199.934 40.4181 200.045 40.5208 200.12 40.6484C200.195 40.776 200.231 40.9228 200.224 41.0707C200.219 41.243 200.173 41.4116 200.089 41.5623C200.005 41.713 199.886 41.8412 199.742 41.9362C199.393 42.1975 199.01 42.4091 198.602 42.5652C198.171 42.737 197.728 42.8781 197.277 42.9874C196.855 43.0972 196.483 43.1774 196.226 43.2365C196.226 43.3294 196.192 43.4265 196.183 43.5194C196.175 43.6123 196.183 43.7094 196.183 43.8022C196.183 43.9712 196.201 44.1398 196.238 44.3046C196.273 44.4564 196.338 44.5998 196.428 44.7268C196.524 44.8514 196.646 44.9525 196.787 45.0224C196.957 45.1041 197.144 45.1432 197.332 45.1364C197.846 45.1146 198.343 44.9445 198.763 44.6466C199.316 44.2894 199.834 43.8793 200.308 43.4223C200.616 43.1262 200.908 42.8133 201.182 42.485C201.431 42.1853 201.642 41.9066 201.811 41.6617L201.938 41.7504L201.942 41.7673Z" fill="#7E543A"/>
<path d="M211.754 41.7504C211.41 42.2621 211.038 42.754 210.639 43.2238C210.255 43.6827 209.815 44.0925 209.33 44.444C208.837 44.8057 208.292 45.0904 207.713 45.2884C207.053 45.5008 206.363 45.6035 205.67 45.5923C205.402 45.5932 205.134 45.5649 204.872 45.5079C204.641 45.461 204.422 45.3692 204.226 45.2377C204.048 45.1164 203.903 44.9524 203.804 44.7606C203.696 44.5489 203.643 44.314 203.648 44.0767C203.637 43.92 203.662 43.7631 203.72 43.6171C203.777 43.4711 203.867 43.3397 203.981 43.2323C204.188 43.0318 204.466 42.921 204.754 42.9241C204.939 42.9185 205.12 42.9783 205.265 43.093C205.338 43.1554 205.395 43.2342 205.432 43.323C205.468 43.4118 205.483 43.508 205.476 43.6038C205.482 43.6905 205.469 43.7776 205.438 43.8587C205.407 43.9398 205.357 44.0128 205.294 44.0724C205.178 44.1752 205.027 44.2308 204.872 44.2287C204.776 44.2326 204.679 44.2168 204.589 44.1822C204.543 44.2645 204.519 44.3579 204.522 44.4524C204.513 44.58 204.53 44.7079 204.572 44.8289C204.613 44.9499 204.678 45.0616 204.762 45.1575C204.856 45.2451 204.968 45.3125 205.089 45.3554C205.21 45.3982 205.339 45.4157 205.467 45.4066C205.636 45.4195 205.806 45.3943 205.964 45.3329C206.121 45.2715 206.263 45.1755 206.379 45.0519C206.574 44.8143 206.679 44.5151 206.675 44.2075C206.671 43.9994 206.606 43.7969 206.489 43.6249C206.367 43.4392 206.231 43.2449 206.088 43.055C205.944 42.865 205.805 42.6665 205.666 42.4681C205.549 42.2959 205.484 42.0936 205.48 41.8855C205.481 41.6582 205.534 41.4343 205.636 41.2311C205.748 41.0137 205.905 40.8224 206.096 40.6696C206.319 40.4939 206.572 40.3621 206.844 40.2812C207.169 40.1797 207.508 40.1312 207.848 40.1376C208.311 40.119 208.77 40.2147 209.187 40.4163C209.342 40.4842 209.475 40.5965 209.567 40.7392C209.659 40.8818 209.708 41.0485 209.706 41.2184C209.709 41.3385 209.687 41.4578 209.64 41.5684C209.594 41.6791 209.524 41.7786 209.436 41.8602C209.351 41.9417 209.251 42.0056 209.142 42.0484C209.033 42.0911 208.916 42.1118 208.798 42.1093C208.584 42.1108 208.373 42.0523 208.19 41.9404C208.255 41.8374 208.306 41.7268 208.342 41.6111C208.383 41.4885 208.403 41.3601 208.401 41.2311C208.404 41.0078 208.347 40.7879 208.237 40.5936C208.185 40.5011 208.108 40.4254 208.014 40.3753C207.921 40.3252 207.815 40.3028 207.709 40.3107C207.612 40.3065 207.515 40.3245 207.426 40.3633C207.337 40.402 207.257 40.4606 207.194 40.5345C207.066 40.7071 207.001 40.9191 207.012 41.134C207.013 41.3707 207.089 41.6011 207.228 41.7926C207.367 41.9953 207.519 42.1937 207.684 42.3963C207.853 42.5914 208.006 42.7988 208.144 43.017C208.288 43.2348 208.363 43.4907 208.359 43.7516C208.378 44.0425 208.309 44.3323 208.161 44.5833C207.986 44.8285 207.756 45.0295 207.49 45.1701L207.515 45.1997C207.937 45.0785 208.341 44.8995 208.714 44.6677C209.115 44.422 209.493 44.1393 209.841 43.8234C210.2 43.501 210.534 43.1524 210.842 42.7805C211.139 42.4237 211.411 42.0471 211.657 41.6533L211.754 41.7673V41.7504Z" fill="#7E543A"/>
<path d="M213.578 37.4061C213.693 37.2895 213.835 37.2032 213.991 37.1548C214.147 37.1065 214.313 37.0975 214.474 37.1289C214.635 37.1602 214.785 37.2308 214.912 37.3343C215.038 37.4379 215.138 37.5712 215.2 37.7224C215.263 37.8736 215.288 38.0379 215.271 38.2008C215.255 38.3637 215.199 38.5201 215.108 38.6559C215.016 38.7918 214.893 38.903 214.748 38.9796C214.603 39.0562 214.442 39.0957 214.278 39.0948C214.016 39.0937 213.764 38.9888 213.578 38.803C213.392 38.6172 213.287 38.3655 213.286 38.1027C213.284 37.9715 213.309 37.8413 213.359 37.72C213.409 37.5988 213.484 37.4891 213.578 37.3976V37.4061ZM214 40.3234C213.696 40.8047 213.4 41.2691 213.105 41.7251C212.809 42.181 212.552 42.6032 212.328 42.9916C212.104 43.38 211.906 43.7305 211.779 44.0302C211.664 44.2565 211.595 44.5033 211.576 44.7564C211.572 44.8718 211.596 44.9866 211.648 45.0899C211.673 45.134 211.711 45.17 211.755 45.1939C211.8 45.2178 211.851 45.2286 211.901 45.225C212.122 45.2133 212.335 45.1418 212.518 45.0181C212.762 44.8637 212.992 44.6885 213.206 44.4946C213.455 44.2666 213.692 44.0256 213.915 43.7727C214.152 43.5025 214.371 43.2365 214.582 42.9747C214.794 42.713 214.975 42.4681 215.14 42.2359C215.304 42.0037 215.439 41.8137 215.562 41.6786L215.676 41.7208C215.448 42.0417 215.165 42.4343 214.831 42.8903C214.481 43.3645 214.097 43.8132 213.683 44.2329C213.322 44.615 212.918 44.9549 212.48 45.2461C212.11 45.4758 211.683 45.5959 211.247 45.5923C211.085 45.6041 210.922 45.5803 210.769 45.5227C210.617 45.4651 210.479 45.3751 210.365 45.2588C210.155 44.9962 210.05 44.6654 210.069 44.33C210.115 43.761 210.302 43.2124 210.614 42.7341C210.977 42.1008 211.458 41.3113 211.999 40.374L214.025 40.3192L214 40.3234Z" fill="#7E543A"/>
<path d="M220.801 35.4007C219.856 36.9656 219.046 38.2927 218.374 39.3819C217.707 40.4712 217.154 41.3789 216.723 42.1135C216.292 42.8481 215.976 43.4265 215.773 43.8572C215.601 44.1758 215.498 44.5266 215.469 44.8873C215.466 44.9311 215.473 44.9751 215.489 45.016C215.505 45.0569 215.53 45.0937 215.562 45.1237C215.588 45.1512 215.62 45.1731 215.654 45.1884C215.689 45.2036 215.727 45.2118 215.765 45.2124C216.077 45.1809 216.371 45.0541 216.609 44.8493C216.975 44.5783 217.318 44.2776 217.635 43.9501C217.999 43.5833 218.343 43.1971 218.665 42.7933C218.958 42.4317 219.233 42.0555 219.488 41.666L219.602 41.7209L219.273 42.2064C219.125 42.4302 218.935 42.6877 218.707 42.979C218.479 43.2703 218.23 43.5616 217.952 43.8614C217.675 44.1611 217.381 44.4431 217.069 44.7058C216.776 44.9491 216.458 45.16 216.119 45.3348C215.821 45.4959 215.487 45.5814 215.148 45.5839C214.987 45.5961 214.825 45.5758 214.672 45.5243C214.519 45.4728 214.378 45.3912 214.257 45.2842C214.159 45.1861 214.081 45.0688 214.03 44.9395C213.978 44.8102 213.954 44.6718 213.958 44.5327C213.96 44.3094 213.994 44.0877 214.059 43.8741C214.144 43.5931 214.252 43.3193 214.38 43.055C214.523 42.7384 214.718 42.3626 214.958 41.932C215.199 41.5013 215.499 40.9905 215.853 40.3952C216.208 39.7999 216.622 39.1033 217.12 38.3096C217.618 37.5159 218.146 36.5955 218.758 35.5442L220.844 35.4049L220.801 35.4007Z" fill="#7E543A"/>
<path d="M216.845 45.4277C217.816 43.7812 218.782 42.1402 219.741 40.505C220.701 38.8697 221.668 37.2203 222.642 35.5569L224.685 35.4176C223.892 36.7461 223.099 38.0647 222.308 39.3735C221.518 40.6823 220.717 41.9629 219.906 43.2154L219.936 43.2408L220.78 42.2275C221.072 41.8716 221.388 41.5359 221.726 41.2227C222.042 40.9255 222.393 40.6688 222.773 40.4585C223.127 40.2581 223.527 40.152 223.934 40.1503C224.091 40.1497 224.249 40.1667 224.402 40.201C224.545 40.2302 224.68 40.2876 224.799 40.3699C224.913 40.4499 225.008 40.5536 225.078 40.6738C225.153 40.8138 225.189 40.9712 225.184 41.1298C225.188 41.2737 225.16 41.4168 225.101 41.5483C225.043 41.6799 224.956 41.7966 224.846 41.8897C224.608 42.0881 224.336 42.2412 224.044 42.3415C223.737 42.4514 223.42 42.5306 223.098 42.5779C222.777 42.6244 222.524 42.6539 222.334 42.675V42.7046L222.756 42.8735C222.889 42.929 223.016 42.9969 223.136 43.0761C223.25 43.1565 223.348 43.2583 223.423 43.3759C223.499 43.5034 223.537 43.6498 223.533 43.7981C223.533 43.8998 223.517 44.0009 223.486 44.0978C223.453 44.1991 223.415 44.3005 223.372 44.4018C223.33 44.4989 223.292 44.596 223.258 44.6889C223.227 44.7713 223.21 44.8583 223.208 44.9464C223.208 45.1237 223.288 45.2166 223.448 45.2166C223.647 45.2034 223.838 45.1363 224.001 45.0224C224.236 44.8755 224.459 44.7104 224.668 44.5284C224.92 44.3125 225.16 44.0827 225.386 43.8403C225.627 43.5827 225.855 43.3252 226.074 43.0592C226.294 42.7932 226.497 42.5399 226.67 42.2993C226.843 42.0586 226.995 41.856 227.092 41.6829L227.223 41.742C226.995 42.0713 226.712 42.4597 226.378 42.8988C226.027 43.3449 225.648 43.7679 225.243 44.1654C225 44.4117 224.743 44.6443 224.474 44.862C224.272 45.0236 224.054 45.165 223.824 45.2842C223.633 45.3788 223.432 45.4524 223.225 45.5037C223.026 45.5461 222.824 45.5673 222.621 45.567C222.278 45.5814 221.938 45.4932 221.646 45.3137C221.522 45.2264 221.423 45.1086 221.358 44.9718C221.292 44.835 221.264 44.6838 221.274 44.5327C221.269 44.3538 221.305 44.1762 221.38 44.0134C221.448 43.8677 221.525 43.7266 221.612 43.5912C221.698 43.4554 221.775 43.3144 221.844 43.169C221.918 43.0271 221.956 42.8689 221.954 42.7088C221.828 42.758 221.7 42.8002 221.57 42.8354C221.441 42.8736 221.307 42.8935 221.173 42.8946C221.114 42.8973 221.055 42.8826 221.004 42.8523C220.979 42.8351 220.959 42.8115 220.947 42.7841C220.934 42.7566 220.929 42.7262 220.932 42.6961C220.932 42.5441 221.046 42.4681 221.274 42.4681C221.406 42.4671 221.537 42.4785 221.667 42.5019C221.765 42.525 221.865 42.5377 221.966 42.5399C222.117 42.5346 222.263 42.4878 222.389 42.4048C222.546 42.3124 222.688 42.1971 222.811 42.0628C222.939 41.9272 223.045 41.7719 223.123 41.6027C223.2 41.4492 223.242 41.2804 223.246 41.1087C223.25 41.0023 223.214 40.8982 223.144 40.8174C223.11 40.7768 223.066 40.7446 223.017 40.7234C222.968 40.7022 222.915 40.6924 222.861 40.695C222.635 40.7158 222.419 40.8056 222.245 40.9525C221.969 41.1504 221.711 41.3738 221.477 41.6196C221.189 41.9114 220.917 42.2186 220.662 42.5399C220.387 42.8819 220.13 43.2196 219.889 43.5616C219.649 43.9036 219.433 44.2245 219.243 44.5327C219.053 44.8409 218.91 45.0899 218.821 45.2926L216.866 45.377L216.845 45.4277Z" fill="#7E543A"/>
<path d="M68.2639 12.2984C67.2 10.8081 62.9696 5.67001 59.9721 4.47521C59.7806 4.38433 59.5774 4.32039 59.3683 4.28522C59.2059 4.25078 59.0404 4.23241 58.8744 4.23035C58.2011 4.20746 57.5282 4.28428 56.8774 4.45832L56.7043 4.50477L56.565 4.54277C56.3294 4.60085 56.1014 4.68585 55.8853 4.79608C53.6814 5.74179 49.5904 8.63802 40.0996 17.884C40.0996 17.884 38.4404 19.2265 39.4747 16.8454C40.5091 14.4642 41.9614 10.3268 40.2009 7.53187C38.6557 5.07894 35.1346 0.949922 32.7366 0.396852C32.3858 0.30351 32.0215 0.272077 31.66 0.30397C30.681 0.391784 29.7151 0.590071 28.7806 0.895041C25.686 1.80697 19.1969 5.15494 2.10666 18.627C2.10666 18.627 0.987851 19.6107 0.840085 19.8218C0.692318 20.0329 0.215241 20.7042 0.607879 21.1897C1.03007 21.6119 1.61691 21.6119 2.17843 21.6119C2.39037 21.6187 2.60178 21.637 2.81171 21.6668C4.36537 21.8441 7.20249 22.5112 10.8333 24.9346C11.7664 25.6607 13.0076 26.1758 13.9407 25.5552C14.8737 24.9346 28.122 12.9275 29.3633 14.27C30.6045 15.6126 26.6739 20.7929 23.6679 25.0359C20.6619 29.2789 9.79897 42.4259 9.79897 42.4259C9.79897 42.4259 7.31649 44.8071 10.5251 44.8071C13.7338 44.8071 23.2415 45.4277 24.2674 45.0055C25.2933 44.5833 36.8994 29.6884 36.8994 29.6884C36.8994 29.6884 49.5017 13.793 51.1821 14.9878C51.6043 15.2917 51.4143 16.4781 50.4559 18.0951C50.1899 18.5468 38.3475 36.9332 38.3475 36.9332C38.3475 36.9332 37.1865 38.1998 39.6943 39.6226C41.9403 40.9103 45.4909 41.4887 49.3202 46.4578C50.5657 47.564 51.0723 49.4132 52.4191 47.9651C53.901 46.3734 60.3943 31.0352 64.5359 23.5793C68.6776 16.1235 69.5051 14.0547 68.2639 12.2984Z" fill="#231F20" stroke="#231F20" stroke-width="0.26"/>
<path d="M68.206 12.004C67.1463 10.501 62.916 5.37561 59.9269 4.19347C59.5793 4.04506 59.207 3.96344 58.8292 3.95283C58.1558 3.92561 57.4822 4.0025 56.8322 4.18081L56.6591 4.22303L56.5198 4.26525C56.2832 4.3243 56.0538 4.40926 55.8359 4.51857C53.6362 5.46427 49.5452 8.3605 40.0502 17.6065C40.0502 17.6065 38.3952 18.9533 39.4295 16.5721C40.4639 14.1909 41.9162 10.0493 40.1557 7.25435C38.6105 4.80143 35.0894 0.676633 32.6914 0.123564C32.3396 0.027959 31.9735 -0.0035044 31.6106 0.0306816C30.6331 0.116649 29.6685 0.313529 28.7355 0.617526C25.6366 1.52946 19.1518 4.87742 2.06149 18.3495C2.06149 18.3495 0.942685 19.3332 0.794918 19.5443C0.647152 19.7554 0.170076 20.4225 0.562712 20.9122C0.984903 21.3344 1.56753 21.3344 2.13326 21.3344C2.34519 21.3413 2.55659 21.3597 2.76655 21.3893C4.31598 21.5666 7.15732 22.2337 10.7882 24.6528C11.717 25.379 12.9624 25.8983 13.8913 25.2777C14.8201 24.657 28.0726 12.6457 29.3181 13.9925C30.5636 15.3393 26.6245 20.5154 23.6227 24.7584C20.621 29.0014 9.73269 42.1273 9.73269 42.1273C9.73269 42.1273 7.24599 44.5084 10.4546 44.5084C13.6633 44.5084 23.1879 45.1291 24.2223 44.7153C25.2566 44.3016 36.8415 29.3856 36.8415 29.3856C36.8415 29.3856 49.4481 13.4901 51.1284 14.6891C51.5506 14.9931 51.3564 16.1795 50.4023 17.7922C50.1321 18.2482 38.2896 36.6346 38.2896 36.6346C38.2896 36.6346 37.1328 37.9012 39.6364 39.3239C41.8825 40.6116 45.4331 41.19 49.2666 46.155C50.5331 47.2611 51.0144 49.1103 52.3655 47.6664C53.8473 46.0705 60.3406 30.7324 64.4823 23.2807C68.624 15.8291 69.4515 13.7645 68.206 12.004Z" fill="#E2A856"/>
</g>
<defs>
<clipPath id="clip0_183_1051">
<rect width="228.215" height="50" fill="white" transform="translate(0.392578)"/>
</clipPath>
</defs>
</svg>
