<svg width="122" height="35" viewBox="0 0 122 35" fill="none" xmlns="http://www.w3.org/2000/svg">
<g clip-path="url(#clip0_3460_251675)">
<path d="M65.808 19.9986C65.808 19.9986 66.6342 21.6932 69.1243 18.7479C69.6378 18.1421 70.2574 17.5 70.2574 17.5C70.2574 17.5 69.3738 17.701 68.5792 17.8294C64.7236 18.4548 65.808 19.9986 65.808 19.9986Z" fill="white"/>
<path d="M74.7038 15.0012C74.7038 15.0012 73.8776 13.3066 71.3904 16.2519C70.8769 16.8577 70.2429 17.4998 70.2429 17.4998C70.2429 17.4998 71.1236 17.2988 71.9211 17.1704C75.7996 16.5451 74.7038 15.0012 74.7038 15.0012Z" fill="white"/>
<path d="M65.808 15.0012C65.808 15.0012 64.715 16.5451 68.5791 17.1704C69.3738 17.2988 70.2573 17.4998 70.2573 17.4998C70.2573 17.4998 69.6377 16.8577 69.1242 16.2519C66.6342 13.3066 65.808 15.0012 65.808 15.0012Z" fill="white"/>
<path d="M74.7038 19.9986C74.7038 19.9986 75.7997 18.4548 71.9355 17.8294C71.138 17.701 70.2573 17.5 70.2573 17.5C70.2573 17.5 70.877 18.1421 71.4048 18.7479C73.8777 21.6932 74.7038 19.9986 74.7038 19.9986Z" fill="white"/>
<path d="M70.2575 12.5083C70.2575 12.5083 68.3354 12.3604 69.7124 15.9282C69.9993 16.6652 70.2575 17.5083 70.2575 17.5083C70.2575 17.5083 70.5185 16.6708 70.8025 15.9282C72.1824 12.352 70.2575 12.5083 70.2575 12.5083Z" fill="white"/>
<path d="M70.2575 22.5C70.2575 22.5 72.1767 22.648 70.8025 19.0801C70.5157 18.3431 70.2575 17.5 70.2575 17.5C70.2575 17.5 69.9964 18.3375 69.7124 19.0801C68.3354 22.648 70.2575 22.5 70.2575 22.5Z" fill="white"/>
<path d="M17.229 19.9736H16.4229V21.6486H14.9885V12.9077H17.2175C19.8166 12.9077 20.9928 14.3846 20.9928 16.4393C20.9928 18.494 19.8281 19.9736 17.229 19.9736ZM17.1028 14.2701H16.4028V18.6112H17.1028C18.6461 18.6112 19.5039 17.9943 19.5039 16.4393C19.5039 14.8843 18.6548 14.2701 17.1028 14.2701Z" fill="white"/>
<path d="M26.9426 20.6045H23.3395L22.9292 21.6318H21.5981L25.0005 12.6787H25.4222L28.7614 21.6318H27.3872L26.9426 20.6045ZM23.8673 19.2812H26.4492L25.1812 15.6966L23.8673 19.2812Z" fill="white"/>
<path d="M28.9592 14.2059V12.9077H34.2778V14.2059H32.307V21.6431H30.8727V14.2059H28.9592Z" fill="white"/>
<path d="M40.1385 19.6246L41.4582 21.6431H39.6767L38.6726 19.968C38.5263 19.968 38.3857 19.968 38.2251 19.968H37.419V21.6431H35.9846V12.9077H38.2165C40.8155 12.9077 41.9889 14.3846 41.9889 16.4393C41.9975 17.9049 41.4036 19.0607 40.1385 19.6246ZM38.1046 14.2701H37.4046V18.6112H38.2366C39.7685 18.6112 40.5086 17.9943 40.5086 16.4393C40.5086 14.8843 39.6509 14.2701 38.1046 14.2701Z" fill="white"/>
<path d="M43.845 21.6431V12.9077H45.2793V21.6431H43.845Z" fill="white"/>
<path d="M48.6214 17.2541C48.6142 17.6684 48.6918 18.08 48.8498 18.4648C49.0077 18.8497 49.2428 19.2 49.5413 19.4955C49.8399 19.791 50.1959 20.0256 50.5886 20.1858C50.9813 20.3459 51.4029 20.4284 51.8287 20.4283C52.932 20.409 53.9839 19.9712 54.7605 19.2083L55.6211 20.2887C55.1327 20.7742 54.5493 21.1594 53.9053 21.4217C53.2613 21.684 52.5698 21.818 51.8717 21.8158C49.4304 21.8158 47.1211 20.1212 47.1211 17.2318C47.1211 14.6103 49.2066 12.7231 51.8459 12.7231C53.3749 12.7231 54.4593 13.4295 55.317 14.2251L54.4564 15.2664C53.5585 14.521 52.7352 14.1218 51.6565 14.1218C50.0615 14.1274 48.6214 15.3613 48.6214 17.2541Z" fill="white"/>
<path d="M62.4286 12.9074L60.8967 14.5657L63.2462 21.6428H61.6626L59.8295 15.6433L58.8255 16.76V21.654H57.3911V12.9074H58.8255V15.0208L60.7791 12.9019L62.4286 12.9074Z" fill="white"/>
<path d="M78.2725 13.1338H79.7068V20.5431H83.1923V21.8663H78.2839L78.2725 13.1338Z" fill="white"/>
<path d="M93.4883 17.5336C93.4997 18.1318 93.3866 18.7261 93.1557 19.2807C92.9248 19.8352 92.5809 20.3385 92.1448 20.7603C91.7087 21.1821 91.1894 21.5136 90.6182 21.7349C90.0469 21.9561 89.4355 22.0626 88.8209 22.0478C88.2039 22.0497 87.5927 21.932 87.023 21.7015C86.4533 21.471 85.9366 21.1324 85.5028 20.7054C85.0691 20.2783 84.7272 19.7715 84.497 19.2145C84.2668 18.6574 84.1529 18.0613 84.1621 17.461C84.1515 16.8639 84.2649 16.2709 84.4956 15.7176C84.7263 15.1643 85.0695 14.662 85.5046 14.2409C85.9397 13.8199 86.4577 13.4887 87.0276 13.2672C87.5975 13.0458 88.2074 12.9387 88.8209 12.9523C89.4381 12.9493 90.0497 13.066 90.62 13.2957C91.1903 13.5253 91.7079 13.8633 92.1424 14.2898C92.577 14.7163 92.9198 15.2229 93.1509 15.7798C93.382 16.3368 93.4967 16.933 93.4883 17.5336ZM85.6595 17.4694C85.6595 19.2672 86.9935 20.6296 88.8151 20.6296C90.8232 20.6296 91.9965 19.4208 91.9965 17.5336C91.9965 15.8585 90.7945 14.3622 88.8151 14.3622C86.8357 14.3622 85.6653 15.5989 85.6653 17.4749L85.6595 17.4694Z" fill="white"/>
<path d="M96.8247 17.5892C95.8206 17.0001 95.2153 16.1933 95.2153 15.1743C95.2153 13.6724 96.403 12.9409 97.7083 12.9409C98.3865 12.9412 99.0522 13.1186 99.636 13.4546L99.1484 14.5992C98.7273 14.3702 98.2563 14.242 97.7742 14.2251C96.8505 14.2251 96.5493 14.6243 96.5493 15.0989C96.5493 15.5735 96.9567 16.0258 97.7628 16.5395L98.7123 17.1425C99.6619 17.7315 100.376 18.4518 100.376 19.6215C100.376 21.0732 99.2287 22.0364 97.2866 22.0364C96.3516 22.0357 95.4312 21.8103 94.6072 21.3803L95.135 20.1715C95.8275 20.5101 96.5919 20.686 97.3669 20.6852C98.5144 20.6852 98.9619 20.3139 98.9619 19.5936C98.9619 19.1079 98.4484 18.5663 97.671 18.0917L96.8247 17.5892Z" fill="white"/>
<path d="M102.089 21.8663V13.1338H107V14.4627H103.514V15.6436H106.788V16.9752H103.514V20.557H107V21.8803L102.089 21.8663Z" fill="white"/>
</g>
<defs>
<clipPath id="clip0_3460_251675">
<rect width="92" height="10" fill="white" transform="translate(15 12.5)"/>
</clipPath>
</defs>
</svg>
