<svg width="19" height="19" viewBox="0 0 19 19" fill="none" xmlns="http://www.w3.org/2000/svg">
<path d="M13.75 1H5.25C2.90279 1 1 2.90279 1 5.25V13.75C1 16.0972 2.90279 18 5.25 18H13.75C16.0972 18 18 16.0972 18 13.75V5.25C18 2.90279 16.0972 1 13.75 1Z" stroke="#E2A856" stroke-linecap="round" stroke-linejoin="round"/>
<path d="M12.9004 8.96427C13.0053 9.67168 12.8845 10.3942 12.5551 11.0289C12.2258 11.6637 11.7046 12.1785 11.0658 12.5C10.427 12.8215 9.70312 12.9334 8.99705 12.8198C8.29099 12.7062 7.63873 12.3728 7.13305 11.8672C6.62736 11.3615 6.29401 10.7092 6.18039 10.0031C6.06678 9.29709 6.17869 8.57318 6.50021 7.93439C6.82173 7.29559 7.33649 6.77445 7.97127 6.44507C8.60605 6.1157 9.32853 5.99487 10.0359 6.09977C10.7575 6.20677 11.4256 6.54301 11.9414 7.05883C12.4572 7.57465 12.7934 8.24268 12.9004 8.96427Z" stroke="#E2A856" stroke-linecap="round" stroke-linejoin="round"/>
<path d="M14.1748 4.8252H14.1798" stroke="#E2A856" stroke-linecap="round" stroke-linejoin="round"/>
</svg>
