<svg width="290" height="64" viewBox="0 0 290 64" fill="none" xmlns="http://www.w3.org/2000/svg">
<g clip-path="url(#clip0_288_1657)">
<path d="M94.3901 39.6789V20.8802L107.223 34.3086V22.0713H109.879V40.7519L97.0458 27.3503V39.6789H94.3901Z" fill="white"/>
<path d="M123.06 30.8268C123.044 31.6879 123.198 32.5439 123.512 33.3456C123.827 34.1473 124.297 34.879 124.895 35.4989C125.493 36.1188 126.207 36.6147 126.997 36.9582C127.787 37.3017 128.637 37.4861 129.498 37.5007C130.367 37.5212 131.231 37.3615 132.035 37.0319C132.839 36.7023 133.566 36.2098 134.171 35.5855C135.392 34.3219 136.077 32.6349 136.082 30.8778C136.087 29.1207 135.412 27.4298 134.198 26.1593C132.968 24.9331 131.302 24.2445 129.565 24.2445C127.828 24.2445 126.163 24.9331 124.933 26.1593C124.314 26.7661 123.827 27.4935 123.501 28.2964C123.175 29.0993 123.018 29.9606 123.039 30.8268H123.06ZM120.378 30.7946C120.366 29.6006 120.602 28.4172 121.071 27.3192C121.54 26.2211 122.232 25.2325 123.103 24.4157C123.953 23.5507 124.969 22.867 126.09 22.4059C127.211 21.9448 128.415 21.716 129.627 21.7333C132.052 21.7488 134.374 22.7203 136.087 24.4368C137.801 26.1534 138.768 28.4765 138.779 30.9019C138.799 32.1047 138.568 33.2985 138.101 34.407C137.633 35.5155 136.94 36.5143 136.065 37.3398C134.38 38.9888 132.132 39.9369 129.775 39.9927C127.418 40.0485 125.127 39.2077 123.366 37.6402C122.389 36.7943 121.613 35.7404 121.096 34.5559C120.579 33.3714 120.334 32.0863 120.378 30.7946Z" fill="white"/>
<path d="M151.779 30.1615H152.621C155.124 30.1615 156.376 29.1994 156.376 27.2752C156.376 25.4869 155.153 24.5927 152.707 24.5927H151.762V30.183L151.779 30.1615ZM155.083 32.1787L160.529 39.6896H157.283L152.256 32.4845H151.779V39.6896H149.096V22.0766H152.208C154.531 22.0766 156.21 22.5165 157.245 23.3856C157.803 23.8565 158.247 24.4478 158.544 25.115C158.84 25.7822 158.981 26.508 158.957 27.2377C158.984 28.4028 158.605 29.541 157.884 30.4566C157.176 31.3484 156.174 31.9589 155.056 32.1787H155.083Z" fill="white"/>
<path d="M174.832 24.5713V39.6788H172.176V24.5713H168.131V22.0712H178.866V24.5713H174.832Z" fill="white"/>
<path d="M190.894 28.9598H198.485V22.0712H201.141V39.6788H198.485V31.4598H190.894V39.6788H188.238V22.0712H190.894V28.9598Z" fill="white"/>
<path d="M225.39 23.0154V26.1593C224.086 24.9646 222.395 24.2807 220.626 24.2333C219.77 24.2173 218.92 24.3825 218.133 24.7182C217.345 25.0538 216.637 25.5522 216.055 26.1807C215.445 26.8074 214.965 27.5497 214.644 28.364C214.324 29.1783 214.169 30.0484 214.188 30.9233C214.169 31.7885 214.325 32.6488 214.645 33.4526C214.966 34.2564 215.446 34.9872 216.055 35.6015C216.647 36.2173 217.359 36.704 218.147 37.0308C218.936 37.3577 219.784 37.5177 220.637 37.5007C221.457 37.5245 222.271 37.3689 223.025 37.0447C223.421 36.8762 223.8 36.6696 224.156 36.4277C224.586 36.1406 224.997 35.8289 225.39 35.4942V38.7131C223.926 39.571 222.259 40.0229 220.562 40.0222C219.363 40.0368 218.173 39.8065 217.066 39.3452C215.959 38.884 214.958 38.2015 214.124 37.3397C213.261 36.5136 212.577 35.5184 212.116 34.4163C211.654 33.3141 211.425 32.1288 211.442 30.934C211.428 28.7301 212.22 26.5971 213.668 24.9361C214.525 23.897 215.608 23.0671 216.835 22.5093C218.061 21.9515 219.398 21.6806 220.744 21.7171C222.382 21.7205 223.988 22.1693 225.39 23.0154Z" fill="white"/>
<path d="M237.408 30.8267C237.378 32.1296 237.739 33.4115 238.445 34.5072C239.151 35.6028 240.168 36.462 241.367 36.9741C242.565 37.4861 243.889 37.6275 245.169 37.38C246.448 37.1325 247.624 36.5074 248.545 35.5854C249.76 34.3171 250.438 32.6287 250.438 30.8724C250.438 29.1161 249.76 27.4276 248.545 26.1593C247.315 24.9327 245.648 24.244 243.91 24.244C242.172 24.244 240.506 24.9327 239.275 26.1593C238.658 26.7671 238.172 27.4948 237.847 28.2976C237.523 29.1003 237.366 29.961 237.386 30.8267H237.408ZM234.725 30.7946C234.712 29.5998 234.947 28.4153 235.417 27.3169C235.888 26.2185 236.582 25.2303 237.456 24.4157C238.304 23.551 239.318 22.8674 240.437 22.4063C241.557 21.9452 242.758 21.7162 243.969 21.7332C246.395 21.7474 248.718 22.7182 250.433 24.4349C252.148 26.1516 253.116 28.4755 253.127 30.9019C253.147 32.1047 252.916 33.2985 252.448 34.4069C251.981 35.5154 251.287 36.5143 250.412 37.3398C248.727 38.9888 246.479 39.9369 244.122 39.9927C241.765 40.0484 239.475 39.2077 237.714 37.6402C236.736 36.7942 235.961 35.7404 235.444 34.5559C234.927 33.3714 234.681 32.0862 234.725 30.7946Z" fill="white"/>
<path d="M267.698 24.5713V39.6788H265.042V24.5713H260.997V22.0712H271.732V24.5713H267.698Z" fill="white"/>
<path d="M285.966 24.5713V39.6788H283.305V24.5713H279.259V22.0712H289.995V24.5713H285.966Z" fill="white"/>
<path d="M102.207 46.5888C102.068 46.735 101.948 46.8971 101.847 47.0717C101.705 47.3248 101.636 47.6129 101.649 47.9032C101.642 48.1007 101.674 48.2977 101.745 48.4821C101.816 48.6666 101.924 48.8347 102.062 48.9762C102.196 49.1119 102.357 49.2186 102.534 49.2896C102.711 49.3607 102.901 49.3946 103.092 49.3893C103.473 49.3943 103.847 49.2839 104.165 49.0728C104.492 48.861 104.775 48.5899 105.002 48.2734C105.236 47.9463 105.417 47.5841 105.538 47.2004C105.656 46.8546 105.719 46.4927 105.726 46.1275C105.744 45.952 105.719 45.775 105.655 45.6109C105.59 45.4467 105.488 45.3002 105.356 45.1832C105.062 44.985 104.712 44.8871 104.358 44.9043C103.685 44.9135 103.021 45.0519 102.4 45.312C101.711 45.5935 101.063 45.967 100.474 46.4225C99.8348 46.9066 99.2485 47.4569 98.725 48.0642C97.6391 49.3235 96.8295 50.7966 96.3484 52.3883C96.1176 53.1521 96.0001 53.9456 95.9997 54.7435C95.9973 55.1154 96.0478 55.4857 96.1499 55.8433C96.2438 56.1717 96.3925 56.4819 96.5898 56.7607C96.7711 57.0143 97.0009 57.2294 97.2658 57.3938C97.5254 57.5479 97.8223 57.6277 98.1242 57.6244C98.5966 57.6226 99.0618 57.5086 99.4815 57.2918C99.9204 57.0674 100.319 56.7719 100.662 56.4173C101.013 56.0556 101.296 55.6341 101.499 55.1727C101.709 54.7152 101.817 54.2171 101.815 53.7134C101.816 53.4556 101.789 53.1984 101.735 52.9462C101.687 52.7192 101.602 52.5016 101.483 52.3025C101.375 52.1202 101.226 51.9658 101.048 51.8518C100.858 51.7308 100.635 51.6709 100.41 51.6801C100.192 51.6728 99.9754 51.7116 99.7738 51.7939C99.5723 51.8762 99.3904 52.0001 99.2401 52.1576C98.9374 52.4778 98.7021 52.8554 98.548 53.2681C98.3902 53.6616 98.2786 54.0721 98.2154 54.4913C98.1643 54.7713 98.1338 55.0546 98.1242 55.339H97.9042C97.9071 54.8464 97.972 54.3561 98.0973 53.8797C98.2169 53.3841 98.4162 52.9112 98.6875 52.4795C98.9557 52.0601 99.3128 51.7048 99.7336 51.4387C100.191 51.1585 100.721 51.0169 101.257 51.031C101.565 51.0274 101.871 51.082 102.159 51.1919C102.427 51.2947 102.672 51.4517 102.877 51.6533C103.084 51.8539 103.25 52.0925 103.366 52.3561C103.488 52.637 103.55 52.9404 103.548 53.2467C103.54 53.8552 103.367 54.4502 103.049 54.9688C102.71 55.5525 102.264 56.0675 101.735 56.4871C101.167 56.9416 100.532 57.3037 99.8517 57.5601C99.1513 57.8362 98.4048 57.9764 97.652 57.9732C96.2214 57.9732 95.1645 57.6155 94.4814 56.9002C93.7775 56.0915 93.4141 55.0417 93.4674 53.9709C93.4758 53.1963 93.6477 52.4321 93.9717 51.7284C94.3244 50.9571 94.7772 50.2355 95.3183 49.5825C95.8944 48.8794 96.5397 48.236 97.2443 47.6618C97.9556 47.0767 98.7188 46.5577 99.5244 46.1114C100.278 45.687 101.075 45.3435 101.901 45.0867C102.617 44.8524 103.364 44.7276 104.117 44.7165C104.476 44.7169 104.835 44.7438 105.19 44.797C105.525 44.8418 105.85 44.9453 106.15 45.1028C106.452 45.263 106.701 45.5075 106.867 45.8065C107.033 46.1056 107.108 46.4463 107.084 46.7873C107.079 47.1623 106.983 47.5304 106.805 47.8603C106.614 48.2198 106.353 48.5373 106.037 48.7938C105.701 49.0721 105.32 49.2916 104.911 49.443C104.477 49.6054 104.017 49.6873 103.553 49.6844C103.284 49.6853 103.016 49.6529 102.754 49.5878C102.508 49.5255 102.275 49.4182 102.067 49.2713C101.871 49.1322 101.711 48.9483 101.601 48.7348C101.478 48.4866 101.419 48.212 101.429 47.9354C101.431 47.6813 101.482 47.43 101.579 47.1951C101.691 46.9318 101.853 46.693 102.057 46.4923L102.201 46.6049L102.207 46.5888Z" fill="#E2A856"/>
<path d="M109.171 51.5138C108.853 51.7324 108.566 51.9922 108.317 52.2864C108.028 52.6209 107.767 52.9799 107.54 53.3593C107.304 53.7512 107.094 54.158 106.912 54.5772C106.739 54.9605 106.598 55.357 106.488 55.7628C106.394 56.0911 106.341 56.43 106.332 56.7714C106.32 57.0102 106.388 57.2463 106.526 57.442C106.587 57.5254 106.668 57.5921 106.762 57.6361C106.856 57.6801 106.959 57.7001 107.062 57.6942C107.377 57.6847 107.682 57.5799 107.937 57.3938C108.255 57.174 108.543 56.9144 108.795 56.6212C109.081 56.2852 109.34 55.9263 109.568 55.5482C109.802 55.1565 110.013 54.7517 110.201 54.3358C110.373 53.9467 110.514 53.5449 110.624 53.134C110.716 52.8089 110.766 52.4737 110.775 52.1361C110.787 51.8998 110.721 51.6659 110.587 51.4709C110.525 51.3876 110.444 51.3209 110.351 51.2768C110.257 51.2328 110.154 51.2128 110.05 51.2187C109.736 51.2264 109.431 51.3293 109.176 51.5138H109.171ZM116.118 53.075C116.07 53.1179 115.989 53.1984 115.882 53.3164C115.759 53.4436 115.622 53.5569 115.474 53.6544C115.308 53.7767 115.128 53.8793 114.938 53.9602C114.728 54.0535 114.502 54.1011 114.273 54.0997C113.978 54.1042 113.688 54.0262 113.436 53.8744C113.166 53.7178 112.926 53.5143 112.727 53.2735C112.726 53.8939 112.575 54.5048 112.288 55.0547C111.993 55.6194 111.594 56.1236 111.113 56.5407C110.62 56.9701 110.058 57.3113 109.449 57.5494C108.83 57.7946 108.169 57.9202 107.502 57.9195C107.114 57.9203 106.727 57.8771 106.349 57.7908C105.995 57.7166 105.658 57.5764 105.356 57.3777C105.07 57.1825 104.833 56.9235 104.664 56.6212C104.48 56.2652 104.39 55.8683 104.401 55.4678C104.394 54.8164 104.563 54.1751 104.889 53.6115C105.211 53.0631 105.637 52.5836 106.145 52.2005C106.663 51.8028 107.248 51.4995 107.872 51.3046C108.486 51.1081 109.127 51.005 109.771 50.9988C110.208 50.9848 110.642 51.0596 111.048 51.2187C111.362 51.3481 111.653 51.5295 111.907 51.7552C112.136 51.9571 112.337 52.1901 112.502 52.4473C112.653 52.6863 112.816 52.9173 112.99 53.1394C113.141 53.3444 113.322 53.5253 113.527 53.6759C113.747 53.8281 114.01 53.9052 114.278 53.8958C114.579 53.8891 114.873 53.804 115.131 53.6491C115.456 53.4653 115.747 53.2255 115.989 52.9409L116.134 53.0857L116.118 53.075Z" fill="#E2A856"/>
<path d="M114.782 51.648L114.911 51.3636H116.402L117.937 48.7456L120.437 48.6597L118.827 51.3422H121.311L121.172 51.6265H118.682C118.516 51.9162 118.285 52.2918 117.99 52.7639C117.695 53.236 117.406 53.7188 117.116 54.2231C116.826 54.7274 116.579 55.2103 116.359 55.6824C116.173 56.0404 116.061 56.433 116.032 56.8358C116.024 56.9191 116.035 57.0033 116.065 57.0815C116.094 57.1598 116.142 57.23 116.204 57.2865C116.341 57.3898 116.51 57.4411 116.681 57.4314C117.028 57.4207 117.367 57.3308 117.674 57.1685C118.053 56.9796 118.413 56.7532 118.747 56.4925C119.109 56.2065 119.451 55.8964 119.772 55.5644C120.099 55.221 120.415 54.883 120.71 54.545L121.51 53.6008L122.089 52.8873L122.229 52.957C121.821 53.4398 121.386 53.971 120.936 54.5665C120.482 55.138 119.987 55.6758 119.455 56.176C118.941 56.6639 118.366 57.0823 117.744 57.4206C117.128 57.7498 116.44 57.9195 115.742 57.9142C115.517 57.9315 115.291 57.9012 115.079 57.8255C114.866 57.7497 114.672 57.63 114.509 57.4743C114.231 57.1603 114.086 56.7503 114.106 56.3315C114.106 56.0904 114.139 55.8504 114.203 55.618C114.293 55.3177 114.411 55.0267 114.557 54.7489C114.723 54.4055 114.948 53.9924 115.222 53.4989C115.496 53.0053 115.855 52.3883 116.295 51.6426L114.782 51.648Z" fill="#E2A856"/>
<path d="M120.775 51.648L120.904 51.3636H122.384L123.913 48.7456L126.419 48.6597L124.809 51.3422H127.272L127.132 51.6265H124.643C124.477 51.9162 124.246 52.2918 123.951 52.7639C123.656 53.236 123.366 53.7188 123.076 54.2231C122.787 54.7274 122.54 55.2103 122.32 55.6824C122.134 56.0406 122.025 56.4333 121.998 56.8358C121.989 56.9187 121.999 57.0026 122.028 57.0808C122.057 57.159 122.103 57.2295 122.164 57.2865C122.303 57.3906 122.474 57.442 122.647 57.4313C122.992 57.4206 123.33 57.3307 123.634 57.1685C124.014 56.9796 124.373 56.7532 124.707 56.4925C125.07 56.2079 125.413 55.8977 125.732 55.5644C126.065 55.221 126.376 54.883 126.671 54.545C126.966 54.207 127.207 53.8905 127.47 53.6008L128.05 52.8873L128.194 52.957C127.781 53.4398 127.352 53.971 126.896 54.5665C126.444 55.1379 125.951 55.6758 125.421 56.1759C124.904 56.6628 124.327 57.0811 123.704 57.4206C123.09 57.7492 122.404 57.9189 121.708 57.9142C121.491 57.9415 121.271 57.9198 121.063 57.8508C120.856 57.7818 120.666 57.6672 120.509 57.5154C120.352 57.3636 120.23 57.1785 120.154 56.9737C120.077 56.7688 120.047 56.5494 120.067 56.3315C120.067 56.0904 120.099 55.8504 120.163 55.618C120.258 55.3194 120.377 55.0288 120.517 54.7489C120.684 54.4055 120.909 53.9924 121.183 53.4989C121.456 53.0053 121.816 52.3883 122.256 51.6426L120.775 51.648Z" fill="#E2A856"/>
<path d="M130.845 51.5138C130.527 51.7336 130.238 51.9932 129.986 52.2864C129.7 52.6224 129.442 52.9812 129.214 53.3593C128.979 53.7523 128.767 54.159 128.581 54.5772C128.411 54.9615 128.269 55.3578 128.157 55.7628C128.064 56.0912 128.013 56.4302 128.007 56.7714C127.996 57.0093 128.062 57.2443 128.194 57.442C128.257 57.5243 128.338 57.5902 128.432 57.6342C128.525 57.6781 128.628 57.6987 128.731 57.6942C129.046 57.6847 129.351 57.5799 129.605 57.3938C129.923 57.174 130.212 56.9144 130.464 56.6212C130.75 56.2852 131.008 55.9263 131.236 55.5482C131.47 55.1565 131.682 54.7517 131.869 54.3358C132.042 53.9475 132.182 53.5455 132.288 53.134C132.381 52.8091 132.433 52.4739 132.443 52.1361C132.456 51.8998 132.39 51.6659 132.256 51.4709C132.194 51.3876 132.113 51.3209 132.019 51.2768C131.926 51.2328 131.822 51.2128 131.719 51.2187C131.405 51.2264 131.1 51.3293 130.845 51.5138ZM137.787 53.075C137.744 53.1179 137.663 53.1984 137.556 53.3164C137.433 53.4436 137.296 53.5569 137.148 53.6544C136.982 53.7767 136.802 53.8793 136.612 53.9602C136.403 54.0535 136.176 54.1011 135.947 54.0997C135.651 54.1035 135.359 54.0256 135.104 53.8744C134.847 53.7133 134.619 53.5102 134.428 53.2735H134.396C134.395 53.8947 134.242 54.5061 133.951 55.0547C133.66 55.6203 133.263 56.1248 132.781 56.5407C132.288 56.9689 131.726 57.31 131.118 57.5494C130.498 57.7946 129.838 57.9202 129.171 57.9195C128.783 57.9206 128.396 57.8774 128.017 57.7908C127.664 57.7166 127.327 57.5764 127.025 57.3777C126.736 57.1851 126.499 56.9256 126.333 56.6212C126.146 56.2661 126.056 55.8686 126.07 55.4678C126.06 54.816 126.229 54.174 126.558 53.6115C126.88 53.0648 127.304 52.5856 127.808 52.2005C128.329 51.8027 128.915 51.4995 129.541 51.3046C130.155 51.1081 130.795 51.005 131.44 50.9988C131.876 50.9848 132.311 51.0596 132.717 51.2187C133.031 51.3481 133.321 51.5295 133.575 51.7552C133.804 51.9585 134.004 52.1913 134.171 52.4473C134.332 52.7013 134.493 52.932 134.654 53.1394C134.806 53.3427 134.987 53.5234 135.19 53.6759C135.41 53.8281 135.674 53.9052 135.941 53.8958C136.242 53.8891 136.536 53.804 136.794 53.6491C137.12 53.4653 137.41 53.2255 137.653 52.9409L137.792 53.0857L137.787 53.075Z" fill="#E2A856"/>
<path d="M134.311 57.7263L138.039 51.3475L140.598 51.2402C139.733 52.4419 138.905 53.6669 138.114 54.9151L138.152 54.9473C138.463 54.5557 138.812 54.1265 139.193 53.6705C139.57 53.2081 139.976 52.7708 140.41 52.3614C140.814 51.9907 141.255 51.6618 141.725 51.3797C142.128 51.1294 142.591 50.9922 143.066 50.9827C143.478 50.9689 143.882 51.0936 144.214 51.3367C144.371 51.4654 144.495 51.6302 144.574 51.8171C144.654 52.004 144.687 52.2073 144.67 52.4097C144.66 52.8452 144.532 53.2698 144.3 53.6383C144.053 54.0653 143.78 54.4773 143.485 54.8722C143.184 55.2746 142.91 55.6608 142.664 56.0257C142.448 56.3043 142.32 56.6401 142.294 56.9914C142.291 57.1037 142.327 57.2134 142.395 57.3025C142.431 57.3501 142.479 57.3878 142.533 57.4122C142.588 57.4366 142.647 57.4468 142.707 57.442C143.038 57.4147 143.353 57.2854 143.608 57.0718C143.979 56.795 144.329 56.4901 144.654 56.1598C144.928 55.8862 145.191 55.5858 145.48 55.2692C145.77 54.9527 146.017 54.6415 146.258 54.3518L146.907 53.5364C147.095 53.2949 147.251 53.0964 147.353 52.9516L147.519 53.0428C147.111 53.5793 146.677 54.1158 146.21 54.7166C145.743 55.3175 145.282 55.8218 144.815 56.3261C144.388 56.7775 143.907 57.174 143.383 57.5064C142.961 57.7766 142.472 57.9234 141.972 57.9302C141.746 57.9468 141.519 57.9125 141.308 57.8299C141.098 57.7473 140.908 57.6184 140.754 57.4527C140.473 57.1042 140.328 56.6659 140.346 56.2188C140.347 55.7826 140.47 55.3552 140.7 54.9849C140.93 54.5969 141.192 54.229 141.483 53.8851L142.267 52.9408C142.474 52.7179 142.598 52.4295 142.615 52.1254C142.626 52.0589 142.621 51.9908 142.6 51.9267C142.58 51.8625 142.545 51.8039 142.498 51.7555C142.452 51.7071 142.394 51.6703 142.331 51.6479C142.267 51.6255 142.199 51.6181 142.133 51.6265C141.84 51.6533 141.563 51.7694 141.339 51.9591C140.977 52.2204 140.64 52.5131 140.33 52.8336C139.971 53.193 139.606 53.5954 139.23 54.0353C138.855 54.4752 138.506 54.9259 138.157 55.3711C137.808 55.8164 137.535 56.2349 137.293 56.6319C137.096 56.9466 136.917 57.2727 136.757 57.6083L134.305 57.7156L134.311 57.7263Z" fill="#E2A856"/>
<path d="M154.799 53.0535C154.362 53.7037 153.889 54.3288 153.383 54.9259C152.892 55.509 152.332 56.0298 151.714 56.4763C151.089 56.9349 150.398 57.2966 149.665 57.5493C148.826 57.8188 147.949 57.9492 147.068 57.9356C146.725 57.9364 146.384 57.9004 146.049 57.8283C145.756 57.7668 145.477 57.6503 145.228 57.4849C145.003 57.3293 144.818 57.1213 144.691 56.8787C144.557 56.6092 144.491 56.3107 144.498 56.0096C144.484 55.8104 144.515 55.6107 144.588 55.425C144.662 55.2393 144.776 55.0724 144.922 54.9366C145.185 54.6813 145.538 54.5405 145.904 54.545C146.139 54.5387 146.368 54.6146 146.553 54.7596C146.645 54.8397 146.717 54.94 146.763 55.0526C146.81 55.1653 146.83 55.2871 146.821 55.4087C146.829 55.5193 146.811 55.6301 146.77 55.7331C146.73 55.8361 146.666 55.9287 146.585 56.0042C146.438 56.1366 146.246 56.2076 146.049 56.2027C145.926 56.2082 145.804 56.1881 145.689 56.1437C145.626 56.2469 145.594 56.3662 145.598 56.4871C145.588 56.6492 145.609 56.8118 145.662 56.9655C145.714 57.1193 145.796 57.2611 145.904 57.383C146.025 57.4946 146.167 57.5802 146.322 57.6347C146.477 57.6891 146.641 57.7112 146.805 57.6995C147.019 57.7163 147.234 57.6844 147.434 57.6064C147.633 57.5283 147.813 57.4061 147.959 57.2489C148.21 56.9488 148.344 56.5673 148.334 56.1759C148.332 55.9118 148.251 55.6544 148.104 55.4355C147.943 55.1995 147.776 54.9527 147.567 54.7113C147.358 54.4699 147.208 54.2177 147.031 53.9655C146.884 53.7463 146.803 53.4891 146.8 53.2252C146.799 52.9368 146.865 52.6522 146.993 52.3936C147.138 52.1171 147.339 51.8741 147.583 51.6801C147.864 51.458 148.185 51.2906 148.527 51.1865C148.941 51.058 149.372 50.9964 149.804 51.0041C150.393 50.9804 150.979 51.102 151.51 51.3582C151.707 51.4459 151.873 51.5891 151.99 51.7702C152.106 51.9513 152.167 52.1624 152.165 52.3775C152.169 52.5301 152.14 52.6817 152.081 52.8223C152.022 52.9629 151.933 53.0893 151.821 53.193C151.714 53.2968 151.587 53.3782 151.448 53.4326C151.309 53.4869 151.161 53.5131 151.011 53.5095C150.739 53.5107 150.472 53.4364 150.239 53.2949C150.322 53.1642 150.389 53.0237 150.437 52.8765C150.487 52.7204 150.51 52.5573 150.507 52.3936C150.51 52.1105 150.44 51.8314 150.303 51.5835C150.236 51.466 150.137 51.3699 150.017 51.3063C149.897 51.2427 149.762 51.2142 149.627 51.2241C149.504 51.218 149.382 51.2405 149.269 51.2898C149.156 51.3391 149.057 51.414 148.978 51.5084C148.813 51.7271 148.729 51.9965 148.742 52.2702C148.743 52.571 148.839 52.8638 149.016 53.1072C149.193 53.3647 149.391 53.6168 149.6 53.8743C149.811 54.1248 150.007 54.3882 150.185 54.663C150.364 54.9413 150.457 55.2658 150.453 55.5965C150.466 55.9635 150.369 56.3259 150.174 56.6373C149.953 56.9501 149.661 57.2058 149.321 57.383L149.354 57.4205C149.891 57.2676 150.403 57.04 150.877 56.7446C151.387 56.4324 151.867 56.0731 152.31 55.6716C152.767 55.2633 153.192 54.8203 153.581 54.3465C153.958 53.893 154.304 53.4145 154.617 52.914L154.745 53.0589L154.799 53.0535Z" fill="#E2A856"/>
<path d="M158.635 51.648L158.758 51.3636H160.255L161.784 48.7456L164.29 48.6597L162.68 51.3422H165.148L165.003 51.6265H162.519C162.347 51.9162 162.117 52.2918 161.827 52.7639C161.537 53.236 161.237 53.7188 160.953 54.2231C160.668 54.7274 160.416 55.2103 160.196 55.6824C160.007 56.0394 159.895 56.4325 159.869 56.8358C159.86 56.9191 159.871 57.0033 159.901 57.0815C159.931 57.1598 159.979 57.23 160.041 57.2865C160.177 57.3907 160.347 57.4421 160.518 57.4314C160.865 57.4207 161.204 57.3308 161.511 57.1685C161.89 56.9798 162.25 56.7534 162.583 56.4925C162.947 56.2066 163.291 55.8965 163.614 55.5644C163.941 55.221 164.252 54.883 164.547 54.545C164.842 54.207 165.11 53.8905 165.352 53.6008L165.894 52.898L166.038 52.9677C165.631 53.4506 165.196 53.9817 164.74 54.5772C164.288 55.1486 163.795 55.6865 163.265 56.1867C162.75 56.6734 162.175 57.0917 161.553 57.4314C160.938 57.7601 160.25 57.9298 159.552 57.9249C159.327 57.9422 159.101 57.912 158.889 57.8362C158.676 57.7604 158.482 57.6407 158.318 57.485C158.041 57.1704 157.895 56.7614 157.911 56.3423C157.912 56.1009 157.947 55.8609 158.013 55.6287C158.103 55.3293 158.22 55.0385 158.361 54.7596C158.533 54.4163 158.753 54.0032 159.032 53.5096C159.311 53.016 159.66 52.3991 160.105 51.6533L158.635 51.648Z" fill="#E2A856"/>
<path d="M162.487 57.7264C163.728 55.6341 164.948 53.5471 166.146 51.4656C167.344 49.384 168.564 47.2899 169.805 45.1833L172.38 45.0062L169.365 50.0492C168.345 51.7445 167.331 53.3594 166.307 54.8777L166.344 54.9152C166.623 54.5397 166.94 54.1319 167.31 53.6813C167.675 53.2286 168.075 52.8052 168.506 52.4152C168.921 52.028 169.38 51.6913 169.874 51.4119C170.311 51.1515 170.809 51.0108 171.318 51.0042C171.688 50.9971 172.05 51.108 172.353 51.3207C172.511 51.4483 172.633 51.6134 172.71 51.8009C172.787 51.9884 172.816 52.1923 172.793 52.3937C172.785 52.853 172.657 53.3022 172.423 53.6974C172.179 54.1371 171.907 54.5601 171.607 54.9635C171.307 55.3605 171.033 55.7414 170.786 56.1009C170.575 56.3713 170.446 56.6975 170.416 57.0397C170.409 57.1543 170.446 57.2673 170.518 57.3562C170.556 57.3966 170.601 57.4281 170.652 57.4485C170.703 57.4689 170.758 57.4777 170.813 57.4743C171.11 57.4535 171.394 57.3493 171.634 57.1738C171.967 56.9543 172.28 56.7047 172.568 56.4281C172.904 56.1145 173.219 55.7793 173.512 55.4249C173.828 55.0601 174.118 54.7113 174.381 54.3841L175.068 53.5042C175.255 53.2414 175.395 53.0643 175.475 52.9677L175.588 53.0589C175.384 53.3111 175.159 53.5954 174.912 53.9388C174.665 54.2821 174.376 54.6309 174.102 55.0118C173.828 55.3927 173.496 55.736 173.174 56.0848C172.86 56.4189 172.527 56.7342 172.176 57.029C171.851 57.3019 171.49 57.5293 171.103 57.705C170.757 57.8677 170.38 57.9537 169.998 57.9571C169.786 57.9604 169.576 57.9126 169.386 57.8176C169.21 57.7368 169.056 57.6154 168.936 57.4635C168.809 57.3052 168.716 57.1226 168.662 56.9271C168.602 56.7305 168.571 56.5263 168.571 56.3208C168.571 55.8724 168.689 55.4319 168.914 55.044C169.139 54.6523 169.39 54.276 169.665 53.9173C169.933 53.5632 170.202 53.236 170.4 52.9302C170.598 52.6936 170.716 52.4008 170.738 52.0933C170.738 51.7875 170.599 51.6426 170.32 51.6426C170.036 51.6656 169.765 51.7679 169.536 51.9377C169.189 52.1703 168.864 52.4343 168.565 52.7263C168.197 53.085 167.848 53.4629 167.519 53.8583C167.165 54.2768 166.827 54.7113 166.5 55.1513C166.173 55.5912 165.878 56.0311 165.609 56.4603C165.368 56.8358 165.148 57.2244 164.949 57.6245L162.482 57.7318L162.487 57.7264Z" fill="#E2A856"/>
<path d="M177.498 56.6534C177.934 56.286 178.326 55.8702 178.667 55.4141C179.057 54.9018 179.388 54.3476 179.655 53.7617C179.919 53.2329 180.062 52.652 180.073 52.061C180.081 51.9455 180.062 51.8298 180.02 51.7222C179.977 51.6146 179.911 51.5178 179.826 51.4387C179.677 51.3097 179.487 51.2374 179.29 51.2348C179.016 51.2402 178.751 51.3281 178.528 51.487C178.244 51.6724 177.99 51.8984 177.772 52.1576C177.511 52.4577 177.276 52.7789 177.069 53.1179C176.85 53.4627 176.652 53.8211 176.479 54.1909C176.317 54.5372 176.185 54.8961 176.082 55.2639C175.997 55.5754 175.95 55.8961 175.942 56.2188C175.942 56.4266 175.982 56.6325 176.06 56.8251C176.095 56.9195 176.161 56.9996 176.246 57.053C176.331 57.1064 176.432 57.13 176.532 57.1201C176.902 57.0672 177.245 56.8959 177.509 56.6319L177.498 56.6534ZM183.673 51.2348C183.544 51.428 183.373 51.6748 183.136 51.9698L182.471 52.9302C182.235 53.2735 181.994 53.6383 181.752 54.0031C181.511 54.368 181.296 54.7489 181.098 55.1083C180.915 55.4345 180.752 55.7713 180.61 56.1169C180.497 56.3671 180.433 56.6367 180.422 56.9109C180.422 57.2596 180.561 57.4474 180.835 57.4474C181.162 57.4175 181.472 57.2904 181.725 57.0826C182.128 56.7955 182.505 56.4742 182.852 56.1223C183.304 55.6726 183.732 55.1999 184.134 54.7059C184.574 54.1694 185.025 53.5954 185.481 52.9945L185.594 53.0697C185.111 53.6812 184.639 54.2768 184.183 54.8615C183.761 55.4045 183.308 55.9222 182.825 56.412C182.418 56.8206 181.964 57.1807 181.473 57.485C181.062 57.7517 180.584 57.8968 180.095 57.9034C179.771 57.9237 179.448 57.855 179.161 57.7049C178.958 57.5867 178.793 57.4138 178.684 57.206C178.583 57.0147 178.522 56.8047 178.507 56.589C178.507 56.3744 178.474 56.1813 178.474 56.015L178.421 55.9774C178.233 56.2027 178.024 56.4334 177.804 56.6588C177.593 56.8939 177.359 57.1077 177.106 57.2972C176.851 57.4815 176.573 57.6329 176.28 57.7478C175.988 57.8619 175.677 57.9201 175.363 57.9195C175.118 57.9357 174.873 57.8958 174.646 57.8028C174.419 57.7098 174.217 57.5662 174.054 57.383C173.718 56.9029 173.562 56.3197 173.614 55.736C173.626 55.1769 173.762 54.6274 174.011 54.1265C174.286 53.5498 174.668 53.0308 175.137 52.5975C175.646 52.1166 176.234 51.7281 176.876 51.4494C177.574 51.1435 178.329 50.9899 179.091 50.9988C179.482 50.9704 179.868 51.0977 180.164 51.3529C180.412 51.5865 180.579 51.8927 180.642 52.2274H180.679L181.146 51.2885L183.705 51.2188L183.673 51.2348Z" fill="#E2A856"/>
<path d="M184.322 51.648L184.451 51.3636H185.942L187.477 48.7456L189.977 48.6597L188.367 51.3422H190.835L190.69 51.6265H188.206C188.04 51.9162 187.809 52.2918 187.514 52.7639C187.219 53.236 186.929 53.7188 186.64 54.2231C186.35 54.7274 186.103 55.2103 185.883 55.6824C185.696 56.0404 185.585 56.433 185.556 56.8358C185.547 56.9191 185.558 57.0033 185.588 57.0815C185.618 57.1598 185.666 57.23 185.728 57.2865C185.864 57.3907 186.034 57.4421 186.205 57.4314C186.552 57.4207 186.891 57.3308 187.198 57.1685C187.576 56.9783 187.936 56.752 188.271 56.4925C188.631 56.2051 188.974 55.8951 189.295 55.5644C189.623 55.221 189.934 54.883 190.229 54.545C190.524 54.207 190.765 53.8905 191.034 53.6008L191.591 52.898L191.736 52.9677C191.329 53.4506 190.894 53.9817 190.438 54.5772C189.987 55.1499 189.494 55.6879 188.963 56.1867C188.448 56.6734 187.873 57.0917 187.251 57.4314C186.636 57.7606 185.948 57.9303 185.25 57.9249C185.025 57.9422 184.799 57.912 184.586 57.8362C184.374 57.7604 184.18 57.6407 184.016 57.485C183.738 57.171 183.594 56.7611 183.614 56.3423C183.614 56.1012 183.646 55.8612 183.71 55.6287C183.801 55.3284 183.919 55.0374 184.065 54.7596C184.231 54.4163 184.456 54.0032 184.73 53.5096C185.003 53.016 185.357 52.3991 185.803 51.6533L184.322 51.648Z" fill="#E2A856"/>
<path d="M198.335 51.3636C198.721 50.6501 199.156 49.9312 199.65 49.1908C200.133 48.463 200.696 47.7917 201.329 47.1897C201.947 46.5988 202.653 46.1066 203.421 45.7305C204.212 45.3475 205.08 45.1528 205.959 45.1618C206.57 45.139 207.176 45.2817 207.713 45.5749C207.944 45.7178 208.131 45.9215 208.254 46.1638C208.377 46.406 208.431 46.6774 208.41 46.9483C208.414 47.1913 208.351 47.4307 208.228 47.6404C208.112 47.8381 207.952 48.0068 207.761 48.1339C207.368 48.4032 206.902 48.5489 206.425 48.5524C206.282 48.5495 206.138 48.5369 205.996 48.5149C205.849 48.4945 205.706 48.4452 205.578 48.37C205.834 48.1105 206.053 47.8161 206.227 47.4955C206.379 47.2174 206.46 46.9059 206.463 46.5889C206.465 46.3133 206.397 46.0418 206.265 45.8002C206.192 45.6821 206.087 45.5868 205.963 45.5251C205.839 45.4635 205.7 45.4379 205.562 45.4515C205.164 45.4801 204.787 45.6385 204.489 45.9021C204.032 46.2678 203.62 46.6855 203.26 47.1468C202.788 47.7438 202.352 48.369 201.957 49.0192C201.517 49.7381 201.061 50.5213 200.605 51.3636H204.929L204.768 51.648H200.476C200.052 52.4688 199.617 53.3272 199.167 54.2446C198.716 55.162 198.233 56.0526 197.724 56.927C197.219 57.7987 196.662 58.6389 196.055 59.4432C195.469 60.2274 194.788 60.9356 194.027 61.5516C193.278 62.1587 192.44 62.6472 191.543 63.0001C190.571 63.3707 189.537 63.5528 188.496 63.5366C188.106 63.532 187.719 63.478 187.342 63.3756C186.963 63.2663 186.601 63.1018 186.27 62.8874C185.946 62.6727 185.67 62.3933 185.459 62.0666C185.248 61.7235 185.14 61.3268 185.148 60.9239C185.133 60.5022 185.239 60.085 185.454 59.7221C185.653 59.4106 185.923 59.1512 186.243 58.9657C186.578 58.7793 186.94 58.6455 187.316 58.5687C187.701 58.4945 188.093 58.4568 188.485 58.456C188.666 58.4523 188.846 58.4703 189.022 58.5097L189.446 58.6009V58.7457C189.151 58.7282 188.856 58.7716 188.579 58.8731C188.302 58.9746 188.049 59.1322 187.836 59.3359C187.636 59.541 187.48 59.7848 187.378 60.0523C187.275 60.3198 187.229 60.6055 187.241 60.8917C187.239 61.195 187.283 61.4969 187.369 61.7876C187.447 62.0623 187.574 62.3204 187.745 62.5494C187.916 62.7707 188.132 62.9534 188.378 63.0859C188.652 63.2243 188.956 63.2925 189.263 63.2844C189.908 63.2825 190.537 63.0842 191.066 62.7158C191.674 62.3019 192.216 61.7991 192.675 61.2243C193.221 60.5501 193.711 59.8324 194.14 59.0784C194.612 58.2629 195.073 57.4313 195.524 56.5729C195.975 55.7146 196.415 54.8615 196.844 54.0139C197.273 53.1662 197.718 52.4044 198.164 51.6802H196.667L196.812 51.3958L198.335 51.3636Z" fill="#E2A856"/>
<path d="M206.426 51.2187C206.102 51.2457 205.799 51.3885 205.573 51.6211C205.251 51.9103 204.966 52.2383 204.725 52.5975C204.471 52.9665 204.245 53.3539 204.049 53.7564C203.886 54.0701 203.766 54.4038 203.689 54.7489C204.164 54.6514 204.621 54.4851 205.047 54.2553C205.422 54.0516 205.768 53.799 206.077 53.5042C206.341 53.2517 206.557 52.9536 206.715 52.6244C206.852 52.3431 206.925 52.0355 206.93 51.7231C206.94 51.6545 206.934 51.5846 206.912 51.519C206.89 51.4533 206.853 51.3936 206.804 51.3446C206.755 51.2956 206.695 51.2588 206.63 51.2369C206.564 51.2151 206.494 51.2089 206.426 51.2187ZM210.895 53.075C210.616 53.4666 210.31 53.869 209.966 54.2714C209.623 54.6737 209.237 55.0868 208.808 55.5053C208.089 56.2133 207.276 56.8198 206.393 57.3079C205.585 57.7217 204.688 57.9316 203.781 57.9195C203.099 57.9675 202.425 57.7611 201.887 57.3401C201.662 57.1263 201.487 56.8653 201.375 56.5759C201.262 56.2865 201.216 55.9759 201.238 55.6663C201.236 55.0274 201.422 54.4022 201.774 53.869C202.136 53.2996 202.596 52.7983 203.132 52.3883C203.677 51.97 204.278 51.6305 204.918 51.3797C205.499 51.1391 206.119 51.0099 206.747 50.9988C207.236 50.9825 207.723 51.078 208.169 51.2778C208.339 51.36 208.48 51.4904 208.575 51.6527C208.671 51.815 208.716 52.0018 208.706 52.1898C208.7 52.4088 208.641 52.6231 208.534 52.8145C208.428 53.006 208.277 53.1689 208.094 53.2896C207.649 53.6227 207.16 53.8918 206.64 54.089C206.094 54.308 205.533 54.4873 204.961 54.6255L203.625 54.942C203.599 55.0605 203.581 55.1806 203.571 55.3014C203.571 55.4195 203.571 55.5429 203.571 55.6609C203.57 55.8756 203.594 56.0898 203.641 56.2993C203.686 56.4922 203.768 56.6744 203.883 56.8358C204.003 56.9927 204.157 57.121 204.333 57.2114C204.551 57.3147 204.79 57.3643 205.031 57.3562C205.684 57.3285 206.316 57.1124 206.849 56.7339C207.553 56.2799 208.21 55.7589 208.813 55.1781C209.203 54.8004 209.574 54.4029 209.923 53.987C210.24 53.6061 210.508 53.252 210.723 52.9409L210.884 53.0536L210.895 53.075Z" fill="#E2A856"/>
<path d="M214.124 51.2187C213.799 51.2453 213.494 51.3882 213.266 51.6211C212.946 51.9105 212.663 52.2385 212.423 52.5975C212.166 52.964 211.94 53.3517 211.747 53.7564C211.584 54.0701 211.461 54.4037 211.383 54.7489C211.858 54.6514 212.317 54.4851 212.745 54.2553C213.12 54.0516 213.467 53.799 213.775 53.5042C214.039 53.2517 214.256 52.9536 214.414 52.6244C214.548 52.3422 214.621 52.0352 214.628 51.7231C214.638 51.6545 214.632 51.5846 214.61 51.519C214.588 51.4533 214.551 51.3936 214.503 51.3446C214.454 51.2956 214.394 51.2588 214.328 51.2369C214.262 51.2151 214.193 51.2089 214.124 51.2187ZM218.593 53.075C218.314 53.4666 218.008 53.869 217.665 54.2714C217.322 54.6737 216.935 55.0868 216.501 55.5053C215.784 56.2157 214.971 56.8225 214.087 57.3079C213.278 57.7217 212.382 57.9317 211.474 57.9195C210.794 57.9677 210.121 57.7612 209.585 57.3401C209.36 57.1263 209.185 56.8653 209.073 56.5759C208.961 56.2865 208.914 55.9759 208.936 55.6663C208.936 55.0278 209.123 54.4032 209.473 53.869C209.837 53.2994 210.298 52.7982 210.835 52.3883C211.379 51.9712 211.979 51.6318 212.617 51.3797C213.197 51.1398 213.818 51.0106 214.446 50.9988C214.937 50.9828 215.425 51.0782 215.873 51.2778C216.042 51.36 216.184 51.4904 216.279 51.6527C216.375 51.815 216.42 52.0018 216.41 52.1898C216.403 52.4088 216.345 52.6231 216.238 52.8145C216.132 53.006 215.981 53.1689 215.798 53.2896C215.352 53.6205 214.863 53.8894 214.344 54.089C213.796 54.3072 213.233 54.4865 212.659 54.6255C212.123 54.765 211.651 54.8669 211.329 54.942C211.329 55.06 211.286 55.1834 211.27 55.3015C211.254 55.4195 211.27 55.5429 211.27 55.6609C211.268 55.876 211.293 56.0905 211.345 56.2993C211.39 56.4922 211.472 56.6744 211.586 56.8358C211.705 56.9951 211.859 57.1239 212.037 57.2114C212.253 57.314 212.49 57.3637 212.729 57.3562C213.383 57.3292 214.015 57.113 214.548 56.7339C215.252 56.2787 215.911 55.7578 216.517 55.1781C216.907 54.8018 217.276 54.4042 217.622 53.987C217.939 53.6061 218.207 53.252 218.427 52.9409L218.588 53.0536L218.593 53.075Z" fill="#E2A856"/>
<path d="M225.02 44.9847C223.819 46.9733 222.79 48.6597 221.936 50.0438C221.088 51.428 220.385 52.5814 219.843 53.5149C219.301 54.4484 218.894 55.1834 218.631 55.7307C218.415 56.1365 218.284 56.5818 218.244 57.0397C218.242 57.0952 218.251 57.1507 218.272 57.2024C218.292 57.2542 218.323 57.3011 218.362 57.3401C218.432 57.4109 218.526 57.4514 218.625 57.4528C219.021 57.4107 219.395 57.2499 219.698 56.9914C220.163 56.6457 220.598 56.2636 221.002 55.8487C221.453 55.3927 221.887 54.8991 222.311 54.3787C222.682 53.9194 223.03 53.4413 223.352 52.9463L223.497 53.016L223.084 53.633C222.89 53.9155 222.649 54.2428 222.359 54.6148C222.075 54.9796 221.753 55.3551 221.399 55.736C221.05 56.1168 220.677 56.4752 220.283 56.809C219.91 57.117 219.505 57.3849 219.076 57.6084C218.696 57.8114 218.273 57.92 217.842 57.9249C217.637 57.9401 217.43 57.9143 217.235 57.8489C217.04 57.7835 216.859 57.6798 216.705 57.544C216.58 57.4191 216.482 57.2698 216.418 57.1055C216.353 56.9413 216.323 56.7655 216.329 56.589C216.33 56.3056 216.372 56.0238 216.453 55.7521C216.561 55.396 216.696 55.0481 216.855 54.7113C217.048 54.309 217.289 53.8315 217.595 53.2843C217.901 52.737 218.282 52.0879 218.733 51.3314C219.183 50.575 219.709 49.6898 220.342 48.6812C220.975 47.6726 221.646 46.503 222.424 45.1671L225.074 44.9901L225.02 44.9847Z" fill="#E2A856"/>
<path d="M235.198 44.9847C233.999 46.9733 232.973 48.6597 232.118 50.0438C231.265 51.428 230.568 52.5814 230.02 53.5149C229.473 54.4484 229.071 55.1834 228.813 55.7306C228.595 56.1355 228.464 56.5813 228.427 57.0397C228.423 57.0954 228.432 57.1513 228.452 57.2032C228.472 57.2552 228.504 57.302 228.545 57.3401C228.578 57.3755 228.618 57.4037 228.662 57.4231C228.706 57.4425 228.754 57.4526 228.803 57.4528C229.19 57.4074 229.554 57.2467 229.849 56.9914C230.314 56.6471 230.75 56.2649 231.152 55.8487C231.613 55.3813 232.05 54.8906 232.461 54.3787C232.88 53.8529 233.238 53.3755 233.534 52.9463L233.679 53.016L233.261 53.633C233.073 53.9173 232.832 54.2446 232.542 54.6148C232.252 54.9849 231.93 55.3551 231.576 55.736C231.229 56.1181 230.856 56.4766 230.46 56.809C230.087 57.117 229.682 57.3849 229.253 57.6084C228.874 57.813 228.45 57.9217 228.019 57.9249C227.815 57.9403 227.609 57.9145 227.415 57.8491C227.22 57.7837 227.041 57.6799 226.887 57.544C226.761 57.4201 226.662 57.2712 226.596 57.1067C226.53 56.9423 226.5 56.766 226.506 56.589C226.51 56.3058 226.552 56.0244 226.63 55.7521C226.738 55.3951 226.875 55.0471 227.037 54.7113C227.225 54.309 227.472 53.8315 227.778 53.2843C228.084 52.737 228.465 52.0879 228.91 51.3314C229.355 50.575 229.886 49.6898 230.519 48.6812C231.152 47.6726 231.818 46.503 232.596 45.1671L235.246 44.9901L235.198 44.9847Z" fill="#E2A856"/>
<path d="M236.04 47.5331C236.186 47.3849 236.366 47.2753 236.565 47.2138C236.764 47.1524 236.974 47.141 237.179 47.1808C237.383 47.2206 237.574 47.3103 237.735 47.4419C237.896 47.5735 238.022 47.7429 238.102 47.935C238.182 48.1271 238.213 48.336 238.192 48.543C238.171 48.75 238.1 48.9487 237.984 49.1213C237.868 49.294 237.711 49.4353 237.527 49.5326C237.343 49.6299 237.138 49.6802 236.93 49.679C236.596 49.6776 236.276 49.5443 236.04 49.3082C235.804 49.0721 235.671 48.7522 235.669 48.4183C235.667 48.2516 235.698 48.0861 235.762 47.9321C235.826 47.778 235.92 47.6386 236.04 47.5223V47.5331ZM236.576 51.2402L235.444 53.0214C235.069 53.6008 234.736 54.1373 234.452 54.6308C234.167 55.1244 233.915 55.5697 233.754 55.9506C233.608 56.2382 233.521 56.5518 233.497 56.8734C233.491 57.0201 233.522 57.1659 233.588 57.2972C233.62 57.3532 233.667 57.399 233.724 57.4293C233.781 57.4597 233.845 57.4734 233.91 57.4689C234.19 57.4548 234.461 57.3638 234.693 57.206C235.003 57.0097 235.296 56.7871 235.568 56.5407C235.884 56.251 236.185 55.9447 236.469 55.6233C236.769 55.28 237.048 54.942 237.317 54.6094C237.585 54.2767 237.815 53.9656 238.025 53.6705L238.561 52.9623L238.706 53.016C238.416 53.4237 238.057 53.9227 237.633 54.5021C237.184 55.1034 236.695 55.6735 236.168 56.2081C235.71 56.695 235.197 57.127 234.639 57.4957C234.169 57.7876 233.626 57.9402 233.073 57.9356C232.866 57.9505 232.659 57.9203 232.466 57.8471C232.272 57.7739 232.097 57.6595 231.952 57.5118C231.685 57.1781 231.552 56.7578 231.576 56.3315C231.634 55.6084 231.872 54.9114 232.268 54.3036C232.73 53.4988 233.341 52.4956 234.028 51.3046L236.603 51.2348L236.576 51.2402Z" fill="#E2A856"/>
<path d="M235.181 57.7264C236.419 55.6341 237.647 53.5489 238.867 51.4709L242.558 45.1618L245.149 44.9847C244.137 46.6836 243.13 48.3593 242.129 50.0117C241.128 51.664 240.11 53.2914 239.076 54.8937L239.109 54.9259L240.181 53.6383C240.553 53.1861 240.954 52.7595 241.383 52.3615C241.785 51.9838 242.232 51.6576 242.714 51.3904C243.166 51.1357 243.676 51.0009 244.194 50.9988C244.395 50.9984 244.594 51.02 244.79 51.0632C244.971 51.1002 245.142 51.1732 245.294 51.2778C245.437 51.3797 245.556 51.5115 245.643 51.6641C245.74 51.8415 245.788 52.0414 245.782 52.2435C245.788 52.4269 245.752 52.6092 245.677 52.7765C245.601 52.9438 245.489 53.0918 245.348 53.2091C245.045 53.4603 244.7 53.6548 244.329 53.7832C243.941 53.9228 243.54 54.0235 243.132 54.0836C242.724 54.1426 242.397 54.1802 242.156 54.207V54.2446L242.692 54.4592C242.863 54.5286 243.027 54.6149 243.18 54.7167C243.321 54.8219 243.443 54.9508 243.54 55.0976C243.638 55.2591 243.688 55.4451 243.685 55.6341C243.68 55.7633 243.659 55.8914 243.62 56.015C243.577 56.1437 243.529 56.2725 243.476 56.4013C243.423 56.5204 243.376 56.6422 243.336 56.7661C243.296 56.8708 243.275 56.9814 243.272 57.0933C243.272 57.3187 243.374 57.4367 243.577 57.4367C243.83 57.4183 244.072 57.3332 244.28 57.1899C244.578 57.0044 244.86 56.7945 245.123 56.5622C245.443 56.2878 245.747 55.9958 246.035 55.6877C246.34 55.3605 246.63 55.0332 246.909 54.6952C247.188 54.3572 247.446 54.0353 247.666 53.7295C247.886 53.4237 248.079 53.1662 248.202 52.9463L248.363 53.0214C248.073 53.4398 247.714 53.9334 247.29 54.4914C246.844 55.0582 246.362 55.5958 245.847 56.1008C245.541 56.415 245.217 56.7106 244.876 56.986C244.618 57.1902 244.341 57.3698 244.05 57.5225C243.803 57.6435 243.544 57.737 243.277 57.8015C243.027 57.8556 242.771 57.8826 242.515 57.882C242.081 57.9022 241.65 57.7899 241.281 57.5601C241.123 57.4493 240.997 57.2999 240.913 57.1261C240.829 56.9524 240.792 56.76 240.804 56.5676C240.798 56.3403 240.844 56.1146 240.938 55.9077C241.026 55.7236 241.125 55.5445 241.233 55.3712C241.344 55.1988 241.445 55.0196 241.533 54.8347C241.626 54.6539 241.672 54.453 241.668 54.2499C241.508 54.3132 241.345 54.3669 241.179 54.4109C241.016 54.4598 240.846 54.4851 240.675 54.486C240.6 54.4888 240.525 54.4702 240.46 54.4323C240.429 54.4104 240.404 54.3805 240.388 54.3456C240.372 54.3106 240.365 54.2721 240.369 54.2338C240.369 54.0407 240.514 53.9441 240.804 53.9441C240.973 53.943 241.142 53.9573 241.308 53.9871C241.431 54.0166 241.557 54.0328 241.684 54.0353C241.875 54.0269 242.06 53.9676 242.22 53.8637C242.42 53.7465 242.601 53.6 242.757 53.4291C242.921 53.2582 243.056 53.0604 243.154 52.8443C243.25 52.649 243.301 52.4345 243.304 52.2166C243.311 52.0821 243.267 51.95 243.18 51.8465C243.136 51.7948 243.081 51.754 243.019 51.727C242.956 51.7001 242.889 51.6877 242.821 51.6909C242.533 51.7183 242.26 51.8324 242.038 52.0181C241.688 52.271 241.361 52.5547 241.061 52.8658C240.697 53.2367 240.353 53.6272 240.031 54.0353C239.683 54.4699 239.355 54.8991 239.044 55.3336C238.733 55.7682 238.465 56.1759 238.229 56.5676C237.993 56.9592 237.799 57.2757 237.692 57.5333L235.203 57.6406L235.181 57.7264Z" fill="#E2A856"/>
<path d="M251.646 51.2188C251.323 51.2457 251.02 51.3886 250.793 51.6211C250.471 51.9103 250.187 52.2383 249.946 52.5975C249.692 52.9666 249.466 53.3539 249.27 53.7564C249.107 54.0701 248.986 54.4038 248.91 54.7489C249.386 54.6514 249.845 54.4851 250.273 54.2553C250.645 54.0503 250.99 53.7979 251.298 53.5042C251.563 53.2532 251.78 52.9548 251.936 52.6244C252.072 52.3431 252.146 52.0355 252.151 51.7231C252.16 51.6545 252.154 51.5847 252.132 51.519C252.111 51.4533 252.074 51.3936 252.025 51.3446C251.976 51.2957 251.916 51.2588 251.85 51.237C251.785 51.2151 251.715 51.2089 251.646 51.2188ZM256.115 53.075C255.842 53.4667 255.53 53.869 255.187 54.2714C254.844 54.6738 254.458 55.0869 254.028 55.5053C253.309 56.2133 252.497 56.8198 251.614 57.3079C250.806 57.7217 249.909 57.9317 249.001 57.9195C248.32 57.9676 247.645 57.7611 247.108 57.3401C246.883 57.1263 246.708 56.8653 246.595 56.5759C246.483 56.2865 246.436 55.9759 246.458 55.6663C246.459 55.0279 246.646 54.4035 246.995 53.869C247.357 53.2982 247.819 52.7967 248.358 52.3883C248.9 51.969 249.5 51.6294 250.139 51.3797C250.719 51.1398 251.34 51.0106 251.968 50.9988C252.459 50.9834 252.947 51.0788 253.395 51.2778C253.564 51.3606 253.705 51.4911 253.8 51.6532C253.896 51.8154 253.941 52.002 253.932 52.1898C253.926 52.4088 253.867 52.6231 253.76 52.8145C253.654 53.006 253.503 53.169 253.32 53.2896C252.877 53.6217 252.389 53.8907 251.872 54.089C251.323 54.3072 250.76 54.4865 250.187 54.6255C249.651 54.765 249.178 54.8669 248.851 54.942C248.851 55.06 248.808 55.1834 248.798 55.3015C248.787 55.4195 248.798 55.5429 248.798 55.6609C248.797 55.8757 248.82 56.0898 248.867 56.2993C248.912 56.4922 248.994 56.6744 249.109 56.8358C249.23 56.9941 249.386 57.1226 249.565 57.2114C249.78 57.3152 250.018 57.365 250.257 57.3562C250.91 57.3286 251.542 57.1124 252.075 56.7339C252.779 56.2799 253.436 55.7589 254.039 55.1781C254.431 54.8018 254.802 54.4042 255.15 53.9871C255.466 53.6061 255.734 53.2521 255.949 52.9409L256.11 53.0536L256.115 53.075Z" fill="#E2A856"/>
<path d="M268.583 53.0535C268.147 53.7037 267.674 54.3288 267.167 54.9259C266.678 55.5089 266.12 56.0297 265.504 56.4763C264.877 56.936 264.184 57.2978 263.449 57.5493C262.61 57.8193 261.733 57.9498 260.852 57.9356C260.512 57.9367 260.172 57.9007 259.838 57.8283C259.545 57.7687 259.266 57.652 259.018 57.4849C258.791 57.3308 258.607 57.1224 258.481 56.8787C258.345 56.6096 258.277 56.3112 258.283 56.0096C258.27 55.8105 258.301 55.6111 258.374 55.4256C258.448 55.2401 258.561 55.0731 258.706 54.9366C258.969 54.6818 259.322 54.5411 259.688 54.545C259.923 54.5378 260.153 54.6138 260.337 54.7596C260.43 54.8389 260.503 54.939 260.55 55.0519C260.596 55.1647 260.615 55.287 260.606 55.4087C260.614 55.5189 260.598 55.6296 260.558 55.7326C260.518 55.8357 260.455 55.9285 260.375 56.0042C260.227 56.1347 260.036 56.2055 259.838 56.2027C259.716 56.2077 259.594 56.1876 259.479 56.1437C259.42 56.2483 259.39 56.367 259.393 56.4871C259.383 56.6492 259.404 56.8118 259.457 56.9655C259.509 57.1193 259.592 57.2611 259.699 57.383C259.819 57.4944 259.96 57.58 260.114 57.6345C260.268 57.6889 260.432 57.7111 260.595 57.6995C260.809 57.7159 261.025 57.6839 261.226 57.6059C261.426 57.5279 261.607 57.4059 261.754 57.2489C262.002 56.9469 262.135 56.5667 262.129 56.1759C262.124 55.9114 262.042 55.654 261.893 55.4355C261.738 55.1995 261.566 54.9527 261.384 54.7113C261.201 54.4699 261.024 54.2177 260.847 53.9655C260.698 53.7468 260.616 53.4896 260.611 53.2252C260.612 52.9364 260.68 52.6519 260.809 52.3936C260.952 52.1174 261.151 51.8743 261.394 51.6801C261.677 51.4568 261.999 51.2893 262.344 51.1865C262.757 51.0575 263.188 50.996 263.621 51.0041C264.208 50.9804 264.792 51.1021 265.321 51.3582C265.519 51.4446 265.687 51.5873 265.805 51.7685C265.922 51.9498 265.983 52.1616 265.981 52.3775C265.985 52.5301 265.957 52.6817 265.898 52.8223C265.838 52.9629 265.75 53.0893 265.638 53.193C265.53 53.2966 265.403 53.3779 265.264 53.4322C265.125 53.4865 264.977 53.5128 264.828 53.5095C264.555 53.5115 264.288 53.4372 264.055 53.2949C264.137 53.1641 264.202 53.0235 264.248 52.8765C264.3 52.7207 264.325 52.5576 264.323 52.3936C264.326 52.1099 264.254 51.8304 264.114 51.5835C264.048 51.466 263.95 51.3698 263.831 51.3061C263.713 51.2424 263.578 51.214 263.444 51.2241C263.32 51.2188 263.197 51.2416 263.084 51.2908C262.97 51.3401 262.87 51.4145 262.789 51.5084C262.626 51.7278 262.544 51.9972 262.558 52.2702C262.56 52.571 262.655 52.8638 262.832 53.1072C263.009 53.3647 263.202 53.6168 263.411 53.8743C263.626 54.1222 263.821 54.3858 263.996 54.663C264.179 54.9398 264.274 55.265 264.27 55.5965C264.294 55.9661 264.206 56.3345 264.018 56.6534C263.795 56.965 263.503 57.2204 263.165 57.3991L263.197 57.4366C263.733 57.2827 264.246 57.0552 264.72 56.7607C265.23 56.4485 265.71 56.0892 266.153 55.6877C266.609 55.278 267.034 54.8351 267.424 54.3626C267.802 53.9091 268.148 53.4305 268.46 52.9301L268.583 53.075V53.0535Z" fill="#E2A856"/>
<path d="M270.901 47.5331C271.047 47.3849 271.227 47.2753 271.426 47.2138C271.625 47.1524 271.836 47.141 272.04 47.1808C272.244 47.2206 272.435 47.3103 272.596 47.4419C272.757 47.5735 272.883 47.7429 272.963 47.935C273.043 48.1271 273.074 48.336 273.053 48.543C273.033 48.75 272.961 48.9487 272.845 49.1213C272.729 49.294 272.572 49.4353 272.388 49.5326C272.205 49.6299 272 49.6802 271.792 49.679C271.458 49.6776 271.138 49.5443 270.902 49.3082C270.665 49.0721 270.532 48.7522 270.531 48.4183C270.528 48.2516 270.56 48.0861 270.623 47.9321C270.687 47.778 270.781 47.6386 270.901 47.5223V47.5331ZM271.437 51.2402C271.051 51.8518 270.676 52.442 270.3 53.0214C269.925 53.6008 269.597 54.1373 269.313 54.6308C269.029 55.1244 268.776 55.5697 268.616 55.9506C268.47 56.2382 268.382 56.5518 268.358 56.8734C268.352 57.0201 268.383 57.1659 268.449 57.2972C268.481 57.3532 268.529 57.399 268.585 57.4293C268.642 57.4597 268.707 57.4734 268.771 57.4689C269.051 57.454 269.322 57.3631 269.554 57.206C269.864 57.0097 270.157 56.7871 270.429 56.5407C270.745 56.251 271.046 55.9447 271.33 55.6233C271.631 55.28 271.91 54.942 272.178 54.6094C272.446 54.2767 272.677 53.9656 272.886 53.6705C273.095 53.3754 273.267 53.134 273.422 52.9623L273.567 53.016C273.278 53.4237 272.918 53.9227 272.494 54.5021C272.049 55.1047 271.561 55.6748 271.035 56.2081C270.576 56.6937 270.063 57.1257 269.506 57.4957C269.036 57.7876 268.493 57.9402 267.94 57.9356C267.733 57.9505 267.526 57.9203 267.332 57.8471C267.139 57.7739 266.963 57.6595 266.818 57.5118C266.552 57.1781 266.418 56.7578 266.443 56.3315C266.501 55.6084 266.739 54.9114 267.135 54.3036C267.596 53.4988 268.208 52.4956 268.895 51.3046L271.47 51.2348L271.437 51.2402Z" fill="#E2A856"/>
<path d="M280.08 44.9847C278.879 46.9733 277.85 48.6597 276.996 50.0438C276.148 51.428 275.445 52.5814 274.898 53.5149C274.351 54.4484 273.948 55.1834 273.691 55.7306C273.473 56.1355 273.341 56.5813 273.305 57.0397C273.301 57.0954 273.309 57.1513 273.33 57.2032C273.35 57.2552 273.382 57.302 273.423 57.3401C273.456 57.375 273.496 57.4029 273.54 57.4222C273.584 57.4416 273.632 57.452 273.68 57.4528C274.077 57.4127 274.451 57.2517 274.753 56.9914C275.218 56.6471 275.654 56.2649 276.057 55.8487C276.519 55.3826 276.956 54.8919 277.366 54.3787C277.739 53.9193 278.088 53.4412 278.412 52.9463L278.557 53.016L278.138 53.633C277.951 53.9173 277.709 54.2446 277.419 54.6148C277.13 54.9849 276.813 55.3551 276.459 55.736C276.108 56.1169 275.734 56.4752 275.338 56.809C274.965 57.1182 274.561 57.3862 274.131 57.6084C273.751 57.813 273.328 57.9217 272.897 57.9249C272.692 57.9403 272.487 57.9145 272.292 57.8491C272.098 57.7837 271.918 57.6799 271.765 57.544C271.639 57.4193 271.541 57.2703 271.475 57.106C271.41 56.9417 271.379 56.7658 271.384 56.589C271.387 56.3054 271.43 56.0236 271.513 55.7521C271.621 55.3951 271.758 55.0471 271.92 54.7113C272.103 54.309 272.35 53.8315 272.655 53.2843C272.961 52.737 273.342 52.0879 273.793 51.3314C274.243 50.575 274.769 49.6898 275.402 48.6812C276.035 47.6726 276.706 46.503 277.484 45.1671L280.134 44.9901L280.08 44.9847Z" fill="#E2A856"/>
<path d="M275.053 57.7264C276.287 55.6341 277.514 53.5489 278.734 51.4709C279.953 49.3929 281.182 47.297 282.419 45.1833L285.016 45.0062C284.007 46.6944 283.001 48.37 281.996 50.0331C280.991 51.6963 279.973 53.3236 278.943 54.9152L278.98 54.9474L280.053 53.6598C280.425 53.2076 280.826 52.781 281.255 52.383C281.657 52.0053 282.104 51.6791 282.586 51.4119C283.036 51.1572 283.544 51.0224 284.061 51.0203C284.261 51.0194 284.461 51.041 284.657 51.0847C284.837 51.1217 285.009 51.1947 285.161 51.2993C285.305 51.4009 285.426 51.5327 285.515 51.6855C285.61 51.8634 285.656 52.0634 285.649 52.2649C285.655 52.4478 285.619 52.6296 285.545 52.7968C285.47 52.9639 285.359 53.1122 285.22 53.2306C284.918 53.4826 284.572 53.6772 284.2 53.8047C283.811 53.9443 283.408 54.045 282.999 54.1051C282.591 54.1641 282.269 54.2017 282.028 54.2285V54.266L282.564 54.4807C282.733 54.5513 282.894 54.6375 283.047 54.7382C283.192 54.8403 283.316 54.9696 283.412 55.1191C283.508 55.2811 283.556 55.4672 283.551 55.6556C283.552 55.7848 283.532 55.9133 283.492 56.0365C283.449 56.1652 283.401 56.294 283.347 56.4227C283.294 56.5461 283.246 56.6695 283.203 56.7876C283.163 56.8923 283.141 57.0029 283.138 57.1148C283.138 57.3401 283.24 57.4582 283.444 57.4582C283.696 57.4414 283.939 57.3561 284.147 57.2114C284.445 57.0248 284.729 56.8149 284.994 56.5837C285.314 56.3093 285.619 56.0173 285.907 55.7092C286.212 55.3819 286.502 55.0547 286.781 54.7167C287.06 54.3787 287.318 54.0568 287.537 53.751C287.757 53.4452 287.951 53.1877 288.074 52.9677L288.24 53.0428C287.951 53.4613 287.591 53.9549 287.167 54.5128C286.721 55.0797 286.239 55.6173 285.724 56.1223C285.415 56.4354 285.089 56.7309 284.748 57.0075C284.49 57.2129 284.214 57.3926 283.922 57.544C283.678 57.6642 283.423 57.7578 283.16 57.823C282.908 57.8768 282.65 57.9038 282.393 57.9035C281.957 57.9217 281.525 57.8097 281.153 57.5816C280.996 57.4706 280.87 57.321 280.787 57.1471C280.705 56.9733 280.668 56.7811 280.681 56.5891C280.675 56.3618 280.721 56.1361 280.815 55.9292C280.902 55.744 281 55.5648 281.11 55.3927C281.22 55.2202 281.318 55.041 281.405 54.8562C281.5 54.6759 281.548 54.4749 281.545 54.2714C281.385 54.3339 281.222 54.3876 281.057 54.4324C280.893 54.4809 280.723 54.5062 280.552 54.5075C280.477 54.5109 280.403 54.4922 280.338 54.4538C280.306 54.4319 280.281 54.402 280.265 54.367C280.249 54.3321 280.243 54.2935 280.247 54.2553C280.247 54.0622 280.391 53.9656 280.681 53.9656C280.848 53.9643 281.015 53.9787 281.18 54.0085C281.305 54.0379 281.433 54.0541 281.561 54.0568C281.752 54.05 281.938 53.9906 282.097 53.8851C282.297 53.7677 282.478 53.6212 282.634 53.4506C282.797 53.2783 282.931 53.0808 283.031 52.8658C283.129 52.6708 283.182 52.4563 283.187 52.2381C283.192 52.1029 283.146 51.9707 283.058 51.8679C283.014 51.8163 282.958 51.7755 282.896 51.7485C282.834 51.7215 282.766 51.7092 282.698 51.7124C282.41 51.7388 282.137 51.853 281.915 52.0396C281.564 52.2911 281.237 52.5749 280.939 52.8873C280.573 53.2581 280.227 53.6485 279.903 54.0568C279.554 54.4914 279.227 54.9206 278.921 55.3551C278.616 55.7897 278.342 56.1974 278.101 56.5891C277.859 56.9807 277.677 57.2972 277.564 57.5547L275.08 57.662L275.053 57.7264Z" fill="#E2A856"/>
<path d="M86.2462 15.628C84.8942 13.7341 79.5186 7.20505 75.7095 5.68678C75.4661 5.57129 75.208 5.49004 74.9423 5.44535C74.7359 5.40159 74.5256 5.37824 74.3146 5.37562C73.4591 5.34654 72.604 5.44415 71.777 5.66532L71.5571 5.72434L71.38 5.77262C71.0807 5.84643 70.7909 5.95444 70.5163 6.09452C67.7158 7.29626 62.5172 10.9766 50.4569 22.7257C50.4569 22.7257 48.3485 24.4318 49.6629 21.406C50.9773 18.3801 52.8228 13.1225 50.5857 9.57097C48.6221 6.45396 44.1478 1.20708 41.1005 0.504276C40.6548 0.385663 40.1919 0.345721 39.7324 0.386248C38.4884 0.497836 37.261 0.749806 36.0736 1.13734C32.1411 2.29616 23.8952 6.55052 2.17809 23.6699C2.17809 23.6699 0.756393 24.92 0.568621 25.1882C0.38085 25.4565 -0.225387 26.3095 0.27355 26.9265C0.81004 27.4629 1.55576 27.4629 2.2693 27.4629C2.53861 27.4715 2.80726 27.4948 3.07403 27.5327C5.04832 27.758 8.65354 28.6057 13.2674 31.6851C14.453 32.6079 16.0303 33.2624 17.2159 32.4738C18.4016 31.6851 35.2367 16.4273 36.8139 18.1334C38.3912 19.8394 33.3965 26.4222 29.5767 31.8139C25.7569 37.2056 11.953 53.9119 11.953 53.9119C11.953 53.9119 8.79839 56.9378 12.8757 56.9378C16.9531 56.9378 29.0348 57.7264 30.3385 57.1899C31.6422 56.6534 46.3903 37.726 46.3903 37.726C46.3903 37.726 62.4045 17.5271 64.5398 19.0454C65.0763 19.4317 64.8348 20.9392 63.617 22.994C63.279 23.568 48.2305 46.9322 48.2305 46.9322C48.2305 46.9322 46.7551 48.5417 49.9419 50.3496C52.796 51.9859 57.3079 52.7209 62.1739 59.0354C63.7565 60.441 64.4003 62.7909 66.1117 60.9507C67.9948 58.9281 76.246 39.4374 81.509 29.963C86.7719 20.4886 87.8235 17.8598 86.2462 15.628Z" fill="white" stroke="white" stroke-width="0.26"/>
<path d="M86.1727 15.2538C84.8261 13.3439 79.4505 6.83094 75.6521 5.32876C75.2105 5.14018 74.7373 5.03645 74.2572 5.02298C73.4015 4.98838 72.5455 5.08608 71.7196 5.31267L71.4997 5.36632L71.3226 5.41997C71.022 5.49501 70.7305 5.60297 70.4535 5.74187C67.6584 6.94361 62.4598 10.6239 50.3941 22.3731C50.3941 22.3731 48.2911 24.0845 49.6055 21.0587C50.9199 18.0329 52.7654 12.7699 50.5283 9.21832C48.5647 6.10131 44.0904 0.859804 41.0431 0.157001C40.5961 0.035513 40.1309 -0.00446856 39.6697 0.0389727C38.4275 0.148214 37.2018 0.398396 36.0162 0.784694C32.0783 1.94351 23.8379 6.19788 2.12072 23.3173C2.12072 23.3173 0.69902 24.5673 0.511248 24.8356C0.323476 25.1038 -0.28276 25.9515 0.216177 26.5738C0.752667 27.1103 1.49302 27.1103 2.21192 27.1103C2.48122 27.1191 2.74986 27.1424 3.01666 27.18C4.98558 27.4054 8.59616 28.253 13.21 31.3271C14.3903 32.2499 15.9729 32.9098 17.1532 32.1211C18.3335 31.3325 35.1739 16.0693 36.7565 17.7807C38.3392 19.4921 33.3337 26.0695 29.5193 31.4612C25.7048 36.853 11.8688 53.5325 11.8688 53.5325C11.8688 53.5325 8.70883 56.5583 12.7862 56.5583C16.8635 56.5583 28.9667 57.3469 30.2811 56.8211C31.5955 56.2954 46.3168 37.3412 46.3168 37.3412C46.3168 37.3412 62.3364 17.1423 64.4716 18.6659C65.0081 19.0522 64.7614 20.5597 63.5489 22.6091C63.2055 23.1886 48.157 46.5527 48.157 46.5527C48.157 46.5527 46.687 48.1622 49.8684 49.9702C52.7225 51.6065 57.2344 52.3414 62.1057 58.6506C63.7152 60.0562 64.3268 62.406 66.0436 60.5712C67.9266 58.5433 76.1779 39.0526 81.4408 29.5835C86.7038 20.1145 87.7553 17.491 86.1727 15.2538Z" fill="#E2A856"/>
</g>
<defs>
<clipPath id="clip0_288_1657">
<rect width="290" height="63.5366" fill="white"/>
</clipPath>
</defs>
</svg>
