<svg width="19" height="13" viewBox="0 0 19 13" fill="none" xmlns="http://www.w3.org/2000/svg">
<path d="M18.1607 2.03073C18.0551 1.6375 17.8481 1.27889 17.5603 0.990807C17.2726 0.702719 16.9143 0.495253 16.5212 0.389172C15.0742 7.89667e-08 9.27389 0 9.27389 0C9.27389 0 3.47357 -7.89667e-08 2.02659 0.387102C1.63332 0.492839 1.2748 0.70019 0.987018 0.988331C0.699241 1.27647 0.492342 1.63526 0.387102 2.02866C-7.89667e-08 3.47771 0 6.5 0 6.5C0 6.5 -7.89667e-08 9.52229 0.387102 10.9693C0.600318 11.7683 1.22962 12.3976 2.02659 12.6108C3.47357 13 9.27389 13 9.27389 13C9.27389 13 15.0742 13 16.5212 12.6108C17.3202 12.3976 17.9475 11.7683 18.1607 10.9693C18.5478 9.52229 18.5478 6.5 18.5478 6.5C18.5478 6.5 18.5478 3.47771 18.1607 2.03073ZM7.43153 9.27389V3.72611L12.2341 6.4793L7.43153 9.27389Z" fill="#E2A856"/>
</svg>
