<svg width="112" height="15" viewBox="0 0 112 15" fill="none" xmlns="http://www.w3.org/2000/svg">
<path d="M2.12305 14H0.628906V1.15039H7.7832V2.46875H2.12305V7.17969H7.44043V8.48926H2.12305V14ZM18.0137 9.16602C18.0137 9.95703 17.9111 10.6631 17.7061 11.2842C17.501 11.9053 17.2051 12.4297 16.8184 12.8574C16.4316 13.2852 15.9629 13.6133 15.4121 13.8418C14.8672 14.0645 14.249 14.1758 13.5576 14.1758C12.9131 14.1758 12.3213 14.0645 11.7822 13.8418C11.249 13.6133 10.7861 13.2852 10.3936 12.8574C10.0068 12.4297 9.70508 11.9053 9.48828 11.2842C9.27734 10.6631 9.17188 9.95703 9.17188 9.16602C9.17188 8.11133 9.35059 7.21484 9.70801 6.47656C10.0654 5.73242 10.5752 5.16699 11.2373 4.78027C11.9053 4.3877 12.6992 4.19141 13.6191 4.19141C14.498 4.19141 15.2656 4.3877 15.9219 4.78027C16.584 5.17285 17.0967 5.74121 17.46 6.48535C17.8291 7.22363 18.0137 8.11719 18.0137 9.16602ZM10.6836 9.16602C10.6836 9.93945 10.7861 10.6104 10.9912 11.1787C11.1963 11.7471 11.5127 12.1865 11.9404 12.4971C12.3682 12.8076 12.9189 12.9629 13.5928 12.9629C14.2607 12.9629 14.8086 12.8076 15.2363 12.4971C15.6699 12.1865 15.9893 11.7471 16.1943 11.1787C16.3994 10.6104 16.502 9.93945 16.502 9.16602C16.502 8.39844 16.3994 7.73633 16.1943 7.17969C15.9893 6.61719 15.6729 6.18359 15.2451 5.87891C14.8174 5.57422 14.2637 5.42188 13.584 5.42188C12.582 5.42188 11.8467 5.75293 11.3779 6.41504C10.915 7.07715 10.6836 7.99414 10.6836 9.16602ZM22.0039 14H20.5361V0.324219H22.0039V14ZM26.5566 14H25.0889V0.324219H26.5566V14ZM37.9473 9.16602C37.9473 9.95703 37.8447 10.6631 37.6396 11.2842C37.4346 11.9053 37.1387 12.4297 36.752 12.8574C36.3652 13.2852 35.8965 13.6133 35.3457 13.8418C34.8008 14.0645 34.1826 14.1758 33.4912 14.1758C32.8467 14.1758 32.2549 14.0645 31.7158 13.8418C31.1826 13.6133 30.7197 13.2852 30.3271 12.8574C29.9404 12.4297 29.6387 11.9053 29.4219 11.2842C29.2109 10.6631 29.1055 9.95703 29.1055 9.16602C29.1055 8.11133 29.2842 7.21484 29.6416 6.47656C29.999 5.73242 30.5088 5.16699 31.1709 4.78027C31.8389 4.3877 32.6328 4.19141 33.5527 4.19141C34.4316 4.19141 35.1992 4.3877 35.8555 4.78027C36.5176 5.17285 37.0303 5.74121 37.3936 6.48535C37.7627 7.22363 37.9473 8.11719 37.9473 9.16602ZM30.6172 9.16602C30.6172 9.93945 30.7197 10.6104 30.9248 11.1787C31.1299 11.7471 31.4463 12.1865 31.874 12.4971C32.3018 12.8076 32.8525 12.9629 33.5264 12.9629C34.1943 12.9629 34.7422 12.8076 35.1699 12.4971C35.6035 12.1865 35.9229 11.7471 36.1279 11.1787C36.333 10.6104 36.4355 9.93945 36.4355 9.16602C36.4355 8.39844 36.333 7.73633 36.1279 7.17969C35.9229 6.61719 35.6064 6.18359 35.1787 5.87891C34.751 5.57422 34.1973 5.42188 33.5176 5.42188C32.5156 5.42188 31.7803 5.75293 31.3115 6.41504C30.8486 7.07715 30.6172 7.99414 30.6172 9.16602ZM48.3096 13.9824L46.5957 8.375C46.5195 8.13477 46.4463 7.90039 46.376 7.67188C46.3115 7.4375 46.25 7.21484 46.1914 7.00391C46.1387 6.78711 46.0889 6.58789 46.042 6.40625C46.001 6.21875 45.9658 6.05762 45.9365 5.92285H45.875C45.8516 6.05762 45.8193 6.21875 45.7783 6.40625C45.7373 6.58789 45.6875 6.78711 45.6289 7.00391C45.5762 7.2207 45.5176 7.44922 45.4531 7.68945C45.3887 7.92383 45.3154 8.16113 45.2334 8.40137L43.4404 13.9824H41.7969L39.1426 4.34961H40.6543L42.043 9.66699C42.1367 10.0186 42.2246 10.3672 42.3066 10.7129C42.3945 11.0527 42.4678 11.375 42.5264 11.6797C42.5908 11.9785 42.6377 12.2393 42.667 12.4619H42.7373C42.7725 12.3154 42.8105 12.1396 42.8516 11.9346C42.8984 11.7295 42.9482 11.5127 43.001 11.2842C43.0596 11.0498 43.1211 10.8184 43.1855 10.5898C43.25 10.3555 43.3145 10.1357 43.3789 9.93066L45.1543 4.34961H46.7275L48.4414 9.92188C48.5293 10.2031 48.6143 10.4961 48.6963 10.8008C48.7842 11.1055 48.8633 11.4014 48.9336 11.6885C49.0039 11.9697 49.0537 12.2217 49.083 12.4443H49.1533C49.1768 12.2451 49.2207 11.999 49.2852 11.7061C49.3496 11.4131 49.4229 11.0908 49.5049 10.7393C49.5928 10.3877 49.6836 10.0303 49.7773 9.66699L51.1836 4.34961H52.6689L50.0059 13.9824H48.3096ZM67.0566 4.36719V14H65.8613L65.6504 12.6465H65.5713C65.3721 12.9805 65.1143 13.2617 64.7979 13.4902C64.4814 13.7188 64.124 13.8887 63.7256 14C63.333 14.1172 62.9141 14.1758 62.4688 14.1758C61.707 14.1758 61.0684 14.0527 60.5527 13.8066C60.0371 13.5605 59.6475 13.1797 59.3838 12.6641C59.126 12.1484 58.9971 11.4863 58.9971 10.6777V4.36719H60.4736V10.5723C60.4736 11.375 60.6553 11.9756 61.0186 12.374C61.3818 12.7666 61.9355 12.9629 62.6797 12.9629C63.3945 12.9629 63.9629 12.8281 64.3848 12.5586C64.8125 12.2891 65.1201 11.8936 65.3076 11.3721C65.4951 10.8447 65.5889 10.2002 65.5889 9.43848V4.36719H67.0566ZM76.373 11.3633C76.373 11.9785 76.2178 12.4971 75.9072 12.9189C75.6025 13.335 75.1631 13.6484 74.5889 13.8594C74.0205 14.0703 73.3408 14.1758 72.5498 14.1758C71.876 14.1758 71.293 14.123 70.8008 14.0176C70.3086 13.9121 69.8779 13.7627 69.5088 13.5693V12.2246C69.9014 12.418 70.3701 12.5938 70.915 12.752C71.46 12.9102 72.0166 12.9893 72.585 12.9893C73.417 12.9893 74.0205 12.8545 74.3955 12.585C74.7705 12.3154 74.958 11.9492 74.958 11.4863C74.958 11.2227 74.8818 10.9912 74.7295 10.792C74.583 10.5869 74.334 10.3906 73.9824 10.2031C73.6309 10.0098 73.1445 9.79883 72.5234 9.57031C71.9082 9.33594 71.375 9.10449 70.9238 8.87598C70.4785 8.6416 70.1328 8.35742 69.8867 8.02344C69.6465 7.68945 69.5264 7.25586 69.5264 6.72266C69.5264 5.9082 69.8545 5.28418 70.5107 4.85059C71.1729 4.41113 72.04 4.19141 73.1123 4.19141C73.6924 4.19141 74.2344 4.25 74.7383 4.36719C75.248 4.47852 75.7227 4.63086 76.1621 4.82422L75.6699 5.99316C75.2715 5.82324 74.8467 5.67969 74.3955 5.5625C73.9443 5.44531 73.4844 5.38672 73.0156 5.38672C72.3418 5.38672 71.8232 5.49805 71.46 5.7207C71.1025 5.94336 70.9238 6.24805 70.9238 6.63477C70.9238 6.93359 71.0059 7.17969 71.1699 7.37305C71.3398 7.56641 71.6094 7.74805 71.9785 7.91797C72.3477 8.08789 72.834 8.28711 73.4375 8.51562C74.041 8.73828 74.5625 8.96973 75.002 9.20996C75.4414 9.44434 75.7783 9.73145 76.0127 10.0713C76.2529 10.4053 76.373 10.8359 76.373 11.3633ZM91.7012 9.16602C91.7012 9.95703 91.5986 10.6631 91.3936 11.2842C91.1885 11.9053 90.8926 12.4297 90.5059 12.8574C90.1191 13.2852 89.6504 13.6133 89.0996 13.8418C88.5547 14.0645 87.9365 14.1758 87.2451 14.1758C86.6006 14.1758 86.0088 14.0645 85.4697 13.8418C84.9365 13.6133 84.4736 13.2852 84.0811 12.8574C83.6943 12.4297 83.3926 11.9053 83.1758 11.2842C82.9648 10.6631 82.8594 9.95703 82.8594 9.16602C82.8594 8.11133 83.0381 7.21484 83.3955 6.47656C83.7529 5.73242 84.2627 5.16699 84.9248 4.78027C85.5928 4.3877 86.3867 4.19141 87.3066 4.19141C88.1855 4.19141 88.9531 4.3877 89.6094 4.78027C90.2715 5.17285 90.7842 5.74121 91.1475 6.48535C91.5166 7.22363 91.7012 8.11719 91.7012 9.16602ZM84.3711 9.16602C84.3711 9.93945 84.4736 10.6104 84.6787 11.1787C84.8838 11.7471 85.2002 12.1865 85.6279 12.4971C86.0557 12.8076 86.6064 12.9629 87.2803 12.9629C87.9482 12.9629 88.4961 12.8076 88.9238 12.4971C89.3574 12.1865 89.6768 11.7471 89.8818 11.1787C90.0869 10.6104 90.1895 9.93945 90.1895 9.16602C90.1895 8.39844 90.0869 7.73633 89.8818 7.17969C89.6768 6.61719 89.3604 6.18359 88.9326 5.87891C88.5049 5.57422 87.9512 5.42188 87.2715 5.42188C86.2695 5.42188 85.5342 5.75293 85.0654 6.41504C84.6025 7.07715 84.3711 7.99414 84.3711 9.16602ZM98.7852 4.19141C99.9277 4.19141 100.792 4.47266 101.378 5.03516C101.964 5.5918 102.257 6.48828 102.257 7.72461V14H100.815V7.82129C100.815 7.01855 100.631 6.41797 100.262 6.01953C99.8984 5.62109 99.3389 5.42188 98.583 5.42188C97.5166 5.42188 96.7666 5.72363 96.333 6.32715C95.8994 6.93066 95.6826 7.80664 95.6826 8.95508V14H94.2236V4.36719H95.4014L95.6211 5.75586H95.7002C95.9053 5.41602 96.166 5.13184 96.4824 4.90332C96.7988 4.66895 97.1533 4.49316 97.5459 4.37598C97.9385 4.25293 98.3516 4.19141 98.7852 4.19141ZM109.719 13.0859C109.719 12.6758 109.818 12.3857 110.018 12.2158C110.217 12.04 110.46 11.9521 110.747 11.9521C111.046 11.9521 111.298 12.04 111.503 12.2158C111.708 12.3857 111.811 12.6758 111.811 13.0859C111.811 13.4902 111.708 13.7861 111.503 13.9736C111.298 14.1553 111.046 14.2461 110.747 14.2461C110.46 14.2461 110.217 14.1553 110.018 13.9736C109.818 13.7861 109.719 13.4902 109.719 13.0859ZM109.719 5.29004C109.719 4.86816 109.818 4.57227 110.018 4.40234C110.217 4.22656 110.46 4.13867 110.747 4.13867C111.046 4.13867 111.298 4.22656 111.503 4.40234C111.708 4.57227 111.811 4.86816 111.811 5.29004C111.811 5.68848 111.708 5.97852 111.503 6.16016C111.298 6.3418 111.046 6.43262 110.747 6.43262C110.46 6.43262 110.217 6.3418 110.018 6.16016C109.818 5.97852 109.719 5.68848 109.719 5.29004Z" fill="black"/>
</svg>
