<svg width="25" height="25" viewBox="0 0 25 25" fill="none" xmlns="http://www.w3.org/2000/svg">
<path d="M18 1H7C3.96243 1 1.5 3.57436 1.5 6.75V18.25C1.5 21.4256 3.96243 24 7 24H18C21.0376 24 23.5 21.4256 23.5 18.25V6.75C23.5 3.57436 21.0376 1 18 1Z" stroke="#E2A856" stroke-width="2" stroke-linecap="round" stroke-linejoin="round"/>
<path d="M16.9009 11.7756C17.0366 12.7327 16.8802 13.7102 16.454 14.569C16.0277 15.4278 15.3533 16.1242 14.5266 16.5592C13.7 16.9942 12.7631 17.1456 11.8494 16.9919C10.9357 16.8382 10.0916 16.3872 9.43717 15.703C8.78276 15.0189 8.35136 14.1364 8.20432 13.1811C8.05729 12.2259 8.20212 11.2465 8.61821 10.3822C9.0343 9.51798 9.70045 8.8129 10.5219 8.36728C11.3434 7.92166 12.2784 7.75818 13.1939 7.9001C14.1277 8.04487 14.9922 8.49979 15.6597 9.19766C16.3272 9.89552 16.7624 10.7993 16.9009 11.7756Z" stroke="#E2A856" stroke-width="2" stroke-linecap="round" stroke-linejoin="round"/>
<path d="M18.5498 6.17554H18.5563" stroke="#E2A856" stroke-width="2" stroke-linecap="round" stroke-linejoin="round"/>
</svg>
