<svg width="26" height="19" viewBox="0 0 26 19" fill="none" xmlns="http://www.w3.org/2000/svg">
<path d="M25.5 2.25696C24.5806 2.62797 23.5802 2.89498 22.5496 2.99897C23.6196 2.40434 24.4208 1.46492 24.803 0.356964C23.799 0.915691 22.6991 1.30748 21.5522 1.51495C21.0728 1.03553 20.493 0.6536 19.8489 0.392961C19.2049 0.132323 18.5104 -0.00143844 17.8086 1.16653e-05C14.9694 1.16653e-05 12.686 2.15297 12.686 4.79498C12.686 5.16599 12.7341 5.53699 12.8122 5.89394C8.56093 5.68596 4.76932 3.78596 2.24859 0.876934C1.78928 1.61084 1.54859 2.44647 1.55156 3.2969C1.55156 4.96081 2.45589 6.42797 3.83494 7.29084C3.02225 7.26089 2.22859 7.05193 1.51851 6.68092V6.73995C1.51851 9.06998 3.27911 11.0009 5.62559 11.445C5.18501 11.552 4.73178 11.6068 4.27659 11.608C3.9431 11.608 3.62763 11.5771 3.30916 11.5349C3.95812 13.4349 5.84791 14.8149 8.09825 14.8599C6.33764 16.15 4.13238 16.9089 1.73783 16.9089C1.3082 16.9089 0.911609 16.8948 0.5 16.8499C2.77136 18.213 5.46635 19 8.36865 19C17.7906 19 22.9462 11.6979 22.9462 5.35992C22.9462 5.15193 22.9462 4.94394 22.9312 4.73596C23.9287 4.05297 24.803 3.20696 25.5 2.25696Z" fill="#E2A856"/>
</svg>
