<svg width="25" height="17" viewBox="0 0 25 17" fill="none" xmlns="http://www.w3.org/2000/svg">
<path d="M23.9991 2.65557C23.8625 2.14135 23.5946 1.6724 23.2223 1.29567C22.85 0.91894 22.3863 0.647638 21.8777 0.508917C20.0054 1.03264e-07 12.5 0 12.5 0C12.5 0 4.99464 -1.03264e-07 3.12232 0.50621C2.61345 0.644481 2.14953 0.915632 1.77716 1.29243C1.40479 1.66923 1.13707 2.13842 1.00089 2.65287C0.5 4.54777 0.5 8.5 0.5 8.5C0.5 8.5 0.5 12.4522 1.00089 14.3444C1.27679 15.3893 2.09107 16.2123 3.12232 16.4911C4.99464 17 12.5 17 12.5 17C12.5 17 20.0054 17 21.8777 16.4911C22.9116 16.2123 23.7232 15.3893 23.9991 14.3444C24.5 12.4522 24.5 8.5 24.5 8.5C24.5 8.5 24.5 4.54777 23.9991 2.65557ZM10.1161 12.1274V4.87261L16.3304 8.47293L10.1161 12.1274Z" fill="#E2A856"/>
</svg>
