<svg width="203" height="70" viewBox="0 0 203 70" fill="none" xmlns="http://www.w3.org/2000/svg">
<g clip-path="url(#clip0_505_7040)">
<path d="M67.2271 0V70H202.773V0H67.2271ZM70.3004 66.909V3.09102H199.728V66.909H70.3004Z" fill="#006271"/>
<path d="M0.555664 0V70H70.3006V0H0.555664ZM3.62898 66.909V3.09102H67.2273V66.909H3.62898Z" fill="#006271"/>
<path d="M94.9672 20.4347C95.204 20.2247 95.4085 19.9807 95.5743 19.7105C96.0056 18.9799 96.2211 18.1409 96.1956 17.2916C96.1993 16.6817 96.0958 16.0759 95.8896 15.5023C95.6789 14.9321 95.3445 14.4163 94.9107 13.9923C94.4429 13.5421 93.8843 13.1983 93.2728 12.9841C92.5638 12.735 91.8164 12.6148 91.0655 12.6291H81.4644V30.2947H91.6491C92.5019 30.3091 93.3502 30.168 94.1529 29.8782C94.8405 29.6264 95.4664 29.2293 95.9885 28.7137C96.4828 28.227 96.8624 27.635 97.0992 26.9812C97.3351 26.2963 97.4529 25.5759 97.4475 24.8511C97.4734 23.7148 97.115 22.6033 96.4309 21.6986C96.0376 21.1776 95.5387 20.7468 94.9672 20.4347ZM84.4529 19.2087V15.6538H90.9573C91.8091 15.6538 92.421 15.8195 92.7175 16.1272C92.8783 16.3006 93.0028 16.5048 93.0837 16.7276C93.1645 16.9504 93.2001 17.1873 93.1881 17.4242C93.2105 17.9017 93.0525 18.3702 92.7457 18.7354C92.4727 19.0478 91.9503 19.2087 91.1879 19.2087H84.4529ZM94.4165 24.7375C94.4449 25.4115 94.2082 26.0697 93.7576 26.5694C93.3293 27.0428 92.581 27.2605 91.5362 27.2605H84.4529V22.2477H91.442C91.9203 22.2365 92.3972 22.3036 92.854 22.4465C93.1817 22.5479 93.4847 22.7172 93.7435 22.9435C93.9649 23.1564 94.1354 23.417 94.2424 23.7056C94.3645 24.0355 94.4235 24.3856 94.4165 24.7375Z" fill="#006271"/>
<path d="M103.655 29.6368C103.655 29.0356 103.679 28.4534 103.726 27.9043C103.754 27.5398 103.792 27.1848 103.834 26.8298H113.285C113.327 27.1848 113.36 27.5445 113.393 27.9043C113.435 28.4534 113.459 29.0356 113.459 29.6368V30.2947H116.443V29.6368C116.461 27.183 116.107 24.7408 115.393 22.3944C115.11 21.4918 114.77 20.608 114.376 19.7483C113.986 18.8966 113.533 18.0754 113.021 17.2916C112.636 16.6782 112.215 16.0886 111.76 15.526C111.355 15.0526 110.983 14.6077 110.654 14.2716C110.392 13.9927 110.114 13.7302 109.821 13.4858C109.675 13.3628 109.576 13.287 109.538 13.2492L108.625 12.5486L107.731 13.1592L107.656 13.2208L107.373 13.4385C107.152 13.6136 106.903 13.855 106.535 14.1864C106.135 14.575 105.755 14.9842 105.396 15.4124C104.926 15.9684 104.492 16.5551 104.098 17.1685C103.081 18.7547 102.289 20.4752 101.744 22.2808C101.034 24.667 100.68 27.146 100.695 29.6368V30.2947H103.679L103.655 29.6368ZM112.668 23.8287H104.399C104.626 22.9635 104.921 22.1182 105.284 21.3009C105.652 20.4631 106.083 19.6545 106.573 18.8821C106.962 18.2487 107.407 17.6529 107.905 17.1023C108.136 16.8514 108.343 16.6289 108.531 16.4443C108.71 16.6337 108.917 16.8561 109.143 17.1117C109.635 17.687 110.086 18.296 110.494 18.9342C110.97 19.7219 111.399 20.5376 111.778 21.3767C112.138 22.1695 112.435 22.9893 112.668 23.8287Z" fill="#006271"/>
<path d="M123.263 16.151C123.488 16.222 123.733 16.3119 124.006 16.4066C124.692 16.6655 125.351 16.9921 125.973 17.3817C128.306 18.7853 130.181 20.8434 131.367 23.3034V30.2949H134.374V12.6529H131.367V17.9876C130.247 16.727 128.941 15.6476 127.494 14.7877C126.827 14.3802 126.13 14.0257 125.409 13.7274C124.838 13.4911 124.255 13.2856 123.663 13.112C123.253 12.9876 122.837 12.888 122.415 12.8138C122.238 12.7779 122.059 12.7526 121.879 12.7381L120.274 12.615V30.2949H123.263V16.151Z" fill="#006271"/>
<path d="M145.152 20.4348L145.039 20.681C144.997 20.6005 144.959 20.5153 144.917 20.4348L140.681 12.6765H137.283L143.458 23.9897V30.2617H146.536V23.9187L152.612 12.6765H149.317L145.152 20.4348Z" fill="#006271"/>
<path d="M156.448 29.6368C156.448 29.0356 156.448 28.4534 156.513 27.9043C156.542 27.5398 156.579 27.1848 156.622 26.8298H166.072C166.115 27.1848 166.148 27.5445 166.18 27.9043C166.223 28.4534 166.246 29.0356 166.246 29.6368V30.2947H169.23V29.6368C169.241 27.1818 168.879 24.7396 168.157 22.3944C167.882 21.4923 167.55 20.6085 167.164 19.7483C166.774 18.8966 166.321 18.0754 165.809 17.2916C165.424 16.6782 165.003 16.0886 164.547 15.526C164.143 15.0526 163.771 14.6077 163.446 14.2716C163.183 13.9924 162.903 13.73 162.608 13.4858C162.462 13.3628 162.364 13.287 162.326 13.2492L161.413 12.5486L160.519 13.1592L160.443 13.2208L160.166 13.4385C159.864 13.6768 159.575 13.9312 159.3 14.2006C158.9 14.5881 158.521 14.9974 158.165 15.4266C157.699 15.982 157.272 16.5688 156.885 17.1827C155.861 18.7676 155.061 20.4882 154.508 22.295C153.798 24.6812 153.445 27.1602 153.459 29.651V30.2947H156.448V29.6368ZM165.456 23.8287H157.186C157.413 22.9635 157.709 22.1182 158.071 21.3009C158.44 20.4631 158.871 19.6545 159.361 18.8821C159.749 18.2487 160.195 17.6529 160.693 17.1023C160.923 16.8514 161.13 16.6289 161.319 16.4443C161.498 16.6337 161.705 16.8561 161.931 17.1117C162.422 17.687 162.874 18.296 163.281 18.9342C163.757 19.7219 164.187 20.5376 164.566 21.3767C164.926 22.1695 165.223 22.9893 165.456 23.8287Z" fill="#006271"/>
<path d="M176.05 16.151C176.281 16.222 176.521 16.3119 176.798 16.4066C177.484 16.6674 178.143 16.994 178.766 17.3817C181.096 18.7871 182.969 20.8448 184.155 23.3034V30.2949H187.162V12.6529H184.155V17.9876C183.035 16.727 181.728 15.6476 180.281 14.7877C179.615 14.3802 178.918 14.0257 178.196 13.7274C177.626 13.4911 177.043 13.2856 176.45 13.112C176.041 12.9876 175.624 12.888 175.203 12.8138C175.026 12.7779 174.847 12.7526 174.666 12.7381L173.062 12.615V30.2949H176.05V16.151Z" fill="#006271"/>
<path d="M94.9672 47.5629C95.2001 47.3581 95.4044 47.1224 95.5743 46.8623C96.006 46.1302 96.2215 45.2895 96.1956 44.4387C96.1986 43.8289 96.095 43.2233 95.8896 42.6495C95.6767 42.0804 95.3426 41.565 94.9107 41.1395C94.4439 40.6823 93.8855 40.3305 93.2728 40.1075C92.5633 39.8607 91.8162 39.7406 91.0655 39.7525H81.4644V57.4371H91.6491C92.5019 57.4515 93.3502 57.3104 94.153 57.0206C94.8397 56.7672 95.4653 56.3703 95.9885 55.8561C96.4859 55.358 96.8641 54.7526 97.0945 54.0858C97.3299 53.4007 97.4477 52.6804 97.4428 51.9556C97.4702 50.8191 97.1116 49.7071 96.4262 48.8031C96.0332 48.2899 95.5358 47.8671 94.9672 47.5629ZM84.4529 46.3369V42.7773H90.9573C91.8091 42.7773 92.421 42.9429 92.7175 43.2506C92.878 43.4252 93.0023 43.6303 93.0831 43.8538C93.1639 44.0773 93.1996 44.3148 93.1881 44.5524C93.2105 45.0299 93.0525 45.4983 92.7457 45.8635C92.4728 46.1712 91.9503 46.3369 91.1879 46.3369H84.4529ZM94.4165 51.861C94.4459 52.5351 94.2091 53.1937 93.7576 53.6929C93.3293 54.1662 92.581 54.3887 91.5362 54.3887H84.4529V49.3617H91.442C91.9203 49.3505 92.3972 49.4176 92.854 49.5605C93.1846 49.6622 93.4885 49.8369 93.7435 50.0717C93.9659 50.2837 94.1366 50.5445 94.2424 50.8338C94.3641 51.1621 94.4232 51.5106 94.4165 51.861Z" fill="#006271"/>
<path d="M117.299 46.8624C116.908 46.0097 116.455 45.187 115.944 44.401C115.558 43.7884 115.137 43.1988 114.683 42.6354C114.278 42.162 113.911 41.7218 113.581 41.381C113.317 41.103 113.038 40.8407 112.744 40.5952L112.461 40.3633L111.548 39.658L110.654 40.2733L110.579 40.3349L110.301 40.5526C110.007 40.7851 109.726 41.0332 109.458 41.2958C108.539 42.1922 107.729 43.1948 107.044 44.2827C106.027 45.8682 105.235 47.5889 104.691 49.3949C103.977 51.7854 103.618 54.269 103.627 56.7651V57.4136H106.611V56.7651C106.611 56.1639 106.611 55.5817 106.677 55.0326C106.705 54.6681 106.743 54.3083 106.785 53.9581H116.236C116.278 54.3131 116.316 54.6728 116.344 55.0326C116.386 55.5817 116.41 56.1639 116.41 56.7651V57.4136H119.394V56.7651C119.404 54.3086 119.042 51.8649 118.321 49.518C118.036 48.6122 117.695 47.7253 117.299 46.8624ZM115.614 50.9428H107.345C107.57 50.0739 107.866 49.2253 108.23 48.4056C108.596 47.5667 109.028 46.758 109.52 45.9867C109.907 45.3526 110.353 44.7566 110.852 44.2069C111.082 43.956 111.294 43.7336 111.477 43.5442C111.656 43.7383 111.863 43.9608 112.089 44.2164C112.582 44.7877 113.033 45.3936 113.44 46.0293C113.917 46.8149 114.346 47.629 114.725 48.4671C115.087 49.272 115.384 50.1046 115.614 50.957V50.9428Z" fill="#006271"/>
<path d="M122.716 42.7772H129.169V57.3661H132.176V42.7772H138.629V39.7761H122.716V42.7772Z" fill="#006271"/>
<path d="M147.905 39.7761H144.921V57.4087H147.905V39.7761Z" fill="#006271"/>
<path d="M170.078 55.7898C169.951 55.5721 169.814 55.3543 169.673 55.1271C168.511 53.3308 166.988 51.799 165.202 50.6302C164.857 50.3998 164.497 50.1942 164.124 50.0149C163.912 49.9107 163.696 49.8113 163.475 49.7119C163.813 49.4894 164.152 49.2386 164.472 49.0019C166.155 47.667 167.537 45.9873 168.525 44.0742C168.834 43.4906 169.11 42.8901 169.353 42.2755C169.584 41.698 169.786 41.1394 169.96 40.6187L170.242 39.762H167.117L166.957 40.1785C166.807 40.5793 166.642 40.9958 166.463 41.4282C166.285 41.8608 166.082 42.2828 165.856 42.692C164.143 45.8777 161.808 47.7712 158.74 48.4528V39.762H155.732V57.3992H158.74V51.6243C159.565 51.6706 160.383 51.8103 161.178 52.0408C163.531 52.7698 165.545 54.3556 167.141 56.7744V56.8028C167.179 56.8502 167.207 56.8975 167.235 56.9401L167.395 57.1768L167.593 57.4371H171L170.459 56.4383C170.327 56.2206 170.205 56.0028 170.078 55.7898Z" fill="#006271"/>
<path d="M187.077 49.2813C186.661 48.797 186.175 48.3775 185.637 48.0363C185.034 47.6535 184.405 47.315 183.754 47.0234L182.436 46.4175C182.04 46.2433 181.655 46.0441 181.283 45.821C181.029 45.6744 180.795 45.4945 180.587 45.2861C180.44 45.1353 180.328 44.9545 180.257 44.756C180.177 44.5119 180.139 44.2557 180.144 43.9986C180.129 43.7679 180.164 43.5366 180.245 43.3203C180.326 43.1039 180.452 42.9075 180.615 42.7442C181.039 42.3965 181.58 42.2269 182.126 42.2709C182.657 42.2397 183.184 42.3789 183.632 42.6685C184.042 42.9758 184.393 43.356 184.667 43.7903L185.011 44.3347L187.505 42.7679L187.176 42.2188C186.689 41.3996 186.021 40.7047 185.223 40.1881C184.289 39.627 183.213 39.3492 182.126 39.3881C181.455 39.3818 180.787 39.4923 180.154 39.7147C179.566 39.9225 179.024 40.2441 178.558 40.6614C178.088 41.0889 177.715 41.6124 177.462 42.197C177.21 42.7815 177.084 43.4135 177.095 44.0507C177.085 44.6575 177.18 45.2615 177.377 45.8352C177.563 46.3552 177.842 46.8365 178.201 47.2553C178.577 47.6813 179.013 48.0497 179.495 48.3488C180.025 48.6775 180.574 48.9762 181.137 49.2434L182.465 49.8493C183.258 50.168 183.991 50.6194 184.634 51.1842C184.835 51.3915 184.99 51.639 185.09 51.9105C185.19 52.182 185.232 52.4716 185.213 52.7604C185.222 53.073 185.156 53.383 185.02 53.6646C184.885 53.9313 184.694 54.1654 184.46 54.3509C184.196 54.5635 183.894 54.7241 183.571 54.8243C183.192 54.9401 182.799 54.9976 182.403 54.9947C181.942 55.0023 181.482 54.9417 181.039 54.8148C180.687 54.712 180.355 54.5521 180.055 54.3415C179.77 54.1368 179.514 53.8948 179.293 53.622C179.066 53.3468 178.869 53.0486 178.704 52.732L178.408 52.1593L175.814 53.4894L176.087 54.0574C176.329 54.5664 176.633 55.0434 176.991 55.4775C177.383 55.9461 177.841 56.3543 178.351 56.6893C178.914 57.0575 179.528 57.3399 180.173 57.5271C180.927 57.7444 181.709 57.8481 182.493 57.8348C183.255 57.8425 184.014 57.7307 184.743 57.5035C185.414 57.2933 186.04 56.9577 186.588 56.5142C187.124 56.0728 187.554 55.5143 187.844 54.8811C188.146 54.2143 188.297 53.4884 188.287 52.7557C188.293 52.1116 188.19 51.4712 187.981 50.8623C187.776 50.2851 187.47 49.7496 187.077 49.2813Z" fill="#006271"/>
<path d="M40.09 22.3708C40.2736 25.7364 40.9278 29.6132 37.2944 36.1218C35.0024 40.2258 34.047 42.6778 34.2964 46.4173C34.5458 50.1568 35.5201 51.0941 35.8825 55.0324C36.259 59.1601 35.6377 62.3505 36.659 63.7706C37.0261 64.2818 38.8052 64.1445 39.5111 64.1445C40.2171 64.1445 40.7301 63.7091 40.2312 62.502C39.7324 61.2949 37.1862 57.3471 39.017 54.507C40.8478 51.6669 42.9139 51.061 46.8626 50.8527C50.8113 50.6444 53.9788 50.8243 56.1202 50.2326C58.2617 49.6409 59.5889 48.9119 60.709 47.7096C61.8292 46.5073 62.8646 44.3156 62.9634 43.189C63.0623 42.0624 63.1187 41.0211 62.7846 40.8459C62.7049 40.816 62.6201 40.8025 62.5352 40.8062C62.4503 40.8098 62.367 40.8306 62.2902 40.8672C62.2134 40.9039 62.1447 40.9556 62.0881 41.0195C62.0316 41.0833 61.9883 41.1579 61.9609 41.2388C61.8088 42.8673 61.15 44.406 60.0784 45.6363C59.2133 46.6525 58.0356 47.3489 56.7321 47.6149C56.6812 47.6247 56.6285 47.6173 56.5822 47.5938C56.5359 47.5704 56.4986 47.5323 56.476 47.4853C56.4535 47.4384 56.447 47.3853 56.4576 47.3343C56.4681 47.2832 56.4951 47.2371 56.5344 47.2031C57.2956 46.6055 57.943 45.8742 58.4452 45.0446C59.2312 43.6245 59.5465 42.7393 59.3865 42.4601C59.2265 42.1808 58.8782 42.0293 58.5064 42.7157C57.9119 43.9131 57.0018 44.9234 55.8755 45.6363C54.1529 46.8197 51.955 48.3013 48.1098 48.4196C44.9942 48.5143 42.5986 48.609 41.1208 48.9782C40.8901 49.0397 40.6501 48.8362 40.8525 48.448C41.229 47.6291 43.4269 46.6351 45.799 46.6209C49.3853 46.6209 52.388 45.8682 54.2188 44.647C55.7767 43.6103 56.4591 43.0944 55.9131 42.692C55.2872 42.2187 53.5223 43.9227 51.1502 44.4529C49.8816 44.7203 48.5868 44.841 47.2909 44.8126C47.2372 44.8145 47.1845 44.7974 47.1419 44.7643C47.0994 44.7312 47.0697 44.6842 47.058 44.6314C47.0462 44.5786 47.0532 44.5234 47.0777 44.4752C47.1022 44.4271 47.1427 44.389 47.1921 44.3677C48.6605 43.6719 51.7762 42.2991 53.9553 42.0672C56.8968 41.75 58.817 41.8305 60.5066 40.2542C62.1963 38.6779 62.7705 37.6366 63.2129 36.1123C63.6835 34.4177 64.4836 32.3634 63.8435 32.1882C63.3446 32.0509 62.9352 32.1882 62.3892 33.5278C61.8433 34.8674 61.7868 36.4484 60.3749 37.9442C59.0712 39.3122 57.5039 40.0459 54.8824 39.7619C54.8349 39.7561 54.7903 39.7358 54.7545 39.7037C54.7188 39.6717 54.6936 39.6294 54.6823 39.5826C54.6711 39.5358 54.6743 39.4866 54.6915 39.4417C54.7088 39.3968 54.7393 39.3582 54.7789 39.3312C55.8096 38.6827 57.9793 37.1963 59.1512 35.5159C60.7184 33.2675 62.2998 30.4983 62.4975 27.644C62.6951 24.7897 62.3657 23.9613 61.5562 23.9991C60.7467 24.037 60.8173 25.1683 60.7373 26.6689C60.6667 28.0889 60.3513 30.7397 58.8076 32.3492C58.7762 32.3834 58.7353 32.4073 58.6902 32.4178C58.6451 32.4283 58.5979 32.4249 58.5547 32.408C58.5116 32.3912 58.4744 32.3617 58.4482 32.3233C58.4219 32.2849 58.4078 32.2395 58.4076 32.193C58.4076 31.4687 59.1935 27.644 59.3206 25.566C59.523 22.2241 59.4477 20.3117 59.2218 19.6064C58.9629 18.7922 58.5629 18.1863 58.1628 18.2526C57.4663 18.3662 57.3957 18.797 57.551 20.146C57.8917 22.8236 57.8187 25.538 57.3345 28.1931C56.9627 30.2948 56.7038 33.0639 56.0355 34.2805C55.3672 35.497 55.0283 37.2863 51.9644 39.104C51.9213 39.1272 51.872 39.136 51.8236 39.1291C51.7752 39.1223 51.7302 39.1002 51.6951 39.0659C51.66 39.0317 51.6366 38.9871 51.6283 38.9386C51.6201 38.8902 51.6273 38.8403 51.6491 38.7963C52.2798 37.4283 53.7058 33.9491 54.0023 32.6142C54.393 30.825 54.4259 29.8877 54.1012 29.7457C53.7764 29.6037 53.6305 30.0676 53.5128 30.4936C53.3952 30.9196 51.6303 36.5194 48.4063 39.9229C48.3732 39.9556 48.3311 39.9777 48.2855 39.9864C48.2398 39.9951 48.1926 39.99 48.1498 39.9718C48.1071 39.9536 48.0706 39.923 48.0451 39.884C48.0195 39.845 48.006 39.7992 48.0063 39.7525C48.0298 38.2851 48.3075 34.2615 50.5996 31.535C53.4517 28.141 54.5106 26.4511 54.953 25.3009C55.3954 24.1506 55.6213 22.3045 55.0189 22.1199C54.4165 21.9353 53.7388 24.1412 53.2399 25.263C52.3232 27.1975 50.9358 28.8679 49.2064 30.1197C49.1712 30.1436 49.1301 30.1575 49.0876 30.1599C49.0452 30.1623 49.0028 30.153 48.9652 30.1331C48.9275 30.1132 48.8959 30.0833 48.8738 30.0468C48.8516 30.0103 48.8397 29.9684 48.8393 29.9256C48.8677 28.3516 49.359 26.8214 50.2513 25.5281C51.8985 23.1613 55.0848 20.3212 55.6637 18.778C56.2426 17.2349 56.5203 16.0515 56.0543 15.1379C55.4754 13.9924 54.4588 13.3155 54.2518 14.4279C54.12 15.1379 54.5906 16.2692 54.0164 17.3485C53.4408 18.5092 52.7264 19.5949 51.8891 20.5815C51.8568 20.6135 51.816 20.6354 51.7716 20.6446C51.7272 20.6538 51.6812 20.6499 51.6389 20.6334C51.5967 20.6169 51.56 20.5885 51.5335 20.5516C51.5069 20.5147 51.4915 20.4708 51.4891 20.4253C51.4514 19.2561 51.5738 16.4302 51.6397 15.7438C51.7526 14.532 52.5386 13.3486 52.2892 12.8516C51.715 11.6824 51.0561 11.3274 50.8019 11.5073C50.1054 12.009 49.9124 13.0599 49.8606 15.242C49.8089 17.4242 50.256 22.1436 48.5146 23.7625C48.4903 23.7857 48.4612 23.8035 48.4295 23.8145C48.3978 23.8256 48.3641 23.8297 48.3306 23.8266C48.2972 23.8234 48.2648 23.8131 48.2357 23.7964C48.2065 23.7796 48.1813 23.7567 48.1616 23.7293C47.9216 23.3838 47.611 22.3093 48.0581 18.8632C48.7123 13.8409 48.9994 10.1061 47.8227 9.13101C46.6461 8.15589 46.0719 9.21148 46.2037 9.7369C46.8291 11.6631 47.0518 13.6985 46.8579 15.7154C46.8508 15.7862 46.8198 15.8523 46.7702 15.903C46.7206 15.9537 46.6553 15.9858 46.585 15.9941C46.5148 16.0024 46.4439 15.9863 46.384 15.9485C46.324 15.9108 46.2787 15.8536 46.2555 15.7864C45.8554 14.958 45.6625 14.3285 45.3707 13.5995C44.9382 12.5879 44.6742 11.5116 44.5894 10.4138C44.5141 9.25881 44.74 8.26003 44.6647 7.96655C44.5518 7.52633 43.2528 7.12397 42.8104 7.62573C42.368 8.12749 43.0175 11.7818 43.8034 14.1723C44.5894 16.5627 46.472 21.2726 46.3637 26.9813C46.2649 32.5953 47.0603 40.2353 42.6598 43.0754C42.6073 43.1116 42.5464 43.1336 42.4831 43.1394C42.4197 43.1452 42.3559 43.1345 42.2978 43.1083C42.2397 43.0822 42.1893 43.0415 42.1513 42.9902C42.1133 42.9388 42.0891 42.8785 42.0809 42.8151C41.9799 42.5261 41.9395 42.2192 41.9621 41.9137C41.9848 41.6082 42.0701 41.3107 42.2127 41.04C42.9939 39.246 43.3704 38.9856 43.6246 38.7158C43.7705 38.5596 43.9635 38.2756 43.714 38.091C43.4646 37.9064 42.1562 38.4129 41.389 39.4069C40.6548 40.324 40.1337 41.3947 39.8641 42.5405C39.4406 44.3109 39.8077 44.7416 38.6499 46.8007C38.6095 46.8658 38.5514 46.9179 38.4826 46.9508C38.4137 46.9838 38.337 46.9963 38.2613 46.9868C38.1856 46.9774 38.1142 46.9464 38.0555 46.8975C37.9968 46.8486 37.9531 46.7838 37.9298 46.7108C37.5768 45.6931 37.0826 44.3914 37.8168 42.6967C38.8617 40.2779 39.7512 37.9632 41.5302 35.7242C43.3093 33.4852 45.9072 29.3481 44.7965 22.2477C44.0811 17.6467 43.7752 16.9698 43.441 16.5674C43.0457 16.0941 42.6221 16.3166 42.4668 16.7899C42.3115 17.2633 42.4668 17.9165 42.8574 19.6632C43.3281 21.8217 44.2694 26.4133 42.0385 29.6747C42.013 29.7113 41.9777 29.7398 41.9367 29.7571C41.8957 29.7743 41.8506 29.7795 41.8068 29.7721C41.763 29.7647 41.7221 29.7449 41.689 29.7151C41.6559 29.6853 41.6318 29.6467 41.6196 29.6037C41.5277 29.1588 41.5277 28.6996 41.6196 28.2546C42.0314 25.6378 42.0362 22.9726 41.6338 20.3543C41.0831 16.6432 40.3771 12.3072 40.4807 10.8351C40.5842 9.36295 40.796 7.44112 39.8547 6.93936C38.9134 6.43761 38.1275 6.93937 38.0757 7.93815C38.0038 9.48298 38.0747 11.0312 38.2875 12.5628C38.5416 14.674 39.9065 19.0052 40.09 22.3708Z" fill="#006271"/>
<path d="M14.2422 41.9866C18.9486 42.2754 24.1257 43.5156 24.361 44.8268C24.5964 46.138 20.5441 45.4043 19.1839 44.8788C17.8238 44.3534 14.7928 42.46 14.3222 42.7724C13.8515 43.0848 15.9459 45.6126 18.3744 46.1427C20.7534 46.6771 23.163 47.0628 25.5894 47.2977C27.8156 47.506 29.9052 48.6231 29.8252 49.2432C29.6982 50.294 28.3098 48.4527 24.3893 48.2965C20.4688 48.1403 17.3014 47.9036 14.7411 45.9581C12.1807 44.0126 10.4394 41.6553 9.49806 41.75C8.55677 41.8446 10.0723 43.5345 10.5947 44.0883C11.023 44.5617 12.4302 46.0812 12.9479 46.6303C12.967 46.6503 12.9796 46.6757 12.9841 46.703C12.9885 46.7304 12.9847 46.7585 12.9729 46.7836C12.9612 46.8087 12.9422 46.8297 12.9184 46.8437C12.8946 46.8577 12.8672 46.8642 12.8396 46.8622C12.4396 46.8291 11.5736 46.5498 9.90753 45.1913C8.9427 44.4008 7.76609 42.3227 7.34721 42.957C6.92834 43.5913 8.36851 46.5782 11.2112 47.8089C14.2469 49.1438 17.1508 50.152 20.963 50.3698C25.7824 50.6443 31.016 51.8609 31.5525 54.9093C32.089 57.9577 32.0231 59.5245 31.1477 61.257C30.2723 62.9895 29.8111 64.1255 31.5243 64.1255C32.795 64.1255 33.5104 64.2533 33.981 63.7563C34.574 63.1267 34.6399 61.3895 34.6635 59.799C34.5804 56.8423 34.2656 53.8968 33.7222 50.9899C33.1715 48.358 31.4443 44.4954 33.7222 40.0506C36.0001 35.6058 39.7417 31.3976 38.8993 22.8488C38.1745 15.2751 37.2426 15.171 36.7108 15.3319C36.3437 15.4408 36.4096 16.9697 36.7108 19.0336C37.0779 21.4808 37.6521 26.844 35.6236 30.2095C35.5858 30.2743 35.5318 30.3281 35.467 30.3654C35.4022 30.4028 35.3288 30.4224 35.2541 30.4224C35.1794 30.4224 35.106 30.4028 35.0412 30.3654C34.9764 30.3281 34.9225 30.2743 34.8847 30.2095C34.3246 29.2013 33.2562 26.5315 33.548 24.2074C33.9434 21.1021 34.6211 20.8134 34.5223 20.4205C34.4234 20.0276 34.0046 20.075 33.5198 20.643C33.035 21.211 31.9102 23.4831 32.2255 26.6451C32.522 29.6273 33.5386 32.013 32.1314 34.2189C32.1076 34.2559 32.0741 34.2855 32.0345 34.3044C31.9949 34.3233 31.9509 34.3307 31.9074 34.3258C31.8638 34.3208 31.8225 34.3038 31.7881 34.2765C31.7537 34.2493 31.7275 34.2129 31.7125 34.1715C31.4678 33.4284 30.9548 31.9231 30.63 31.2036C30.1594 30.2332 29.4958 27.6913 29.8158 25.6795C30.1379 23.551 31.0221 21.5484 32.3761 19.8809C33.7881 17.9543 36.2495 13.2539 36.6119 10.4421C37.0402 7.35586 36.7908 7.01031 35.7977 7.12865C34.8047 7.24699 34.3858 9.18775 34.0563 10.4421C33.3875 12.702 32.5731 14.9157 31.6184 17.0691C31.081 18.1403 30.451 19.162 29.7358 20.1223C29.7061 20.1618 29.6645 20.1907 29.6172 20.2047C29.57 20.2187 29.5195 20.2172 29.4732 20.2002C29.4269 20.1833 29.3872 20.1519 29.3599 20.1106C29.3326 20.0693 29.3192 20.0203 29.3216 19.9708C29.3452 18.4513 29.3216 14.2905 30.0747 11.8101C31.016 8.73333 31.6702 7.61148 30.8607 7.07658C30.0511 6.54169 28.2439 9.04575 27.5379 12.3876C26.8319 15.7295 26.8319 20.5104 27.0249 24.179C27.1715 26.5996 27.486 29.0069 27.9662 31.3835C27.9743 31.4305 27.9681 31.479 27.9483 31.5225C27.9286 31.5659 27.8962 31.6024 27.8554 31.6269C27.8147 31.6515 27.7675 31.6631 27.72 31.6602C27.6726 31.6573 27.6271 31.64 27.5897 31.6107C26.9811 31.0616 26.5239 30.3638 26.2624 29.5847C25.5565 27.6913 25.6694 25.5091 25.3682 25.4428C24.9494 25.3529 24.5164 25.4902 24.5917 27.3599C24.667 29.2297 24.5399 31.0332 27.1284 33.8449C29.717 36.6566 30.0559 36.8413 29.9241 39.208C29.8064 41.3381 29.5711 41.9582 29.8911 44.5191C29.9382 44.9167 29.2322 45.1723 28.9498 44.5475C28.6674 43.9227 28.6063 44.0315 28.5639 42.815C28.4886 40.524 28.2956 40.15 27.9332 39.3784C27.3449 38.124 26.3236 37.059 25.9706 37.2909C25.6177 37.5229 25.8483 38.2376 26.0318 38.6211C26.4 39.3724 26.672 40.1677 26.8413 40.9879C27.039 42.0434 26.6437 42.5689 25.9801 42.086C25.3165 41.6032 23.9375 40.1926 23.5986 33.026C23.128 23.6677 24.1445 18.7732 24.9305 16.094C25.7165 13.4148 28.1921 8.99368 27.2037 8.57239C26.1118 8.09903 25.4812 8.49192 25.2459 9.4907C25.0105 10.4895 24.3657 14.229 23.0574 16.5674C23.0344 16.6059 23.001 16.637 22.9612 16.6571C22.9213 16.6773 22.8765 16.6856 22.8321 16.6811C22.7877 16.6767 22.7455 16.6596 22.7104 16.6319C22.6753 16.6042 22.6487 16.5671 22.6338 16.5248C22.2907 15.4138 22.2469 14.2312 22.5067 13.0977C22.9773 10.6788 22.8456 9.68004 22.1678 9.70845C21.4901 9.73685 20.4688 12.364 20.8312 14.9154C21.1936 17.4668 21.6454 19.0146 21.4619 20.5956C21.3018 21.9778 21.3301 22.5837 20.9677 23.1423C20.9462 23.1708 20.9184 23.1938 20.8866 23.2097C20.8547 23.2256 20.8197 23.2338 20.7841 23.2338C20.7486 23.2338 20.7135 23.2256 20.6817 23.2097C20.6499 23.1938 20.6221 23.1708 20.6006 23.1423C20.2241 22.7116 19.7581 22.0157 19.0616 19.0951C18.7133 17.675 18.4027 16.4017 18.7086 14.8349C19.0145 13.2681 19.6075 12.4302 19.0757 12.2172C18.7792 12.0989 17.3673 13.571 17.3767 15.7579C17.3767 19.2087 18.7886 21.2063 17.8144 21.7885C16.8401 22.3707 15.3717 20.0655 15.3953 18.1153C15.3953 16.7473 15.5506 15.9 15.0281 15.9C14.5057 15.9 13.828 17.0691 14.2045 19.1566C14.5481 21.1305 15.4329 22.6311 18.205 24.5245C20.9771 26.4179 21.2642 29.4285 20.7559 29.9018C20.2476 30.3752 17.5084 28.1504 16.3554 26.773C14.7363 24.8369 14.1339 21.7459 13.6633 21.8216C13.1926 21.8974 12.6796 24.3778 15.0234 28.0652C17.2402 31.5539 22.3749 32.3254 21.6125 37.911C21.4289 39.279 20.2005 39.1702 19.2592 38.4838C17.8554 37.407 16.79 35.9459 16.1906 34.2757C14.854 30.858 14.8352 29.277 14.3081 29.2013C13.555 29.0924 13.508 30.7681 13.8139 32.1882C14.1622 33.8165 15.4141 36.5951 16.6378 38.4838C16.6647 38.5246 16.6781 38.573 16.6761 38.622C16.674 38.671 16.6565 38.718 16.6262 38.7564C16.5959 38.7948 16.5543 38.8225 16.5073 38.8356C16.4603 38.8487 16.4104 38.8465 16.3648 38.8293C15.6588 38.5832 14.4822 37.8826 13.6492 36.0791C12.2681 32.9457 11.5255 29.5656 11.4654 26.1387C11.4983 23.876 11.6395 22.4654 11.936 21.6465C12.1949 20.9554 12.2937 19.8335 11.8842 19.6679C11.3006 19.4359 10.5805 20.1412 10.1899 21.5613C9.79928 22.9814 9.80869 25.4286 9.93106 27.7717C10.129 29.8255 10.5134 31.8568 11.0794 33.8402C11.0897 33.8849 11.0843 33.9318 11.064 33.973C11.0438 34.0142 11.01 34.047 10.9684 34.066C10.9269 34.0849 10.88 34.0888 10.8359 34.077C10.7918 34.0652 10.7531 34.0384 10.7264 34.0011C10.1731 33.183 9.70025 32.3126 9.31451 31.4024C8.13319 28.69 8.52853 26.1434 7.78491 26.0345C6.92834 25.8925 6.87186 27.6865 7.18249 29.2675C7.34721 30.0912 8.88152 36.917 13.235 39.511C13.2849 39.536 13.3241 39.5782 13.3453 39.63C13.3666 39.6818 13.3685 39.7396 13.3507 39.7927C13.333 39.8458 13.2967 39.8906 13.2486 39.9189C13.2005 39.9471 13.1438 39.9569 13.0891 39.9465C12.2382 39.834 11.4291 39.5085 10.7359 38.9998C7.83198 36.7892 8.23673 34.4745 7.32368 34.3467C6.41063 34.2189 6.81539 36.543 7.32368 37.4992C7.90258 38.569 9.56395 41.6979 14.2422 41.9866Z" fill="#006271"/>
</g>
<defs>
<clipPath id="clip0_505_7040">
<rect width="202.222" height="70" fill="white" transform="translate(0.555664)"/>
</clipPath>
</defs>
</svg>
