<svg width="157" height="80" viewBox="0 0 157 80" fill="none" xmlns="http://www.w3.org/2000/svg">
<g clip-path="url(#clip0_505_7299)">
<g clip-path="url(#clip1_505_7299)">
<path d="M0.809597 62.8981V16.7367C0.808425 16.5138 0.85129 16.2928 0.935726 16.0864C1.02016 15.8801 1.1445 15.6925 1.30161 15.5344C1.45871 15.3763 1.64548 15.2509 1.85118 15.1653C2.05688 15.0797 2.27745 15.0356 2.50021 15.0356H29.6034C30.0321 15.0263 30.4523 15.1556 30.8017 15.4042C31.1512 15.6529 31.4112 16.0078 31.5431 16.4161C31.6108 16.6911 31.6163 16.9777 31.5594 17.2551C31.5025 17.5325 31.3845 17.7937 31.214 18.0198C31.0436 18.2458 30.825 18.431 30.5741 18.5618C30.3232 18.6927 30.0463 18.766 29.7636 18.7763H6.62886C6.19464 18.7763 5.77821 18.9489 5.47117 19.2563C5.16413 19.5636 4.99164 19.9804 4.99164 20.415V35.1194C4.99164 35.5398 5.1585 35.943 5.45553 36.2403C5.75256 36.5377 6.15542 36.7047 6.57547 36.7047H25.8752C26.3072 36.6971 26.73 36.8302 27.0798 37.084C27.4297 37.3378 27.6877 37.6986 27.8149 38.1119C27.884 38.3922 27.8882 38.6845 27.8273 38.9667C27.7664 39.2489 27.642 39.5134 27.4635 39.7402C27.285 39.9669 27.0572 40.1499 26.7973 40.2752C26.5375 40.4005 26.2525 40.4648 25.9641 40.4631H6.67335C6.20138 40.4631 5.74873 40.6508 5.41499 40.9849C5.08125 41.3189 4.89376 41.772 4.89376 42.2444V62.9605C4.89866 63.5056 4.68993 64.031 4.31234 64.4239C3.93475 64.8169 3.41837 65.0461 2.87393 65.0623C2.31685 65.0393 1.79043 64.8009 1.40542 64.3972C1.0204 63.9936 0.806817 63.4562 0.809597 62.8981Z" fill="#231F20"/>
<path d="M41.8648 62.8446V17.3066C41.8481 16.7511 42.0412 16.2096 42.4057 15.7903C42.7702 15.371 43.2792 15.1047 43.8312 15.0444C44.1169 15.0305 44.4024 15.0764 44.6693 15.1793C44.9363 15.2821 45.1788 15.4395 45.3815 15.6416C45.5842 15.8436 45.7425 16.0857 45.8463 16.3525C45.9502 16.6193 45.9972 16.9048 45.9845 17.1908V62.8802C45.9943 63.4334 45.7876 63.9685 45.4085 64.3712C45.0294 64.774 44.5081 65.0124 43.9558 65.0355C43.3909 65.0147 42.8564 64.7741 42.4659 64.365C42.0754 63.9558 41.8598 63.4104 41.8648 62.8446Z" fill="#231F20"/>
<path d="M100.654 42.387V55.3011C100.577 56.3199 100.171 57.2859 99.4969 58.0531C97.2414 60.2856 94.5666 62.0488 91.6267 63.2412C88.6869 64.4335 85.5402 65.0313 82.3684 65.0001C68.8524 65.0001 57.9346 54.8736 57.9346 39.9644C57.9346 25.0553 68.8524 15.0268 82.3684 15.0268C85.4864 14.9394 88.5893 15.4917 91.486 16.6497C94.3828 17.8076 97.0121 19.5467 99.2122 21.7599C99.3867 21.9263 99.5225 22.129 99.6102 22.3537C99.6978 22.5784 99.7351 22.8196 99.7194 23.0603C99.7322 23.3206 99.6903 23.5807 99.5964 23.8237C99.5024 24.0668 99.3585 24.2874 99.174 24.4713C98.9894 24.6551 98.7684 24.7981 98.5251 24.8911C98.2819 24.984 98.0218 25.0248 97.7618 25.0108C97.2819 25.0119 96.8188 24.8341 96.4627 24.512C92.7032 20.818 87.6365 18.7626 82.3684 18.7941C71.0146 18.7941 62.2679 27.4065 62.2679 39.9912C62.2679 52.46 71.0146 61.2683 82.3684 61.2683C87.2276 61.2298 91.9146 59.4618 95.5907 56.2808C95.8874 56.0228 96.1252 55.704 96.2879 55.3459C96.4506 54.9879 96.5345 54.599 96.5339 54.2056V45.2192C96.5339 44.8436 96.3849 44.4834 96.1195 44.2178C95.8542 43.9522 95.4944 43.8031 95.1191 43.8031H84.2636C83.8293 43.8069 83.4074 43.6585 83.071 43.3836C82.7345 43.1087 82.5049 42.7246 82.4218 42.2979C82.3776 42.0258 82.3934 41.7474 82.4682 41.4821C82.543 41.2168 82.675 40.9711 82.8547 40.7623C83.0345 40.5535 83.2578 40.3866 83.5089 40.2734C83.76 40.1602 84.0328 40.1034 84.3081 40.1069H98.3847C98.9873 40.1093 99.5644 40.3505 99.9896 40.7779C100.415 41.2052 100.654 41.7838 100.654 42.387Z" fill="#231F20"/>
<path d="M133.104 15.0801C147.208 15.0801 156.533 25.928 156.533 40.0177C156.533 54.1075 147.208 64.9554 133.104 64.9554C119.001 64.9554 109.685 54.0986 109.685 40.0177C109.685 25.9369 118.939 15.0801 133.104 15.0801ZM133.104 18.8385C121.395 18.8385 114.027 27.7448 114.027 40.0355C114.027 52.1926 121.395 61.2415 133.104 61.2415C144.672 61.2415 152.191 52.1926 152.191 40.0355C152.191 27.7359 144.672 18.8385 133.104 18.8385Z" fill="#231F20"/>
</g>
</g>
<defs>
<clipPath id="clip0_505_7299">
<rect width="155.714" height="80" fill="white" transform="translate(0.80957)"/>
</clipPath>
<clipPath id="clip1_505_7299">
<rect width="155.714" height="50" fill="white" transform="translate(0.80957 15)"/>
</clipPath>
</defs>
</svg>
