<svg width="323" height="80" viewBox="0 0 323 80" fill="none" xmlns="http://www.w3.org/2000/svg">
<g clip-path="url(#clip0_505_7180)">
<g clip-path="url(#clip1_505_7180)">
<path d="M178.517 48.995C178.517 48.995 181.413 55.0954 190.14 44.4924C191.94 42.3115 194.111 40 194.111 40C194.111 40 191.015 40.7236 188.23 41.1859C174.717 43.4372 178.517 48.995 178.517 48.995Z" fill="#ED1C24"/>
<path d="M209.695 31.0052C209.695 31.0052 206.8 24.9046 198.083 35.5077C196.283 37.6886 194.061 40.0001 194.061 40.0001C194.061 40.0001 197.148 39.2765 199.943 38.8142C213.536 36.563 209.695 31.0052 209.695 31.0052Z" fill="#009245"/>
<path d="M178.517 31.0052C178.517 31.0052 174.687 36.563 188.229 38.8142C191.014 39.2765 194.111 40.0001 194.111 40.0001C194.111 40.0001 191.939 37.6886 190.14 35.5077C181.413 24.9046 178.517 31.0052 178.517 31.0052Z" fill="#8C00FA"/>
<path d="M209.695 48.995C209.695 48.995 213.536 43.4372 199.993 41.1859C197.198 40.7236 194.111 40 194.111 40C194.111 40 196.283 42.3115 198.133 44.4924C206.8 55.0954 209.695 48.995 209.695 48.995Z" fill="#FBB03B"/>
<path d="M194.111 22.0302C194.111 22.0302 187.375 21.4976 192.201 34.3418C193.206 36.9951 194.111 40.0302 194.111 40.0302C194.111 40.0302 195.026 37.0152 196.021 34.3418C200.857 21.4674 194.111 22.0302 194.111 22.0302Z" fill="#005CE3"/>
<path d="M194.111 58C194.111 58 200.837 58.5326 196.021 45.6884C195.016 43.0351 194.111 40 194.111 40C194.111 40 193.196 43.015 192.201 45.6884C187.375 58.5326 194.111 58 194.111 58Z" fill="#F15A24"/>
<path d="M8.26142 48.9045H5.43623V54.9346H0.40918V23.4673H8.22123C17.3302 23.4673 21.4524 28.7839 21.4524 36.1809C21.4524 43.5779 17.3704 48.9045 8.26142 48.9045ZM7.81904 28.3718H5.36584V43.9999H7.81904C13.2281 43.9999 16.2343 41.7789 16.2343 36.1809C16.2343 30.5829 13.2583 28.3718 7.81904 28.3718Z" fill="black"/>
<path d="M42.3045 51.176H29.6766L28.2388 54.8745H23.5737L35.4979 22.6433H36.9759L48.6788 54.8745H43.8629L42.3045 51.176ZM31.5266 46.4122H40.5752L36.1313 33.5076L31.5266 46.4122Z" fill="black"/>
<path d="M49.3726 28.1407V23.4673H68.0128V28.1407H61.1057V54.9145H56.0786V28.1407H49.3726Z" fill="black"/>
<path d="M88.5534 47.6482L93.1783 54.9145H86.9347L83.4158 48.8843C82.903 48.8843 82.4104 48.8843 81.8474 48.8843H79.0222V54.9145H73.9951V23.4673H81.8172C90.9262 23.4673 95.0383 28.7839 95.0383 36.1809C95.0685 41.4573 92.9873 45.618 88.5534 47.6482ZM81.4251 28.3718H78.9719V43.9999H81.8876C87.2564 43.9999 89.8504 41.7789 89.8504 36.1809C89.8504 30.5829 86.8443 28.3718 81.4251 28.3718Z" fill="black"/>
<path d="M101.543 54.9145V23.4673H106.57V54.9145H101.543Z" fill="black"/>
<path d="M118.283 39.1155C118.258 40.607 118.53 42.0887 119.083 43.4741C119.637 44.8594 120.461 46.1207 121.507 47.1844C122.553 48.2481 123.801 49.0928 125.178 49.6694C126.554 50.246 128.031 50.5428 129.524 50.5426C133.39 50.473 137.077 48.8971 139.799 46.1507L142.815 50.0401C141.103 51.7877 139.059 53.1746 136.802 54.1188C134.545 55.063 132.121 55.5455 129.674 55.5376C121.118 55.5376 113.025 49.4371 113.025 39.0351C113.025 29.5979 120.334 22.804 129.584 22.804C134.943 22.804 138.743 25.3467 141.749 28.211L138.733 31.9597C135.586 29.2763 132.701 27.8391 128.92 27.8391C123.33 27.8592 118.283 32.3014 118.283 39.1155Z" fill="black"/>
<path d="M166.674 23.4674L161.305 29.4372L169.539 54.9146H163.989L157.565 33.3166L154.046 37.3367V54.9548H149.019V23.4674H154.046V31.0754L160.892 23.4473L166.674 23.4674Z" fill="black"/>
<path d="M222.202 24.2815H227.229V50.9549H239.445V55.7187H222.242L222.202 24.2815Z" fill="black"/>
<path d="M275.529 40.1206C275.569 42.2743 275.173 44.4138 274.363 46.4102C273.554 48.4066 272.349 50.2186 270.821 51.737C269.292 53.2554 267.472 54.4488 265.47 55.2454C263.468 56.0419 261.325 56.4251 259.171 56.3719C257.009 56.3788 254.867 55.955 252.87 55.1252C250.874 54.2954 249.062 53.0763 247.542 51.5391C246.022 50.0018 244.824 48.1772 244.017 46.1719C243.21 44.1665 242.811 42.0205 242.843 39.8593C242.806 37.7099 243.204 35.5751 244.012 33.5832C244.821 31.5912 246.024 29.7831 247.549 28.2672C249.073 26.7514 250.889 25.5591 252.886 24.7619C254.883 23.9647 257.021 23.5791 259.171 23.6282C261.334 23.6173 263.478 24.0375 265.476 24.8642C267.475 25.6909 269.289 26.9076 270.812 28.4431C272.335 29.9786 273.537 31.8022 274.347 33.8072C275.156 35.8122 275.558 37.9585 275.529 40.1206ZM248.091 39.8895C248.091 46.3618 252.767 51.2664 259.151 51.2664C266.189 51.2664 270.301 46.9146 270.301 40.1206C270.301 34.0905 266.088 28.7035 259.151 28.7035C252.214 28.7035 248.112 33.1558 248.112 39.9095L248.091 39.8895Z" fill="black"/>
<path d="M287.222 40.3216C283.703 38.201 281.582 35.2964 281.582 31.6281C281.582 26.2211 285.744 23.5879 290.319 23.5879C292.696 23.5888 295.029 24.2275 297.075 25.4372L295.366 29.5577C293.89 28.7334 292.239 28.2718 290.55 28.211C287.312 28.211 286.257 29.6482 286.257 31.3568C286.257 33.0653 287.684 34.6934 290.51 36.5427L293.838 38.7135C297.165 40.8341 299.669 43.4271 299.669 47.6381C299.669 52.8643 295.647 56.3316 288.841 56.3316C285.564 56.329 282.338 55.5177 279.45 53.9698L281.3 49.6181C283.727 50.8369 286.406 51.4702 289.122 51.4673C293.144 51.4673 294.712 50.1306 294.712 47.5377C294.712 45.7889 292.913 43.8392 290.188 42.1306L287.222 40.3216Z" fill="black"/>
<path d="M305.671 55.7187V24.2815H322.884V29.0654H310.668V33.3167H322.14V38.1107H310.668V51.0051H322.884V55.7689L305.671 55.7187Z" fill="black"/>
</g>
</g>
<defs>
<clipPath id="clip0_505_7180">
<rect width="322.435" height="80" fill="white" transform="translate(0.449219)"/>
</clipPath>
<clipPath id="clip1_505_7180">
<rect width="322.435" height="36" fill="white" transform="translate(0.449219 22)"/>
</clipPath>
</defs>
</svg>
