<svg width="20" height="15" viewBox="0 0 20 15" fill="none" xmlns="http://www.w3.org/2000/svg">
<g clip-path="url(#clip0_4041_194634)">
<path d="M4.69063 0H15.3062V15H4.6875L4.69063 0Z" fill="white"/>
<path d="M-0.615234 0H4.69102V15H-0.615234V0ZM15.3066 0H20.6129V15H15.3098L15.3066 0ZM6.28164 7.25L5.86602 7.3875L7.78477 9.075C7.93164 9.50313 7.73477 9.63125 7.60977 9.85625L9.69102 9.59375L9.64102 11.6875L10.0754 11.6781L9.97852 9.59688L12.0629 9.84688C11.9348 9.575 11.8191 9.43125 11.9379 8.99687L13.8535 7.40312L13.5191 7.27812C13.2441 7.06562 13.6379 6.25938 13.6941 5.75C13.6941 5.75 12.5785 6.13438 12.5066 5.93125L12.2191 5.38438L11.2004 6.50313C11.091 6.53125 11.0441 6.4875 11.016 6.39375L11.4848 4.05625L10.741 4.475C10.6785 4.50312 10.616 4.47813 10.5785 4.40625L9.85977 2.96875L9.12227 4.4625C9.06602 4.51562 9.00977 4.52187 8.96602 4.48438L8.25039 4.0875L8.67852 6.40312C8.64414 6.49687 8.56289 6.52188 8.46914 6.47188L7.49414 5.36875C7.36914 5.57188 7.28164 5.90313 7.11289 5.97813C6.94414 6.05 6.37852 5.8375 6.00039 5.75938C6.13164 6.22188 6.53164 6.99687 6.28164 7.25Z" fill="#D52B1E"/>
</g>
<defs>
<clipPath id="clip0_4041_194634">
<rect width="20" height="15" fill="white"/>
</clipPath>
</defs>
</svg>
