<svg width="15" height="16" viewBox="0 0 15 16" fill="none" xmlns="http://www.w3.org/2000/svg">
<mask id="mask0_4041_70691" style="mask-type:alpha" maskUnits="userSpaceOnUse" x="0" y="0" width="15" height="16">
<rect y="0.246094" width="15" height="15" fill="#D9D9D9"/>
</mask>
<g mask="url(#mask0_4041_70691)">
<path d="M12.7501 7.37109V11.8654C12.7501 12.1764 12.6399 12.4425 12.4196 12.664C12.1993 12.8854 11.9344 12.9961 11.6251 12.9961H3.37506C3.06568 12.9961 2.80084 12.8841 2.58052 12.6602C2.36021 12.4362 2.25006 12.1732 2.25006 11.8711V7.35547C1.90631 7.11589 1.69016 6.80859 1.60162 6.43359C1.51308 6.05859 1.51568 5.66276 1.60943 5.24609L2.32818 3.24609C2.38026 2.99609 2.50006 2.80859 2.68756 2.68359C2.87506 2.55859 3.10251 2.49609 3.36993 2.49609H11.6302C11.8976 2.49609 12.1225 2.55339 12.3047 2.66797C12.487 2.78255 12.6094 2.97526 12.6719 3.24609L13.3907 5.24609C13.4844 5.66276 13.4844 6.05859 13.3907 6.43359C13.2969 6.80859 13.0834 7.12109 12.7501 7.37109ZM8.87506 6.62109C9.09381 6.62109 9.2787 6.54818 9.42974 6.40234C9.58078 6.25651 9.64589 6.07943 9.62506 5.87109L9.25006 3.62109H8.12506V5.86517C8.12506 6.07745 8.19797 6.25651 8.34381 6.40234C8.48964 6.54818 8.66672 6.62109 8.87506 6.62109ZM6.11724 6.62109C6.33079 6.62109 6.51047 6.54818 6.65631 6.40234C6.80214 6.25651 6.87506 6.07745 6.87506 5.86517V3.62109H5.75006L5.37506 5.87109C5.35422 6.07943 5.41933 6.25651 5.57037 6.40234C5.72141 6.54818 5.9037 6.62109 6.11724 6.62109ZM3.37506 6.62109C3.56256 6.62109 3.72662 6.5638 3.86724 6.44922C4.00787 6.33464 4.0886 6.1888 4.10943 6.01172L4.50006 3.62109H3.37506L2.67193 5.62109C2.5886 5.86068 2.61985 6.08724 2.76568 6.30078C2.91151 6.51432 3.11464 6.62109 3.37506 6.62109ZM11.6251 6.62109C11.8855 6.62109 12.0912 6.51432 12.2422 6.30078C12.3933 6.08724 12.4271 5.86068 12.3438 5.62109L11.6251 3.62109H10.5001L10.8907 6.01172C10.9115 6.1888 10.9948 6.33464 11.1407 6.44922C11.2865 6.5638 11.448 6.62109 11.6251 6.62109ZM3.37506 11.8711H11.6251V7.74609C11.3646 7.74609 11.1172 7.69661 10.8829 7.59766C10.6485 7.4987 10.4376 7.34505 10.2501 7.13672C10.0626 7.34505 9.85234 7.4987 9.61942 7.59766C9.38649 7.69661 9.13837 7.74609 8.87506 7.74609C8.61281 7.74609 8.36756 7.69401 8.13931 7.58984C7.91106 7.48568 7.69797 7.33464 7.50006 7.13672C7.32297 7.33464 7.11464 7.48568 6.87506 7.58984C6.63547 7.69401 6.38547 7.74609 6.12506 7.74609C5.86464 7.74609 5.61985 7.70182 5.39068 7.61328C5.16151 7.52474 4.94797 7.36589 4.75006 7.13672C4.52072 7.36123 4.29412 7.51892 4.07024 7.60978C3.84637 7.70066 3.61464 7.74609 3.37506 7.74609V11.8711ZM11.6251 11.8711H3.37506H3.38287H3.37171H11.6261H11.6094H11.6251Z" fill="#686661"/>
</g>
</svg>
