<svg width="15" height="16" viewBox="0 0 15 16" fill="none" xmlns="http://www.w3.org/2000/svg">
<mask id="mask0_4041_70688" style="mask-type:alpha" maskUnits="userSpaceOnUse" x="0" y="0" width="15" height="16">
<rect y="0.246094" width="15" height="15" fill="#D9D9D9"/>
</mask>
<g mask="url(#mask0_4041_70688)">
<path d="M7.5 13.7461C6.67708 13.7461 5.90104 13.5898 5.17188 13.2773C4.44271 12.9648 3.80469 12.5352 3.25781 11.9883C2.71094 11.4414 2.28125 10.8034 1.96875 10.0742C1.65625 9.34505 1.5 8.56901 1.5 7.74609C1.5 6.91276 1.65625 6.13411 1.96875 5.41016C2.28125 4.6862 2.71094 4.05078 3.25781 3.50391C3.80469 2.95703 4.44271 2.52734 5.17188 2.21484C5.90104 1.90234 6.67708 1.74609 7.5 1.74609C8.33333 1.74609 9.11198 1.90234 9.83594 2.21484C10.5599 2.52734 11.1953 2.95703 11.7422 3.50391C12.2891 4.05078 12.7188 4.6862 13.0312 5.41016C13.3438 6.13411 13.5 6.91276 13.5 7.74609C13.5 8.56901 13.3438 9.34505 13.0312 10.0742C12.7188 10.8034 12.2891 11.4414 11.7422 11.9883C11.1953 12.5352 10.5599 12.9648 9.83594 13.2773C9.11198 13.5898 8.33333 13.7461 7.5 13.7461ZM7.5 12.5742C7.67708 12.3971 7.85417 12.0664 8.03125 11.582C8.20833 11.0977 8.34375 10.569 8.4375 9.99609H6.5625C6.65625 10.569 6.79167 11.0977 6.96875 11.582C7.14583 12.0664 7.32292 12.3971 7.5 12.5742ZM6.07812 12.418C5.93229 12.1055 5.80469 11.7461 5.69531 11.3398C5.58594 10.9336 5.49479 10.4857 5.42188 9.99609H3.1875C3.48958 10.5898 3.89062 11.0977 4.39062 11.5195C4.89062 11.9414 5.45313 12.2409 6.07812 12.418ZM8.92188 12.418C9.54688 12.2409 10.1094 11.9414 10.6094 11.5195C11.1094 11.0977 11.5104 10.5898 11.8125 9.99609H9.57812C9.50521 10.4857 9.41406 10.9336 9.30469 11.3398C9.19531 11.7461 9.06771 12.1055 8.92188 12.418ZM2.76562 8.87109H5.28125C5.26042 8.67318 5.2474 8.47786 5.24219 8.28516C5.23698 8.09245 5.23438 7.90234 5.23438 7.71484C5.23438 7.52734 5.23698 7.34245 5.24219 7.16016C5.2474 6.97786 5.26042 6.79818 5.28125 6.62109H2.76562C2.71354 6.81901 2.67708 7.00911 2.65625 7.19141C2.63542 7.3737 2.625 7.55859 2.625 7.74609C2.625 7.93359 2.63542 8.11849 2.65625 8.30078C2.67708 8.48307 2.71354 8.67318 2.76562 8.87109ZM6.42188 8.87109H8.57812C8.59896 8.66276 8.61198 8.46745 8.61719 8.28516C8.6224 8.10286 8.625 7.92318 8.625 7.74609C8.625 7.56901 8.6224 7.38672 8.61719 7.19922C8.61198 7.01172 8.59896 6.81901 8.57812 6.62109H6.42188C6.40104 6.81901 6.38802 7.01172 6.38281 7.19922C6.3776 7.38672 6.375 7.56901 6.375 7.74609C6.375 7.92318 6.3776 8.10547 6.38281 8.29297C6.38802 8.48047 6.40104 8.67318 6.42188 8.87109ZM9.71875 8.87109H12.2344C12.2865 8.67318 12.3229 8.48307 12.3438 8.30078C12.3646 8.11849 12.375 7.93359 12.375 7.74609C12.375 7.55859 12.3646 7.37109 12.3438 7.18359C12.3229 6.99609 12.2865 6.80859 12.2344 6.62109H9.71875C9.73958 6.81901 9.7526 7.01432 9.75781 7.20703C9.76302 7.39974 9.76562 7.58984 9.76562 7.77734C9.76562 7.96484 9.76302 8.14974 9.75781 8.33203C9.7526 8.51432 9.73958 8.69401 9.71875 8.87109ZM9.57812 5.49609H11.8125C11.5104 4.90234 11.1094 4.39453 10.6094 3.97266C10.1094 3.55078 9.54688 3.2513 8.92188 3.07422C9.06771 3.38672 9.19531 3.74609 9.30469 4.15234C9.41406 4.55859 9.50521 5.00651 9.57812 5.49609ZM6.5625 5.49609H8.4375C8.34375 4.92318 8.20833 4.39453 8.03125 3.91016C7.85417 3.42578 7.67708 3.09505 7.5 2.91797C7.32292 3.09505 7.14583 3.42578 6.96875 3.91016C6.79167 4.39453 6.65625 4.92318 6.5625 5.49609ZM3.1875 5.49609H5.42188C5.49479 5.00651 5.58594 4.55859 5.69531 4.15234C5.80469 3.74609 5.93229 3.38672 6.07812 3.07422C5.45313 3.2513 4.89062 3.55078 4.39062 3.97266C3.89062 4.39453 3.48958 4.90234 3.1875 5.49609Z" fill="#686661"/>
</g>
</svg>
