<svg width="20" height="15" viewBox="0 0 20 15" fill="none" xmlns="http://www.w3.org/2000/svg">
<g clip-path="url(#clip0_4041_200075)">
<path d="M0 0H20V15H0" fill="#BD3D44"/>
<path d="M0 1.72656H20H0ZM0 4.02969H20H0ZM0 6.34219H20H0ZM0 8.65469H20H0ZM0 10.9672H20H0ZM0 13.2797H20H0Z" fill="black"/>
<path d="M0 1.72656H20M0 4.02969H20M0 6.34219H20M0 8.65469H20M0 10.9672H20M0 13.2797H20" stroke="white" stroke-width="1.2"/>
<path d="M0 0H11.4V8.07812H0" fill="#192F5D"/>
<path d="M0.9375 0.34375L1.21875 1.1875L0.5 0.65625H1.375L0.65625 1.1875L0.9375 0.34375Z" fill="white"/>
<path d="M2.84375 0.34375L3.125 1.1875L2.40625 0.65625H3.28125L2.5625 1.1875L2.84375 0.34375Z" fill="white"/>
<path d="M4.75 0.34375L5.03125 1.1875L4.3125 0.65625H5.1875L4.46875 1.1875L4.75 0.34375Z" fill="white"/>
<path d="M6.65625 0.34375L6.9375 1.1875L6.21875 0.65625H7.09375L6.375 1.1875L6.65625 0.34375Z" fill="white"/>
<path d="M8.5625 0.34375L8.84375 1.1875L8.125 0.65625H9L8.28125 1.1875L8.5625 0.34375Z" fill="white"/>
<path d="M10.4375 0.34375L10.7188 1.1875L10 0.65625H10.875L10.1562 1.1875L10.4375 0.34375Z" fill="white"/>
<path d="M1.90625 1.15625L2.1875 2L1.46875 1.46875H2.34375L1.625 2L1.90625 1.15625Z" fill="white"/>
<path d="M3.8125 1.15625L4.09375 2L3.375 1.46875H4.25L3.53125 2L3.8125 1.15625Z" fill="white"/>
<path d="M5.71875 1.15625L6 2L5.28125 1.46875H6.15625L5.4375 2L5.71875 1.15625Z" fill="white"/>
<path d="M7.59375 1.15625L7.875 2L7.15625 1.46875H8.03125L7.3125 2L7.59375 1.15625Z" fill="white"/>
<path d="M9.5 1.15625L9.78125 2L9.0625 1.46875H9.9375L9.21875 2L9.5 1.15625Z" fill="white"/>
<path d="M0.9375 1.96875L1.21875 2.8125L0.5 2.28125H1.375L0.65625 2.8125L0.9375 1.96875Z" fill="white"/>
<path d="M2.84375 1.96875L3.125 2.8125L2.40625 2.28125H3.28125L2.5625 2.8125L2.84375 1.96875Z" fill="white"/>
<path d="M4.75 1.96875L5.03125 2.8125L4.3125 2.28125H5.1875L4.46875 2.8125L4.75 1.96875Z" fill="white"/>
<path d="M6.65625 1.96875L6.9375 2.8125L6.21875 2.28125H7.09375L6.375 2.8125L6.65625 1.96875Z" fill="white"/>
<path d="M8.5625 1.96875L8.84375 2.8125L8.125 2.28125H9L8.28125 2.8125L8.5625 1.96875Z" fill="white"/>
<path d="M10.4375 1.96875L10.7188 2.8125L10 2.28125H10.875L10.1562 2.8125L10.4375 1.96875Z" fill="white"/>
<path d="M1.90625 2.78125L2.1875 3.625L1.46875 3.09375H2.34375L1.625 3.625L1.90625 2.78125Z" fill="white"/>
<path d="M3.8125 2.78125L4.09375 3.625L3.375 3.09375H4.25L3.53125 3.625L3.8125 2.78125Z" fill="white"/>
<path d="M5.71875 2.78125L6 3.625L5.28125 3.09375H6.15625L5.4375 3.625L5.71875 2.78125Z" fill="white"/>
<path d="M7.59375 2.78125L7.875 3.625L7.15625 3.09375H8.03125L7.3125 3.625L7.59375 2.78125Z" fill="white"/>
<path d="M9.5 2.78125L9.78125 3.625L9.0625 3.09375H9.9375L9.21875 3.625L9.5 2.78125Z" fill="white"/>
<path d="M0.9375 3.59375L1.21875 4.4375L0.5 3.90625H1.375L0.65625 4.4375L0.9375 3.59375Z" fill="white"/>
<path d="M2.84375 3.59375L3.125 4.4375L2.40625 3.90625H3.28125L2.5625 4.4375L2.84375 3.59375Z" fill="white"/>
<path d="M4.75 3.59375L5.03125 4.4375L4.3125 3.90625H5.1875L4.46875 4.4375L4.75 3.59375Z" fill="white"/>
<path d="M6.65625 3.59375L6.9375 4.4375L6.21875 3.90625H7.09375L6.375 4.4375L6.65625 3.59375Z" fill="white"/>
<path d="M8.5625 3.59375L8.84375 4.4375L8.125 3.90625H9L8.28125 4.4375L8.5625 3.59375Z" fill="white"/>
<path d="M10.4375 3.59375L10.7188 4.4375L10 3.90625H10.875L10.1562 4.4375L10.4375 3.59375Z" fill="white"/>
<path d="M1.90625 4.40625L2.1875 5.25L1.46875 4.71875H2.34375L1.625 5.25L1.90625 4.40625Z" fill="white"/>
<path d="M3.8125 4.40625L4.09375 5.25L3.375 4.71875H4.25L3.53125 5.25L3.8125 4.40625Z" fill="white"/>
<path d="M5.71875 4.40625L6 5.25L5.28125 4.71875H6.15625L5.4375 5.25L5.71875 4.40625Z" fill="white"/>
<path d="M7.59375 4.40625L7.875 5.25L7.15625 4.71875H8.03125L7.3125 5.25L7.59375 4.40625Z" fill="white"/>
<path d="M9.5 4.40625L9.78125 5.25L9.0625 4.71875H9.9375L9.21875 5.25L9.5 4.40625Z" fill="white"/>
<path d="M0.9375 5.1875L1.21875 6.03125L0.5 5.5H1.375L0.65625 6.03125L0.9375 5.1875Z" fill="white"/>
<path d="M2.84375 5.1875L3.125 6.03125L2.40625 5.5H3.28125L2.5625 6.03125L2.84375 5.1875Z" fill="white"/>
<path d="M4.75 5.1875L5.03125 6.03125L4.3125 5.5H5.1875L4.46875 6.03125L4.75 5.1875Z" fill="white"/>
<path d="M6.65625 5.1875L6.9375 6.03125L6.21875 5.5H7.09375L6.375 6.03125L6.65625 5.1875Z" fill="white"/>
<path d="M8.5625 5.1875L8.84375 6.03125L8.125 5.5H9L8.28125 6.03125L8.5625 5.1875Z" fill="white"/>
<path d="M10.4375 5.1875L10.7188 6.03125L10 5.5H10.875L10.1562 6.03125L10.4375 5.1875Z" fill="white"/>
<path d="M1.90625 6L2.1875 6.84375L1.46875 6.3125H2.34375L1.625 6.84375L1.90625 6Z" fill="white"/>
<path d="M3.8125 6L4.09375 6.84375L3.375 6.3125H4.25L3.53125 6.84375L3.8125 6Z" fill="white"/>
<path d="M5.71875 6L6 6.84375L5.28125 6.3125H6.15625L5.4375 6.84375L5.71875 6Z" fill="white"/>
<path d="M7.59375 6L7.875 6.84375L7.15625 6.3125H8.03125L7.3125 6.84375L7.59375 6Z" fill="white"/>
<path d="M9.5 6L9.78125 6.84375L9.0625 6.3125H9.9375L9.21875 6.84375L9.5 6Z" fill="white"/>
<path d="M0.9375 6.8125L1.21875 7.65625L0.5 7.125H1.375L0.65625 7.65625L0.9375 6.8125Z" fill="white"/>
<path d="M2.84375 6.8125L3.125 7.65625L2.40625 7.125H3.28125L2.5625 7.65625L2.84375 6.8125Z" fill="white"/>
<path d="M4.75 6.8125L5.03125 7.65625L4.3125 7.125H5.1875L4.46875 7.65625L4.75 6.8125Z" fill="white"/>
<path d="M6.65625 6.8125L6.9375 7.65625L6.21875 7.125H7.09375L6.375 7.65625L6.65625 6.8125Z" fill="white"/>
<path d="M8.5625 6.8125L8.84375 7.65625L8.125 7.125H9L8.28125 7.65625L8.5625 6.8125Z" fill="white"/>
<path d="M10.4375 6.8125L10.7188 7.65625L10 7.125H10.875L10.1562 7.65625L10.4375 6.8125Z" fill="white"/>
</g>
<defs>
<clipPath id="clip0_4041_200075">
<rect width="20" height="15" fill="white"/>
</clipPath>
</defs>
</svg>
