<svg width="19" height="25" viewBox="0 0 19 25" fill="none" xmlns="http://www.w3.org/2000/svg">
<mask id="mask0_210_1253" style="mask-type:alpha" maskUnits="userSpaceOnUse" x="0" y="0" width="19" height="25">
<rect x="0.5" y="0.622772" width="18" height="24" fill="#D9D9D9"/>
</mask>
<g mask="url(#mask0_210_1253)">
<path d="M0.5 18.6228V16.6228H18.5V18.6228H0.5ZM0.5 13.6228V11.6228H18.5V13.6228H0.5ZM0.5 8.62277V6.62277H18.5V8.62277H0.5Z" fill="#090800"/>
<path d="M0.5 18.6228V16.6228H18.5V18.6228H0.5ZM0.5 13.6228V11.6228H18.5V13.6228H0.5ZM0.5 8.62277V6.62277H18.5V8.62277H0.5Z" fill="black" fill-opacity="0.2"/>
<path d="M0.5 18.6228V16.6228H18.5V18.6228H0.5ZM0.5 13.6228V11.6228H18.5V13.6228H0.5ZM0.5 8.62277V6.62277H18.5V8.62277H0.5Z" fill="black" fill-opacity="0.2"/>
<path d="M0.5 18.6228V16.6228H18.5V18.6228H0.5ZM0.5 13.6228V11.6228H18.5V13.6228H0.5ZM0.5 8.62277V6.62277H18.5V8.62277H0.5Z" fill="black" fill-opacity="0.2"/>
<path d="M0.5 18.6228V16.6228H18.5V18.6228H0.5ZM0.5 13.6228V11.6228H18.5V13.6228H0.5ZM0.5 8.62277V6.62277H18.5V8.62277H0.5Z" fill="black" fill-opacity="0.2"/>
<path d="M0.5 18.6228V16.6228H18.5V18.6228H0.5ZM0.5 13.6228V11.6228H18.5V13.6228H0.5ZM0.5 8.62277V6.62277H18.5V8.62277H0.5Z" fill="black" fill-opacity="0.2"/>
</g>
</svg>
