<svg width="17" height="21" viewBox="0 0 17 21" fill="none" xmlns="http://www.w3.org/2000/svg">
<path d="M2.5 20.6228C1.95 20.6228 1.47917 20.4269 1.0875 20.0353C0.695833 19.6436 0.5 19.1728 0.5 18.6228V6.62277C0.5 6.07277 0.695833 5.60194 1.0875 5.21027C1.47917 4.81861 1.95 4.62277 2.5 4.62277H4.5C4.5 3.52277 4.89167 2.58111 5.675 1.79777C6.45833 1.01444 7.4 0.622772 8.5 0.622772C9.6 0.622772 10.5417 1.01444 11.325 1.79777C12.1083 2.58111 12.5 3.52277 12.5 4.62277H14.5C15.05 4.62277 15.5208 4.81861 15.9125 5.21027C16.3042 5.60194 16.5 6.07277 16.5 6.62277V18.6228C16.5 19.1728 16.3042 19.6436 15.9125 20.0353C15.5208 20.4269 15.05 20.6228 14.5 20.6228H2.5ZM2.5 18.6228H14.5V6.62277H12.5V8.62277C12.5 8.90611 12.4042 9.14361 12.2125 9.33527C12.0208 9.52694 11.7833 9.62277 11.5 9.62277C11.2167 9.62277 10.9792 9.52694 10.7875 9.33527C10.5958 9.14361 10.5 8.90611 10.5 8.62277V6.62277H6.5V8.62277C6.5 8.90611 6.40417 9.14361 6.2125 9.33527C6.02083 9.52694 5.78333 9.62277 5.5 9.62277C5.21667 9.62277 4.97917 9.52694 4.7875 9.33527C4.59583 9.14361 4.5 8.90611 4.5 8.62277V6.62277H2.5V18.6228ZM6.5 4.62277H10.5C10.5 4.07277 10.3042 3.60194 9.9125 3.21027C9.52083 2.81861 9.05 2.62277 8.5 2.62277C7.95 2.62277 7.47917 2.81861 7.0875 3.21027C6.69583 3.60194 6.5 4.07277 6.5 4.62277Z" fill="#090800"/>
<path d="M2.5 20.6228C1.95 20.6228 1.47917 20.4269 1.0875 20.0353C0.695833 19.6436 0.5 19.1728 0.5 18.6228V6.62277C0.5 6.07277 0.695833 5.60194 1.0875 5.21027C1.47917 4.81861 1.95 4.62277 2.5 4.62277H4.5C4.5 3.52277 4.89167 2.58111 5.675 1.79777C6.45833 1.01444 7.4 0.622772 8.5 0.622772C9.6 0.622772 10.5417 1.01444 11.325 1.79777C12.1083 2.58111 12.5 3.52277 12.5 4.62277H14.5C15.05 4.62277 15.5208 4.81861 15.9125 5.21027C16.3042 5.60194 16.5 6.07277 16.5 6.62277V18.6228C16.5 19.1728 16.3042 19.6436 15.9125 20.0353C15.5208 20.4269 15.05 20.6228 14.5 20.6228H2.5ZM2.5 18.6228H14.5V6.62277H12.5V8.62277C12.5 8.90611 12.4042 9.14361 12.2125 9.33527C12.0208 9.52694 11.7833 9.62277 11.5 9.62277C11.2167 9.62277 10.9792 9.52694 10.7875 9.33527C10.5958 9.14361 10.5 8.90611 10.5 8.62277V6.62277H6.5V8.62277C6.5 8.90611 6.40417 9.14361 6.2125 9.33527C6.02083 9.52694 5.78333 9.62277 5.5 9.62277C5.21667 9.62277 4.97917 9.52694 4.7875 9.33527C4.59583 9.14361 4.5 8.90611 4.5 8.62277V6.62277H2.5V18.6228ZM6.5 4.62277H10.5C10.5 4.07277 10.3042 3.60194 9.9125 3.21027C9.52083 2.81861 9.05 2.62277 8.5 2.62277C7.95 2.62277 7.47917 2.81861 7.0875 3.21027C6.69583 3.60194 6.5 4.07277 6.5 4.62277Z" fill="black" fill-opacity="0.2"/>
<path d="M2.5 20.6228C1.95 20.6228 1.47917 20.4269 1.0875 20.0353C0.695833 19.6436 0.5 19.1728 0.5 18.6228V6.62277C0.5 6.07277 0.695833 5.60194 1.0875 5.21027C1.47917 4.81861 1.95 4.62277 2.5 4.62277H4.5C4.5 3.52277 4.89167 2.58111 5.675 1.79777C6.45833 1.01444 7.4 0.622772 8.5 0.622772C9.6 0.622772 10.5417 1.01444 11.325 1.79777C12.1083 2.58111 12.5 3.52277 12.5 4.62277H14.5C15.05 4.62277 15.5208 4.81861 15.9125 5.21027C16.3042 5.60194 16.5 6.07277 16.5 6.62277V18.6228C16.5 19.1728 16.3042 19.6436 15.9125 20.0353C15.5208 20.4269 15.05 20.6228 14.5 20.6228H2.5ZM2.5 18.6228H14.5V6.62277H12.5V8.62277C12.5 8.90611 12.4042 9.14361 12.2125 9.33527C12.0208 9.52694 11.7833 9.62277 11.5 9.62277C11.2167 9.62277 10.9792 9.52694 10.7875 9.33527C10.5958 9.14361 10.5 8.90611 10.5 8.62277V6.62277H6.5V8.62277C6.5 8.90611 6.40417 9.14361 6.2125 9.33527C6.02083 9.52694 5.78333 9.62277 5.5 9.62277C5.21667 9.62277 4.97917 9.52694 4.7875 9.33527C4.59583 9.14361 4.5 8.90611 4.5 8.62277V6.62277H2.5V18.6228ZM6.5 4.62277H10.5C10.5 4.07277 10.3042 3.60194 9.9125 3.21027C9.52083 2.81861 9.05 2.62277 8.5 2.62277C7.95 2.62277 7.47917 2.81861 7.0875 3.21027C6.69583 3.60194 6.5 4.07277 6.5 4.62277Z" fill="black" fill-opacity="0.2"/>
<path d="M2.5 20.6228C1.95 20.6228 1.47917 20.4269 1.0875 20.0353C0.695833 19.6436 0.5 19.1728 0.5 18.6228V6.62277C0.5 6.07277 0.695833 5.60194 1.0875 5.21027C1.47917 4.81861 1.95 4.62277 2.5 4.62277H4.5C4.5 3.52277 4.89167 2.58111 5.675 1.79777C6.45833 1.01444 7.4 0.622772 8.5 0.622772C9.6 0.622772 10.5417 1.01444 11.325 1.79777C12.1083 2.58111 12.5 3.52277 12.5 4.62277H14.5C15.05 4.62277 15.5208 4.81861 15.9125 5.21027C16.3042 5.60194 16.5 6.07277 16.5 6.62277V18.6228C16.5 19.1728 16.3042 19.6436 15.9125 20.0353C15.5208 20.4269 15.05 20.6228 14.5 20.6228H2.5ZM2.5 18.6228H14.5V6.62277H12.5V8.62277C12.5 8.90611 12.4042 9.14361 12.2125 9.33527C12.0208 9.52694 11.7833 9.62277 11.5 9.62277C11.2167 9.62277 10.9792 9.52694 10.7875 9.33527C10.5958 9.14361 10.5 8.90611 10.5 8.62277V6.62277H6.5V8.62277C6.5 8.90611 6.40417 9.14361 6.2125 9.33527C6.02083 9.52694 5.78333 9.62277 5.5 9.62277C5.21667 9.62277 4.97917 9.52694 4.7875 9.33527C4.59583 9.14361 4.5 8.90611 4.5 8.62277V6.62277H2.5V18.6228ZM6.5 4.62277H10.5C10.5 4.07277 10.3042 3.60194 9.9125 3.21027C9.52083 2.81861 9.05 2.62277 8.5 2.62277C7.95 2.62277 7.47917 2.81861 7.0875 3.21027C6.69583 3.60194 6.5 4.07277 6.5 4.62277Z" fill="black" fill-opacity="0.2"/>
<path d="M2.5 20.6228C1.95 20.6228 1.47917 20.4269 1.0875 20.0353C0.695833 19.6436 0.5 19.1728 0.5 18.6228V6.62277C0.5 6.07277 0.695833 5.60194 1.0875 5.21027C1.47917 4.81861 1.95 4.62277 2.5 4.62277H4.5C4.5 3.52277 4.89167 2.58111 5.675 1.79777C6.45833 1.01444 7.4 0.622772 8.5 0.622772C9.6 0.622772 10.5417 1.01444 11.325 1.79777C12.1083 2.58111 12.5 3.52277 12.5 4.62277H14.5C15.05 4.62277 15.5208 4.81861 15.9125 5.21027C16.3042 5.60194 16.5 6.07277 16.5 6.62277V18.6228C16.5 19.1728 16.3042 19.6436 15.9125 20.0353C15.5208 20.4269 15.05 20.6228 14.5 20.6228H2.5ZM2.5 18.6228H14.5V6.62277H12.5V8.62277C12.5 8.90611 12.4042 9.14361 12.2125 9.33527C12.0208 9.52694 11.7833 9.62277 11.5 9.62277C11.2167 9.62277 10.9792 9.52694 10.7875 9.33527C10.5958 9.14361 10.5 8.90611 10.5 8.62277V6.62277H6.5V8.62277C6.5 8.90611 6.40417 9.14361 6.2125 9.33527C6.02083 9.52694 5.78333 9.62277 5.5 9.62277C5.21667 9.62277 4.97917 9.52694 4.7875 9.33527C4.59583 9.14361 4.5 8.90611 4.5 8.62277V6.62277H2.5V18.6228ZM6.5 4.62277H10.5C10.5 4.07277 10.3042 3.60194 9.9125 3.21027C9.52083 2.81861 9.05 2.62277 8.5 2.62277C7.95 2.62277 7.47917 2.81861 7.0875 3.21027C6.69583 3.60194 6.5 4.07277 6.5 4.62277Z" fill="black" fill-opacity="0.2"/>
<path d="M2.5 20.6228C1.95 20.6228 1.47917 20.4269 1.0875 20.0353C0.695833 19.6436 0.5 19.1728 0.5 18.6228V6.62277C0.5 6.07277 0.695833 5.60194 1.0875 5.21027C1.47917 4.81861 1.95 4.62277 2.5 4.62277H4.5C4.5 3.52277 4.89167 2.58111 5.675 1.79777C6.45833 1.01444 7.4 0.622772 8.5 0.622772C9.6 0.622772 10.5417 1.01444 11.325 1.79777C12.1083 2.58111 12.5 3.52277 12.5 4.62277H14.5C15.05 4.62277 15.5208 4.81861 15.9125 5.21027C16.3042 5.60194 16.5 6.07277 16.5 6.62277V18.6228C16.5 19.1728 16.3042 19.6436 15.9125 20.0353C15.5208 20.4269 15.05 20.6228 14.5 20.6228H2.5ZM2.5 18.6228H14.5V6.62277H12.5V8.62277C12.5 8.90611 12.4042 9.14361 12.2125 9.33527C12.0208 9.52694 11.7833 9.62277 11.5 9.62277C11.2167 9.62277 10.9792 9.52694 10.7875 9.33527C10.5958 9.14361 10.5 8.90611 10.5 8.62277V6.62277H6.5V8.62277C6.5 8.90611 6.40417 9.14361 6.2125 9.33527C6.02083 9.52694 5.78333 9.62277 5.5 9.62277C5.21667 9.62277 4.97917 9.52694 4.7875 9.33527C4.59583 9.14361 4.5 8.90611 4.5 8.62277V6.62277H2.5V18.6228ZM6.5 4.62277H10.5C10.5 4.07277 10.3042 3.60194 9.9125 3.21027C9.52083 2.81861 9.05 2.62277 8.5 2.62277C7.95 2.62277 7.47917 2.81861 7.0875 3.21027C6.69583 3.60194 6.5 4.07277 6.5 4.62277Z" fill="black" fill-opacity="0.2"/>
</svg>
