<svg width="24" height="30" viewBox="0 0 24 30" fill="none" xmlns="http://www.w3.org/2000/svg">
<g filter="url(#filter0_d_150_4127)">
<mask id="mask0_150_4127" style="mask-type:alpha" maskUnits="userSpaceOnUse" x="4" y="0" width="16" height="24">
<rect x="4" width="16" height="24" fill="#D9D9D9"/>
</mask>
<g mask="url(#mask0_150_4127)">
<path d="M6 22C5.45 22 4.97917 21.8042 4.5875 21.4125C4.19583 21.0208 4 20.55 4 20V8C4 7.45 4.19583 6.97917 4.5875 6.5875C4.97917 6.19583 5.45 6 6 6H8C8 4.9 8.39167 3.95833 9.175 3.175C9.95833 2.39167 10.9 2 12 2C13.1 2 14.0417 2.39167 14.825 3.175C15.6083 3.95833 16 4.9 16 6H18C18.55 6 19.0208 6.19583 19.4125 6.5875C19.8042 6.97917 20 7.45 20 8V20C20 20.55 19.8042 21.0208 19.4125 21.4125C19.0208 21.8042 18.55 22 18 22H6ZM10 6H14C14 5.45 13.8042 4.97917 13.4125 4.5875C13.0208 4.19583 12.55 4 12 4C11.45 4 10.9792 4.19583 10.5875 4.5875C10.1958 4.97917 10 5.45 10 6Z" fill="white"/>
</g>
</g>
<defs>
<filter id="filter0_d_150_4127" x="0" y="0" width="24" height="32" filterUnits="userSpaceOnUse" color-interpolation-filters="sRGB">
<feFlood flood-opacity="0" result="BackgroundImageFix"/>
<feColorMatrix in="SourceAlpha" type="matrix" values="0 0 0 0 0 0 0 0 0 0 0 0 0 0 0 0 0 0 127 0" result="hardAlpha"/>
<feOffset dy="4"/>
<feGaussianBlur stdDeviation="2"/>
<feComposite in2="hardAlpha" operator="out"/>
<feColorMatrix type="matrix" values="0 0 0 0 0 0 0 0 0 0 0 0 0 0 0 0 0 0 0.25 0"/>
<feBlend mode="normal" in2="BackgroundImageFix" result="effect1_dropShadow_150_4127"/>
<feBlend mode="normal" in="SourceGraphic" in2="effect1_dropShadow_150_4127" result="shape"/>
</filter>
</defs>
</svg>
