<svg width="16" height="24" viewBox="0 0 16 24" fill="none" xmlns="http://www.w3.org/2000/svg">
<mask id="mask0_210_973" style="mask-type:alpha" maskUnits="userSpaceOnUse" x="0" y="0" width="16" height="24">
<rect width="16" height="24" fill="#D9D9D9"/>
</mask>
<g mask="url(#mask0_210_973)">
<path d="M2 22C1.45 22 0.979167 21.8042 0.5875 21.4125C0.195833 21.0208 0 20.55 0 20V8C0 7.45 0.195833 6.97917 0.5875 6.5875C0.979167 6.19583 1.45 6 2 6H4C4 4.9 4.39167 3.95833 5.175 3.175C5.95833 2.39167 6.9 2 8 2C9.1 2 10.0417 2.39167 10.825 3.175C11.6083 3.95833 12 4.9 12 6H14C14.55 6 15.0208 6.19583 15.4125 6.5875C15.8042 6.97917 16 7.45 16 8V20C16 20.55 15.8042 21.0208 15.4125 21.4125C15.0208 21.8042 14.55 22 14 22H2ZM2 20H14V8H12V10C12 10.2833 11.9042 10.5208 11.7125 10.7125C11.5208 10.9042 11.2833 11 11 11C10.7167 11 10.4792 10.9042 10.2875 10.7125C10.0958 10.5208 10 10.2833 10 10V8H6V10C6 10.2833 5.90417 10.5208 5.7125 10.7125C5.52083 10.9042 5.28333 11 5 11C4.71667 11 4.47917 10.9042 4.2875 10.7125C4.09583 10.5208 4 10.2833 4 10V8H2V20ZM6 6H10C10 5.45 9.80417 4.97917 9.4125 4.5875C9.02083 4.19583 8.55 4 8 4C7.45 4 6.97917 4.19583 6.5875 4.5875C6.19583 4.97917 6 5.45 6 6Z" fill="#E2A856"/>
</g>
</svg>
