<svg width="25" height="24" viewBox="0 0 25 24" fill="none" xmlns="http://www.w3.org/2000/svg">
<mask id="mask0_3472_194959" style="mask-type:alpha" maskUnits="userSpaceOnUse" x="0" y="0" width="25" height="24">
<rect x="0.214966" width="24" height="24" fill="#D9D9D9"/>
</mask>
<g mask="url(#mask0_3472_194959)">
<path d="M19.815 21L13.515 14.7C13.015 15.1 12.44 15.4167 11.79 15.65C11.14 15.8833 10.4483 16 9.71497 16C7.8983 16 6.3608 15.3708 5.10247 14.1125C3.84413 12.8542 3.21497 11.3167 3.21497 9.5C3.21497 7.68333 3.84413 6.14583 5.10247 4.8875C6.3608 3.62917 7.8983 3 9.71497 3C11.5316 3 13.0691 3.62917 14.3275 4.8875C15.5858 6.14583 16.215 7.68333 16.215 9.5C16.215 10.2333 16.0983 10.925 15.865 11.575C15.6316 12.225 15.315 12.8 14.915 13.3L21.215 19.6L19.815 21ZM9.71497 14C10.965 14 12.0275 13.5625 12.9025 12.6875C13.7775 11.8125 14.215 10.75 14.215 9.5C14.215 8.25 13.7775 7.1875 12.9025 6.3125C12.0275 5.4375 10.965 5 9.71497 5C8.46497 5 7.40247 5.4375 6.52747 6.3125C5.65247 7.1875 5.21497 8.25 5.21497 9.5C5.21497 10.75 5.65247 11.8125 6.52747 12.6875C7.40247 13.5625 8.46497 14 9.71497 14Z" fill="#9D9C99"/>
</g>
</svg>
