<svg width="21" height="21" viewBox="0 0 21 21" fill="none" xmlns="http://www.w3.org/2000/svg">
<mask id="mask0_3881_104019" style="mask-type:alpha" maskUnits="userSpaceOnUse" x="0" y="0" width="21" height="21">
<rect x="0.5" y="0.742188" width="20" height="20" fill="#D9D9D9"/>
</mask>
<g mask="url(#mask0_3881_104019)">
<path d="M5 18.7422C4.5875 18.7422 4.23437 18.5929 3.94062 18.2943C3.64687 17.9957 3.5 17.645 3.5 17.2422V6.24219C3.5 5.83941 3.64687 5.48872 3.94062 5.1901C4.23437 4.89149 4.5875 4.74219 5 4.74219H6.5V2.74219H8V4.74219H13V2.74219H14.5V4.74219H16C16.4125 4.74219 16.7656 4.89149 17.0594 5.1901C17.3531 5.48872 17.5 5.83941 17.5 6.24219V17.2422C17.5 17.645 17.3531 17.9957 17.0594 18.2943C16.7656 18.5929 16.4125 18.7422 16 18.7422H5ZM5 17.2422H16V9.74219H5V17.2422ZM5 8.24219H16V6.24219H5V8.24219ZM10.5044 12.7422C10.2931 12.7422 10.1146 12.6707 9.96875 12.5278C9.82292 12.3849 9.75 12.2078 9.75 11.9966C9.75 11.7853 9.82145 11.6068 9.96435 11.4609C10.1073 11.3151 10.2844 11.2422 10.4956 11.2422C10.7069 11.2422 10.8854 11.3136 11.0312 11.4565C11.1771 11.5995 11.25 11.7765 11.25 11.9878C11.25 12.1991 11.1785 12.3776 11.0356 12.5234C10.8927 12.6693 10.7156 12.7422 10.5044 12.7422ZM7.2544 12.7422C7.04313 12.7422 6.86458 12.6707 6.71875 12.5278C6.57292 12.3849 6.5 12.2078 6.5 11.9966C6.5 11.7853 6.57145 11.6068 6.71435 11.4609C6.85727 11.3151 7.03435 11.2422 7.2456 11.2422C7.45687 11.2422 7.63542 11.3136 7.78125 11.4565C7.92708 11.5995 8 11.7765 8 11.9878C8 12.1991 7.92855 12.3776 7.78565 12.5234C7.64273 12.6693 7.46565 12.7422 7.2544 12.7422ZM13.7544 12.7422C13.5431 12.7422 13.3646 12.6707 13.2188 12.5278C13.0729 12.3849 13 12.2078 13 11.9966C13 11.7853 13.0715 11.6068 13.2144 11.4609C13.3573 11.3151 13.5344 11.2422 13.7456 11.2422C13.9569 11.2422 14.1354 11.3136 14.2812 11.4565C14.4271 11.5995 14.5 11.7765 14.5 11.9878C14.5 12.1991 14.4285 12.3776 14.2856 12.5234C14.1427 12.6693 13.9656 12.7422 13.7544 12.7422ZM10.5044 15.7422C10.2931 15.7422 10.1146 15.6707 9.96875 15.5278C9.82292 15.3849 9.75 15.2078 9.75 14.9966C9.75 14.7853 9.82145 14.6068 9.96435 14.4609C10.1073 14.3151 10.2844 14.2422 10.4956 14.2422C10.7069 14.2422 10.8854 14.3136 11.0312 14.4565C11.1771 14.5995 11.25 14.7765 11.25 14.9878C11.25 15.1991 11.1785 15.3776 11.0356 15.5234C10.8927 15.6693 10.7156 15.7422 10.5044 15.7422ZM7.2544 15.7422C7.04313 15.7422 6.86458 15.6707 6.71875 15.5278C6.57292 15.3849 6.5 15.2078 6.5 14.9966C6.5 14.7853 6.57145 14.6068 6.71435 14.4609C6.85727 14.3151 7.03435 14.2422 7.2456 14.2422C7.45687 14.2422 7.63542 14.3136 7.78125 14.4565C7.92708 14.5995 8 14.7765 8 14.9878C8 15.1991 7.92855 15.3776 7.78565 15.5234C7.64273 15.6693 7.46565 15.7422 7.2544 15.7422ZM13.7544 15.7422C13.5431 15.7422 13.3646 15.6707 13.2188 15.5278C13.0729 15.3849 13 15.2078 13 14.9966C13 14.7853 13.0715 14.6068 13.2144 14.4609C13.3573 14.3151 13.5344 14.2422 13.7456 14.2422C13.9569 14.2422 14.1354 14.3136 14.2812 14.4565C14.4271 14.5995 14.5 14.7765 14.5 14.9878C14.5 15.1991 14.4285 15.3776 14.2856 15.5234C14.1427 15.6693 13.9656 15.7422 13.7544 15.7422Z" fill="#9D9C99"/>
</g>
</svg>
