<svg width="10" height="13" viewBox="0 0 10 13" fill="none" xmlns="http://www.w3.org/2000/svg">
<mask id="mask0_3881_104051" style="mask-type:alpha" maskUnits="userSpaceOnUse" x="0" y="0" width="10" height="13">
<rect y="0.390625" width="10" height="11.701" fill="#D9D9D9"/>
</mask>
<g mask="url(#mask0_3881_104051)">
<path d="M2.09467 12.092C1.76364 12.092 1.48098 11.9749 1.2467 11.7406C1.0124 11.5063 0.895255 11.2236 0.895255 10.8926V2.16963H0V1.19979H3.20798V0.390625H6.789V1.19979H9.99698V2.16963H9.10172V10.8845C9.10172 11.2295 8.98578 11.5169 8.75388 11.747C8.52198 11.977 8.23812 12.092 7.90231 12.092H2.09467ZM8.13188 2.16963H1.8651V10.8926C1.8651 10.9596 1.88662 11.0146 1.92967 11.0576C1.97271 11.1007 2.02772 11.1222 2.09467 11.1222H7.90231C7.9597 11.1222 8.01232 11.0983 8.06015 11.0504C8.10797 11.0026 8.13188 10.95 8.13188 10.8926V2.16963ZM3.50929 9.7793H4.47913V3.51251H3.50929V9.7793ZM5.51785 9.7793H6.48769V3.51251H5.51785V9.7793Z" fill="#9D9C99"/>
</g>
</svg>
