<svg width="19" height="15" viewBox="0 0 19 15" fill="none" xmlns="http://www.w3.org/2000/svg">
<path d="M18.4637 1.78181C17.7848 2.07471 17.0458 2.28551 16.2848 2.36761C17.0749 1.89816 17.6667 1.15652 17.949 0.281814C17.2075 0.722914 16.3952 1.03222 15.5481 1.19601C15.194 0.817523 14.7658 0.516 14.2902 0.310233C13.8145 0.104466 13.3015 -0.00113561 12.7833 9.20947e-06C10.6864 9.20947e-06 9 1.69971 9 3.78551C9 4.07841 9.0355 4.37131 9.09319 4.65311C5.9534 4.48891 3.15311 2.98891 1.29142 0.692316C0.952201 1.27171 0.774438 1.93143 0.776627 2.60282C0.776627 3.91643 1.44453 5.07471 2.46302 5.75592C1.8628 5.73229 1.27665 5.56731 0.752219 5.27441V5.32101C0.752219 7.16051 2.05251 8.68492 3.7855 9.03551C3.46011 9.12003 3.12538 9.16327 2.7892 9.16421C2.5429 9.16421 2.30991 9.1398 2.0747 9.10651C2.55399 10.6065 3.9497 11.696 5.61168 11.7315C4.31139 12.75 2.68269 13.3491 0.914201 13.3491C0.596893 13.3491 0.303994 13.338 0 13.3025C1.67751 14.3787 3.6679 15 5.81139 15C12.77 15 16.5777 9.23521 16.5777 4.23152C16.5777 4.06731 16.5777 3.90311 16.5666 3.73891C17.3032 3.19971 17.949 2.53181 18.4637 1.78181Z" fill="#EECB9A"/>
</svg>
