<svg width="89" height="35" viewBox="0 0 89 35" fill="none" xmlns="http://www.w3.org/2000/svg">
<rect width="88.1106" height="35" fill="white"/>
<g clip-path="url(#clip0_90_478)">
<path d="M34.1592 7.5V27.5H73.1097V7.5H34.1592ZM35.0423 26.6169V8.38315H72.2346V26.6169H35.0423Z" fill="#006271"/>
<path d="M15 7.5V27.5H35.0419V7.5H15ZM15.8831 26.6169V8.38315H34.1588V26.6169H15.8831Z" fill="#006271"/>
<path d="M42.1302 13.3384C42.1982 13.2784 42.257 13.2087 42.3046 13.1315C42.4286 12.9228 42.4905 12.683 42.4832 12.4404C42.4842 12.2661 42.4545 12.0931 42.3952 11.9292C42.3347 11.7662 42.2386 11.6189 42.1139 11.4977C41.9795 11.3691 41.819 11.2709 41.6433 11.2097C41.4395 11.1385 41.2248 11.1042 41.009 11.1082H38.25V16.1556H41.1767C41.4218 16.1597 41.6655 16.1194 41.8962 16.0366C42.0938 15.9646 42.2736 15.8512 42.4237 15.7039C42.5657 15.5648 42.6748 15.3956 42.7428 15.2089C42.8106 15.0132 42.8445 14.8073 42.8429 14.6003C42.8504 14.2756 42.7474 13.958 42.5508 13.6995C42.4378 13.5507 42.2944 13.4276 42.1302 13.3384ZM39.1088 12.9881V11.9724H40.9779C41.2227 11.9724 41.3985 12.0198 41.4837 12.1077C41.5299 12.1573 41.5657 12.2156 41.5889 12.2793C41.6122 12.3429 41.6224 12.4106 41.6189 12.4783C41.6254 12.6147 41.58 12.7485 41.4918 12.8529C41.4134 12.9422 41.2633 12.9881 41.0442 12.9881H39.1088ZM41.9719 14.5678C41.9801 14.7604 41.9121 14.9484 41.7826 15.0912C41.6595 15.2264 41.4445 15.2887 41.1442 15.2887H39.1088V13.8564H41.1172C41.2546 13.8532 41.3917 13.8724 41.5229 13.9132C41.6171 13.9422 41.7042 13.9906 41.7785 14.0552C41.8421 14.116 41.8912 14.1905 41.9219 14.273C41.957 14.3672 41.974 14.4672 41.9719 14.5678Z" fill="#006271"/>
<path d="M44.6272 15.9678C44.6272 15.796 44.6339 15.6297 44.6475 15.4728C44.6556 15.3687 44.6664 15.2672 44.6786 15.1658H47.3943C47.4065 15.2672 47.4159 15.37 47.4254 15.4728C47.4376 15.6297 47.4443 15.796 47.4443 15.9678V16.1558H48.3018V15.9678C48.307 15.2667 48.2053 14.569 48.0002 13.8985C47.9188 13.6406 47.8212 13.3881 47.7081 13.1425C47.5959 12.8992 47.4657 12.6645 47.3185 12.4406C47.2079 12.2653 47.0869 12.0969 46.9561 11.9361C46.8398 11.8009 46.7329 11.6738 46.6383 11.5777C46.5632 11.498 46.4832 11.4231 46.3989 11.3532C46.357 11.3181 46.3286 11.2964 46.3177 11.2856L46.0554 11.0854L45.7984 11.2599L45.7768 11.2775L45.6956 11.3397C45.632 11.3897 45.5604 11.4587 45.4549 11.5534C45.3398 11.6644 45.2305 11.7813 45.1276 11.9037C44.9923 12.0626 44.8676 12.2302 44.7543 12.4054C44.4623 12.8586 44.2347 13.3502 44.0781 13.8661C43.874 14.5478 43.7724 15.2561 43.7765 15.9678V16.1558H44.6339L44.6272 15.9678ZM47.2171 14.3083H44.8409C44.906 14.0611 44.9911 13.8196 45.0951 13.5861C45.201 13.3467 45.3249 13.1157 45.4657 12.895C45.5773 12.7141 45.7054 12.5438 45.8484 12.3865C45.9147 12.3148 45.9742 12.2513 46.0283 12.1985C46.0797 12.2526 46.1392 12.3162 46.2041 12.3892C46.3454 12.5536 46.4751 12.7276 46.5923 12.9099C46.7291 13.135 46.8524 13.368 46.9615 13.6078C47.0648 13.8343 47.1502 14.0685 47.2171 14.3083Z" fill="#006271"/>
<path d="M50.2611 12.1145C50.3261 12.1348 50.3964 12.1605 50.4748 12.1876C50.672 12.2615 50.8614 12.3549 51.0402 12.4662C51.7105 12.8672 52.2492 13.4552 52.5901 14.1581V16.1556H53.4543V11.1151H52.5901V12.6393C52.2683 12.2791 51.8928 11.9707 51.477 11.725C51.2855 11.6086 51.0852 11.5073 50.8779 11.4221C50.7139 11.3546 50.5464 11.2959 50.3761 11.2463C50.2585 11.2107 50.1388 11.1823 50.0177 11.1611C49.9668 11.1508 49.9153 11.1436 49.8635 11.1394L49.4023 11.1042V16.1556H50.2611V12.1145Z" fill="#006271"/>
<path d="M56.5513 13.3385L56.5189 13.4088C56.5067 13.3858 56.4959 13.3615 56.4837 13.3385L55.2665 11.1218H54.29L56.0645 14.3542V16.1462H56.949V14.3339L58.695 11.1218H57.7482L56.5513 13.3385Z" fill="#006271"/>
<path d="M59.7974 15.9678C59.7974 15.796 59.7974 15.6297 59.8163 15.4728C59.8244 15.3687 59.8353 15.2672 59.8474 15.1658H62.5632C62.5753 15.2672 62.5848 15.37 62.5943 15.4728C62.6064 15.6297 62.6132 15.796 62.6132 15.9678V16.1558H63.4706V15.9678C63.4737 15.2664 63.3697 14.5686 63.1623 13.8985C63.0831 13.6408 62.9878 13.3883 62.8769 13.1425C62.7648 12.8992 62.6346 12.6645 62.4874 12.4406C62.3768 12.2653 62.2558 12.0969 62.125 11.9361C62.0087 11.8009 61.9018 11.6738 61.8085 11.5777C61.733 11.498 61.6526 11.423 61.5678 11.3532C61.5258 11.3181 61.4974 11.2964 61.4866 11.2856L61.2242 11.0854L60.9673 11.2599L60.9456 11.2775L60.8658 11.3397C60.7791 11.4078 60.696 11.4805 60.617 11.5575C60.502 11.6682 60.3932 11.7851 60.291 11.9077C60.1572 12.0664 60.0343 12.2341 59.9232 12.4095C59.6288 12.8623 59.3989 13.3539 59.2402 13.8701C59.0361 14.5519 58.9345 15.2602 58.9386 15.9718V16.1558H59.7974V15.9678ZM62.386 14.3083H60.0097C60.0749 14.0611 60.1599 13.8196 60.264 13.5861C60.3699 13.3467 60.4938 13.1157 60.6346 12.895C60.7462 12.7141 60.8743 12.5438 61.0173 12.3865C61.0836 12.3148 61.1431 12.2513 61.1972 12.1985C61.2486 12.2526 61.3081 12.3162 61.373 12.3892C61.5143 12.5536 61.644 12.7276 61.7612 12.9099C61.898 13.135 62.0213 13.368 62.1304 13.6078C62.2337 13.8343 62.3191 14.0685 62.386 14.3083Z" fill="#006271"/>
<path d="M65.4301 12.1145C65.4964 12.1348 65.5653 12.1605 65.6451 12.1876C65.8421 12.2621 66.0314 12.3554 66.2105 12.4662C66.8801 12.8677 67.4182 13.4556 67.759 14.1581V16.1556H68.6232V11.1151H67.759V12.6393C67.4372 12.2791 67.0618 11.9707 66.6459 11.725C66.4544 11.6086 66.2541 11.5073 66.0468 11.4221C65.8828 11.3546 65.7153 11.2959 65.5451 11.2463C65.4274 11.2107 65.3077 11.1823 65.1867 11.1611C65.1357 11.1508 65.0843 11.1436 65.0325 11.1394L64.5713 11.1042V16.1556H65.4301V12.1145Z" fill="#006271"/>
<path d="M42.1302 21.0894C42.1971 21.0309 42.2558 20.9636 42.3046 20.8893C42.4287 20.6801 42.4906 20.4399 42.4832 20.1968C42.484 20.0226 42.4543 19.8495 42.3953 19.6856C42.3341 19.523 42.238 19.3757 42.1139 19.2542C41.9798 19.1236 41.8193 19.023 41.6433 18.9593C41.4394 18.8888 41.2247 18.8545 41.009 18.8579H38.25V23.9106H41.1767C41.4218 23.9148 41.6655 23.8744 41.8962 23.7916C42.0935 23.7192 42.2733 23.6058 42.4237 23.4589C42.5666 23.3166 42.6753 23.1436 42.7415 22.9531C42.8091 22.7574 42.843 22.5516 42.8416 22.3445C42.8494 22.0198 42.7464 21.7021 42.5494 21.4438C42.4365 21.2972 42.2936 21.1764 42.1302 21.0894ZM39.1088 20.7392V19.7221H40.9779C41.2227 19.7221 41.3985 19.7694 41.4837 19.8574C41.5298 19.9072 41.5656 19.9658 41.5888 20.0297C41.612 20.0936 41.6223 20.1614 41.6189 20.2293C41.6254 20.3657 41.58 20.4996 41.4918 20.6039C41.4134 20.6918 41.2633 20.7392 41.0442 20.7392H39.1088ZM41.9719 22.3175C41.9804 22.5101 41.9123 22.6982 41.7826 22.8409C41.6595 22.9761 41.4445 23.0397 41.1442 23.0397H39.1088V21.6034H41.1172C41.2546 21.6002 41.3917 21.6194 41.5229 21.6602C41.6179 21.6892 41.7053 21.7391 41.7785 21.8062C41.8424 21.8668 41.8915 21.9413 41.9219 22.024C41.9569 22.1178 41.9738 22.2174 41.9719 22.3175Z" fill="#006271"/>
<path d="M48.5471 20.8892C48.4346 20.6456 48.3045 20.4105 48.1576 20.186C48.0466 20.0109 47.9256 19.8425 47.7951 19.6815C47.6788 19.5463 47.5733 19.4205 47.4786 19.3231C47.4028 19.2437 47.3224 19.1687 47.2379 19.0986L47.1568 19.0323L46.8944 18.8308L46.6374 19.0066L46.6158 19.0242L46.536 19.0864C46.4516 19.1528 46.3708 19.2237 46.2939 19.2988C46.0298 19.5549 45.7969 19.8413 45.6001 20.1522C45.3077 20.6052 45.0801 21.0968 44.9239 21.6128C44.7187 22.2958 44.6157 23.0054 44.6182 23.7186V23.9038H45.4757V23.7186C45.4757 23.5468 45.4757 23.3804 45.4946 23.2236C45.5027 23.1194 45.5135 23.0166 45.5257 22.9166H48.2414C48.2536 23.018 48.2644 23.1208 48.2725 23.2236C48.2847 23.3804 48.2915 23.5468 48.2915 23.7186V23.9038H49.1489V23.7186C49.1519 23.0167 49.0479 22.3185 48.8406 21.648C48.7587 21.3892 48.6606 21.1358 48.5471 20.8892ZM48.0629 22.055H45.6866C45.7512 21.8068 45.8363 21.5643 45.9409 21.3301C46.0462 21.0905 46.1701 20.8594 46.3115 20.639C46.4227 20.4578 46.5509 20.2876 46.6942 20.1305C46.7605 20.0588 46.8213 19.9953 46.8741 19.9412C46.9255 19.9966 46.985 20.0602 47.0499 20.1332C47.1914 20.2965 47.3211 20.4696 47.4381 20.6512C47.5752 20.8757 47.6985 21.1083 47.8073 21.3477C47.9112 21.5777 47.9967 21.8156 48.0629 22.0591V22.055Z" fill="#006271"/>
<path d="M50.1045 19.722H51.9587V23.8902H52.8229V19.722H54.6771V18.8645H50.1045V19.722Z" fill="#006271"/>
<path d="M57.3428 18.8645H56.4854V23.9024H57.3428V18.8645Z" fill="#006271"/>
<path d="M63.7141 23.44C63.6775 23.3778 63.6383 23.3156 63.5977 23.2506C63.2638 22.7374 62.8262 22.2997 62.3129 21.9658C62.214 21.9 62.1105 21.8412 62.0032 21.79C61.9424 21.7602 61.8801 21.7318 61.8166 21.7034C61.914 21.6399 62.0113 21.5682 62.1033 21.5006C62.5869 21.1192 62.9839 20.6393 63.2678 20.0927C63.3566 19.9259 63.4361 19.7543 63.5058 19.5787C63.572 19.4137 63.6302 19.2542 63.6802 19.1054L63.7614 18.8606H62.8634L62.8174 18.9796C62.7741 19.0941 62.7268 19.2131 62.6754 19.3367C62.6242 19.4603 62.5659 19.5808 62.5009 19.6978C62.0086 20.608 61.3378 21.1489 60.456 21.3437V18.8606H59.5918V23.8998H60.456V22.2498C60.6933 22.2631 60.9283 22.303 61.1566 22.3688C61.8328 22.5771 62.4117 23.0302 62.8701 23.7213V23.7294C62.881 23.7429 62.8891 23.7565 62.8972 23.7686L62.9432 23.8363L63 23.9106H63.9791L63.8236 23.6253C63.7857 23.5631 63.7506 23.5008 63.7141 23.44Z" fill="#006271"/>
<path d="M68.5987 21.5803C68.4791 21.442 68.3396 21.3221 68.1849 21.2246C68.0117 21.1153 67.8309 21.0185 67.6439 20.9352L67.2652 20.7621C67.1513 20.7123 67.0406 20.6554 66.9338 20.5917C66.8607 20.5498 66.7934 20.4984 66.7337 20.4389C66.6916 20.3958 66.6593 20.3441 66.639 20.2874C66.6158 20.2177 66.6049 20.1445 66.6066 20.071C66.6023 20.0051 66.6121 19.939 66.6355 19.8772C66.6588 19.8154 66.695 19.7593 66.7418 19.7126C66.8637 19.6132 67.0192 19.5648 67.1759 19.5774C67.3286 19.5685 67.4801 19.6082 67.6087 19.691C67.7266 19.7788 67.8275 19.8874 67.9063 20.0115L68.005 20.167L68.7218 19.7194L68.6271 19.5625C68.4872 19.3284 68.2951 19.1299 68.0658 18.9823C67.7974 18.822 67.4884 18.7426 67.1759 18.7537C66.9831 18.7519 66.7914 18.7835 66.6093 18.847C66.4402 18.9064 66.2845 18.9983 66.1508 19.1175C66.0157 19.2397 65.9084 19.3892 65.8358 19.5562C65.7633 19.7232 65.7273 19.9038 65.7302 20.0859C65.7273 20.2593 65.7548 20.4318 65.8113 20.5957C65.8648 20.7443 65.945 20.8818 66.048 21.0015C66.1561 21.1232 66.2814 21.2285 66.4199 21.3139C66.5724 21.4078 66.7299 21.4932 66.8919 21.5695L67.2733 21.7426C67.5012 21.8337 67.712 21.9626 67.8968 22.124C67.9545 22.1833 67.9991 22.254 68.0278 22.3315C68.0564 22.4091 68.0685 22.4918 68.0631 22.5744C68.0656 22.6637 68.0466 22.7523 68.0077 22.8327C67.9688 22.9089 67.9139 22.9758 67.8467 23.0288C67.7708 23.0895 67.6841 23.1354 67.5911 23.164C67.4824 23.1971 67.3694 23.2136 67.2557 23.2127C67.1232 23.2149 66.991 23.1976 66.8635 23.1613C66.7626 23.132 66.6671 23.0863 66.5809 23.0261C66.499 22.9676 66.4253 22.8985 66.3618 22.8205C66.2967 22.7419 66.24 22.6567 66.1927 22.5663L66.1075 22.4026L65.3623 22.7827L65.4407 22.9449C65.5103 23.0904 65.5975 23.2266 65.7004 23.3507C65.8131 23.4846 65.9448 23.6012 66.0913 23.6969C66.253 23.8021 66.4293 23.8828 66.6147 23.9363C66.8314 23.9984 67.0561 24.028 67.2814 24.0242C67.5005 24.0264 67.7186 23.9945 67.9279 23.9295C68.1208 23.8695 68.3007 23.7736 68.4581 23.6469C68.6123 23.5208 68.7358 23.3612 68.8192 23.1803C68.9059 22.9898 68.9494 22.7824 68.9463 22.573C68.9482 22.389 68.9184 22.206 68.8584 22.032C68.7996 21.8671 68.7116 21.7141 68.5987 21.5803Z" fill="#006271"/>
<path d="M26.3605 13.8918C26.4133 14.8534 26.6013 15.961 25.5572 17.8206C24.8985 18.9932 24.624 19.6938 24.6957 20.7622C24.7673 21.8306 25.0473 22.0984 25.1514 23.2237C25.2596 24.403 25.0811 25.3145 25.3746 25.7203C25.4801 25.8663 25.9913 25.8271 26.1942 25.8271C26.397 25.8271 26.5445 25.7027 26.4011 25.3578C26.2577 25.0129 25.5261 23.885 26.0522 23.0735C26.5783 22.2621 27.172 22.089 28.3067 22.0294C29.4414 21.9699 30.3516 22.0213 30.967 21.8523C31.5823 21.6832 31.9637 21.4749 32.2856 21.1314C32.6075 20.7879 32.905 20.1617 32.9334 19.8398C32.9618 19.5179 32.978 19.2204 32.882 19.1704C32.8591 19.1618 32.8348 19.158 32.8104 19.159C32.786 19.1601 32.762 19.166 32.74 19.1765C32.7179 19.1869 32.6981 19.2017 32.6819 19.22C32.6656 19.2382 32.6532 19.2595 32.6453 19.2826C32.6016 19.7479 32.4123 20.1875 32.1044 20.539C31.8558 20.8294 31.5173 21.0283 31.1428 21.1044C31.1281 21.1072 31.113 21.105 31.0997 21.0983C31.0864 21.0917 31.0757 21.0808 31.0692 21.0673C31.0627 21.0539 31.0609 21.0388 31.0639 21.0242C31.0669 21.0096 31.0747 20.9964 31.086 20.9867C31.3047 20.816 31.4908 20.607 31.6351 20.37C31.8609 19.9643 31.9515 19.7113 31.9056 19.6316C31.8596 19.5518 31.7595 19.5085 31.6526 19.7046C31.4818 20.0467 31.2203 20.3354 30.8966 20.539C30.4016 20.8772 29.77 21.3005 28.6651 21.3343C27.7698 21.3613 27.0814 21.3884 26.6567 21.4939C26.5904 21.5115 26.5215 21.4533 26.5796 21.3424C26.6878 21.1084 27.3194 20.8244 28.001 20.8204C29.0316 20.8204 29.8945 20.6053 30.4206 20.2564C30.8682 19.9602 31.0643 19.8128 30.9075 19.6978C30.7276 19.5626 30.2204 20.0495 29.5388 20.2009C29.1742 20.2773 28.8021 20.3118 28.4298 20.3037C28.4143 20.3042 28.3992 20.2994 28.387 20.2899C28.3747 20.2804 28.3662 20.267 28.3628 20.2519C28.3595 20.2369 28.3615 20.2211 28.3685 20.2073C28.3755 20.1936 28.3872 20.1827 28.4014 20.1766C28.8233 19.9778 29.7186 19.5856 30.3448 19.5193C31.1901 19.4287 31.7419 19.4517 32.2274 19.0013C32.713 18.5509 32.878 18.2534 33.0051 17.8179C33.1403 17.3337 33.3703 16.7468 33.1863 16.6967C33.043 16.6575 32.9253 16.6967 32.7684 17.0795C32.6115 17.4622 32.5953 17.9139 32.1896 18.3413C31.8149 18.7322 31.3646 18.9418 30.6113 18.8607C30.5976 18.859 30.5848 18.8532 30.5745 18.844C30.5642 18.8349 30.557 18.8228 30.5538 18.8094C30.5505 18.7961 30.5514 18.782 30.5564 18.7692C30.5614 18.7563 30.5701 18.7453 30.5815 18.7376C30.8777 18.5523 31.5012 18.1276 31.8379 17.6475C32.2883 17.0051 32.7427 16.2139 32.7995 15.3984C32.8563 14.5829 32.7617 14.3462 32.529 14.357C32.2964 14.3678 32.3167 14.6911 32.2937 15.1198C32.2734 15.5255 32.1828 16.2829 31.7392 16.7427C31.7302 16.7525 31.7184 16.7593 31.7055 16.7623C31.6925 16.7653 31.6789 16.7644 31.6665 16.7595C31.6541 16.7547 31.6435 16.7463 31.6359 16.7353C31.6284 16.7244 31.6243 16.7114 31.6242 16.6981C31.6242 16.4912 31.8501 15.3984 31.8866 14.8047C31.9448 13.8498 31.9231 13.3034 31.8582 13.1019C31.7838 12.8693 31.6689 12.6962 31.5539 12.7151C31.3538 12.7476 31.3335 12.8707 31.3781 13.2561C31.476 14.0211 31.455 14.7967 31.3159 15.5553C31.209 16.1558 31.1347 16.9469 30.9426 17.2945C30.7506 17.6421 30.6532 18.1533 29.7727 18.6727C29.7604 18.6793 29.7462 18.6818 29.7323 18.6799C29.7184 18.6779 29.7054 18.6716 29.6953 18.6618C29.6853 18.652 29.6785 18.6393 29.6762 18.6254C29.6738 18.6116 29.6759 18.5973 29.6821 18.5848C29.8634 18.1939 30.2732 17.1999 30.3584 16.8185C30.4706 16.3072 30.4801 16.0394 30.3868 15.9989C30.2934 15.9583 30.2515 16.0908 30.2177 16.2126C30.1839 16.3343 29.6767 17.9342 28.7503 18.9066C28.7408 18.916 28.7287 18.9223 28.7156 18.9248C28.7024 18.9273 28.6889 18.9258 28.6766 18.9206C28.6643 18.9154 28.6538 18.9067 28.6465 18.8955C28.6391 18.8844 28.6353 18.8713 28.6353 18.858C28.6421 18.4387 28.7219 17.2891 29.3805 16.5101C30.2001 15.5404 30.5044 15.0576 30.6316 14.7289C30.7587 14.4003 30.8236 13.8728 30.6505 13.8201C30.4774 13.7673 30.2826 14.3976 30.1393 14.7181C29.8758 15.2708 29.4772 15.7481 28.9802 16.1057C28.9701 16.1126 28.9583 16.1165 28.9461 16.1172C28.9339 16.1179 28.9217 16.1152 28.9109 16.1096C28.9001 16.1039 28.891 16.0953 28.8846 16.0849C28.8782 16.0745 28.8748 16.0625 28.8747 16.0503C28.8829 15.6006 29.024 15.1634 29.2805 14.7938C29.7538 14.1176 30.6694 13.3062 30.8358 12.8653C31.0021 12.4244 31.0819 12.0862 30.948 11.8252C30.7817 11.4979 30.4895 11.3045 30.43 11.6224C30.3922 11.8252 30.5274 12.1485 30.3624 12.4568C30.197 12.7885 29.9917 13.0987 29.7511 13.3805C29.7418 13.3897 29.7301 13.3959 29.7173 13.3986C29.7046 13.4012 29.6913 13.4001 29.6792 13.3954C29.6671 13.3907 29.6565 13.3825 29.6489 13.372C29.6413 13.3614 29.6368 13.3489 29.6361 13.3359C29.6253 13.0019 29.6605 12.1944 29.6794 11.9983C29.7119 11.6521 29.9377 11.314 29.8661 11.172C29.7011 10.8379 29.5117 10.7365 29.4387 10.7879C29.2385 10.9313 29.1831 11.2315 29.1682 11.855C29.1533 12.4785 29.2818 13.8268 28.7814 14.2894C28.7744 14.296 28.7661 14.3011 28.757 14.3043C28.7478 14.3074 28.7381 14.3086 28.7285 14.3077C28.7189 14.3068 28.7096 14.3039 28.7012 14.2991C28.6929 14.2943 28.6856 14.2877 28.68 14.2799C28.611 14.1812 28.5217 13.8742 28.6502 12.8896C28.8382 11.4546 28.9207 10.3876 28.5826 10.109C28.2445 9.83036 28.0795 10.132 28.1174 10.2821C28.2971 10.8324 28.3611 11.414 28.3053 11.9902C28.3033 12.0104 28.2944 12.0293 28.2801 12.0438C28.2659 12.0583 28.2471 12.0675 28.2269 12.0698C28.2067 12.0722 28.1864 12.0676 28.1691 12.0568C28.1519 12.046 28.1389 12.0297 28.1322 12.0105C28.0173 11.7738 27.9618 11.594 27.878 11.3857C27.7537 11.0967 27.6778 10.7891 27.6535 10.4755C27.6318 10.1455 27.6967 9.86011 27.6751 9.77626C27.6426 9.65048 27.2694 9.53553 27.1422 9.67889C27.0151 9.82224 27.2017 10.8663 27.4276 11.5493C27.6535 12.2323 28.1944 13.578 28.1633 15.209C28.1349 16.8131 28.3635 18.9959 27.099 19.8074C27.0839 19.8177 27.0664 19.824 27.0482 19.8256C27.03 19.8273 27.0116 19.8242 26.9949 19.8168C26.9783 19.8093 26.9638 19.7977 26.9528 19.783C26.9419 19.7683 26.935 19.7511 26.9326 19.733C26.9036 19.6504 26.892 19.5627 26.8985 19.4754C26.905 19.3882 26.9295 19.3032 26.9705 19.2258C27.195 18.7132 27.3032 18.6389 27.3762 18.5618C27.4181 18.5171 27.4736 18.436 27.4019 18.3832C27.3302 18.3305 26.9542 18.4752 26.7338 18.7592C26.5228 19.0213 26.3731 19.3272 26.2956 19.6545C26.1739 20.1604 26.2794 20.2834 25.9467 20.8717C25.9351 20.8903 25.9184 20.9052 25.8986 20.9146C25.8788 20.924 25.8568 20.9276 25.835 20.9249C25.8133 20.9222 25.7927 20.9134 25.7759 20.8994C25.759 20.8854 25.7465 20.8669 25.7397 20.8461C25.6383 20.5553 25.4963 20.1834 25.7073 19.6992C26.0075 19.0081 26.2631 18.3467 26.7744 17.707C27.2856 17.0673 28.0321 15.8853 27.713 13.8566C27.5074 12.542 27.4195 12.3486 27.3235 12.2337C27.2099 12.0984 27.0881 12.162 27.0435 12.2972C26.9989 12.4325 27.0435 12.6191 27.1558 13.1182C27.291 13.7349 27.5615 15.0468 26.9204 15.9786C26.9131 15.989 26.9029 15.9972 26.8912 16.0021C26.8794 16.0071 26.8664 16.0085 26.8539 16.0064C26.8413 16.0043 26.8295 15.9986 26.82 15.9901C26.8105 15.9816 26.8036 15.9706 26.8001 15.9583C26.7736 15.8312 26.7736 15.7 26.8001 15.5729C26.9184 14.8252 26.9198 14.0637 26.8041 13.3156C26.6459 12.2553 26.443 11.0165 26.4728 10.5958C26.5025 10.1752 26.5634 9.62614 26.2929 9.48278C26.0224 9.33942 25.7966 9.48278 25.7817 9.76815C25.761 10.2095 25.7814 10.6519 25.8425 11.0895C25.9156 11.6927 26.3078 12.9302 26.3605 13.8918Z" fill="#006271"/>
<path d="M18.9333 19.4961C20.2858 19.5786 21.7735 19.933 21.8411 20.3076C21.9087 20.6822 20.7442 20.4726 20.3534 20.3225C19.9625 20.1724 19.0916 19.6314 18.9563 19.7207C18.8211 19.8099 19.4229 20.5321 20.1208 20.6836C20.8044 20.8363 21.4968 20.9465 22.1941 21.0136C22.8338 21.0731 23.4343 21.3923 23.4113 21.5694C23.3748 21.8697 22.9758 21.3436 21.8492 21.299C20.7226 21.2543 19.8124 21.1867 19.0767 20.6309C18.3409 20.075 17.8405 19.4015 17.57 19.4285C17.2996 19.4556 17.735 19.9384 17.8852 20.0966C18.0082 20.2319 18.4126 20.666 18.5614 20.8229C18.5669 20.8286 18.5705 20.8359 18.5718 20.8437C18.5731 20.8515 18.572 20.8595 18.5686 20.8667C18.5652 20.8739 18.5598 20.8799 18.5529 20.8839C18.5461 20.8879 18.5382 20.8897 18.5303 20.8892C18.4153 20.8797 18.1665 20.7999 17.6877 20.4118C17.4105 20.1859 17.0723 19.5922 16.952 19.7734C16.8316 19.9546 17.2455 20.808 18.0623 21.1597C18.9347 21.541 19.7691 21.8291 20.8646 21.8913C22.2495 21.9698 23.7534 22.3174 23.9076 23.1883C24.0618 24.0593 24.0429 24.507 23.7913 25.002C23.5397 25.497 23.4072 25.8215 23.8995 25.8215C24.2647 25.8215 24.4702 25.8581 24.6055 25.7161C24.7759 25.5362 24.7948 25.0398 24.8016 24.5854C24.7777 23.7406 24.6873 22.8991 24.5311 22.0685C24.3729 21.3165 23.8765 20.2129 24.5311 18.943C25.1857 17.673 26.2609 16.4707 26.0188 14.0282C25.8105 11.8643 25.5427 11.8345 25.3899 11.8805C25.2844 11.9116 25.3033 12.3485 25.3899 12.9381C25.4954 13.6373 25.6604 15.1697 25.0775 16.1313C25.0666 16.1498 25.0511 16.1651 25.0325 16.1758C25.0139 16.1865 24.9928 16.1921 24.9713 16.1921C24.9499 16.1921 24.9288 16.1865 24.9101 16.1758C24.8915 16.1651 24.876 16.1498 24.8651 16.1313C24.7042 15.8432 24.3972 15.0804 24.4811 14.4164C24.5947 13.5291 24.7894 13.4466 24.761 13.3344C24.7326 13.2221 24.6122 13.2357 24.4729 13.398C24.3336 13.5603 24.0104 14.2094 24.101 15.1129C24.1862 15.9649 24.4783 16.6465 24.074 17.2768C24.0671 17.2874 24.0575 17.2958 24.0461 17.3012C24.0348 17.3066 24.0221 17.3087 24.0096 17.3073C23.9971 17.3059 23.9852 17.301 23.9753 17.2933C23.9654 17.2855 23.9579 17.2751 23.9536 17.2633C23.8833 17.0509 23.7359 16.6208 23.6425 16.4153C23.5073 16.138 23.3166 15.4118 23.4086 14.837C23.5011 14.2288 23.7552 13.6567 24.1443 13.1802C24.55 12.6298 25.2574 11.2868 25.3615 10.4834C25.4846 9.60164 25.4129 9.50291 25.1275 9.53672C24.8422 9.57053 24.7218 10.125 24.6271 10.4834C24.4349 11.1291 24.2009 11.7616 23.9265 12.3769C23.7721 12.6829 23.5911 12.9748 23.3856 13.2492C23.377 13.2605 23.3651 13.2687 23.3515 13.2727C23.3379 13.2767 23.3234 13.2763 23.3101 13.2715C23.2968 13.2666 23.2854 13.2576 23.2775 13.2458C23.2697 13.2341 23.2659 13.2201 23.2666 13.2059C23.2733 12.7718 23.2666 11.583 23.4829 10.8743C23.7534 9.9952 23.9414 9.67467 23.7088 9.52185C23.4762 9.36902 22.9568 10.0845 22.754 11.0393C22.5511 11.9941 22.5511 13.3601 22.6066 14.4082C22.6487 15.0998 22.7391 15.7877 22.8771 16.4667C22.8794 16.4801 22.8776 16.494 22.8719 16.5064C22.8662 16.5188 22.8569 16.5292 22.8452 16.5362C22.8335 16.5433 22.8199 16.5466 22.8063 16.5457C22.7927 16.5449 22.7796 16.54 22.7689 16.5316C22.594 16.3747 22.4626 16.1753 22.3875 15.9527C22.1846 15.4118 22.2171 14.7883 22.1305 14.7693C22.0101 14.7436 21.8857 14.7829 21.9073 15.3171C21.929 15.8513 21.8925 16.3666 22.6363 17.1699C23.3802 17.9733 23.4775 18.026 23.4397 18.7023C23.4059 19.3109 23.3382 19.488 23.4302 20.2197C23.4437 20.3333 23.2409 20.4063 23.1597 20.2278C23.0786 20.0493 23.061 20.0804 23.0488 19.7328C23.0272 19.0782 22.9717 18.9714 22.8676 18.7509C22.6985 18.3926 22.405 18.0882 22.3036 18.1545C22.2022 18.2208 22.2684 18.425 22.3212 18.5346C22.427 18.7492 22.5052 18.9764 22.5538 19.2108C22.6106 19.5124 22.497 19.6625 22.3063 19.5245C22.1156 19.3866 21.7194 18.9836 21.622 16.936C21.4867 14.2622 21.7789 12.8637 22.0047 12.0983C22.2306 11.3328 22.942 10.0696 22.658 9.94922C22.3442 9.81397 22.163 9.92623 22.0953 10.2116C22.0277 10.497 21.8424 11.5654 21.4664 12.2335C21.4599 12.2445 21.4503 12.2534 21.4388 12.2591C21.4273 12.2649 21.4145 12.2673 21.4017 12.266C21.389 12.2647 21.3768 12.2599 21.3667 12.2519C21.3567 12.244 21.349 12.2334 21.3447 12.2213C21.2461 11.9039 21.2335 11.566 21.3082 11.2422C21.4435 10.5511 21.4056 10.2657 21.2108 10.2738C21.0161 10.2819 20.7226 11.0325 20.8267 11.7615C20.9309 12.4905 21.0607 12.9327 21.008 13.3844C20.962 13.7794 20.9701 13.9525 20.866 14.1121C20.8598 14.1202 20.8518 14.1268 20.8427 14.1313C20.8335 14.1358 20.8234 14.1382 20.8132 14.1382C20.803 14.1382 20.7929 14.1358 20.7838 14.1313C20.7746 14.1268 20.7667 14.1202 20.7605 14.1121C20.6523 13.989 20.5184 13.7902 20.3182 12.9557C20.2181 12.55 20.1289 12.1862 20.2168 11.7385C20.3047 11.2908 20.4751 11.0515 20.3223 10.9906C20.2371 10.9568 19.8313 11.3774 19.834 12.0022C19.834 12.9882 20.2398 13.5589 19.9598 13.7253C19.6799 13.8916 19.2579 13.233 19.2647 12.6758C19.2647 12.2849 19.3093 12.0428 19.1592 12.0428C19.0091 12.0428 18.8143 12.3769 18.9225 12.9733C19.0212 13.5373 19.2755 13.966 20.0721 14.507C20.8687 15.0479 20.9512 15.9081 20.8051 16.0433C20.659 16.1786 19.8719 15.5429 19.5406 15.1494C19.0753 14.5962 18.9022 13.7131 18.767 13.7347C18.6317 13.7564 18.4843 14.465 19.1578 15.5186C19.7948 16.5154 21.2703 16.7358 21.0512 18.3317C20.9985 18.7225 20.6455 18.6914 20.375 18.4953C19.9716 18.1877 19.6655 17.7702 19.4932 17.293C19.1091 16.3165 19.1037 15.8648 18.9522 15.8432C18.7359 15.8121 18.7223 16.2908 18.8102 16.6966C18.9103 17.1618 19.2701 17.9557 19.6217 18.4953C19.6295 18.507 19.6333 18.5208 19.6327 18.5348C19.6321 18.5488 19.6271 18.5623 19.6184 18.5732C19.6097 18.5842 19.5977 18.5921 19.5842 18.5959C19.5707 18.5996 19.5564 18.599 19.5433 18.5941C19.3404 18.5237 19.0023 18.3236 18.7629 17.8083C18.366 16.913 18.1527 15.9473 18.1354 14.9682C18.1448 14.3217 18.1854 13.9187 18.2706 13.6847C18.345 13.4872 18.3734 13.1667 18.2557 13.1194C18.088 13.0531 17.8811 13.2546 17.7689 13.6603C17.6566 14.0661 17.6593 14.7653 17.6945 15.4347C17.7514 16.0215 17.8618 16.6019 18.0245 17.1686C18.0274 17.1814 18.0259 17.1948 18.02 17.2065C18.0142 17.2183 18.0045 17.2277 17.9926 17.2331C17.9806 17.2385 17.9672 17.2396 17.9545 17.2363C17.9418 17.2329 17.9307 17.2252 17.923 17.2146C17.764 16.9808 17.6281 16.7321 17.5173 16.4721C17.1778 15.6971 17.2914 14.9695 17.0778 14.9384C16.8316 14.8978 16.8154 15.4104 16.9046 15.8621C16.952 16.0974 17.3929 18.0477 18.6439 18.7888C18.6582 18.796 18.6695 18.808 18.6756 18.8228C18.6817 18.8376 18.6823 18.8541 18.6772 18.8693C18.672 18.8845 18.6616 18.8973 18.6478 18.9054C18.634 18.9134 18.6177 18.9162 18.602 18.9132C18.3575 18.8811 18.1249 18.7881 17.9257 18.6428C17.0913 18.0112 17.2076 17.3498 16.9452 17.3133C16.6828 17.2768 16.7992 17.9408 16.9452 18.214C17.1116 18.5197 17.589 19.4136 18.9333 19.4961Z" fill="#006271"/>
</g>
<defs>
<clipPath id="clip0_90_478">
<rect width="58.1106" height="20" fill="white" transform="translate(15 7.5)"/>
</clipPath>
</defs>
</svg>
