<svg width="77" height="35" viewBox="0 0 77 35" fill="none" xmlns="http://www.w3.org/2000/svg">
<rect width="76.7581" height="35" fill="white"/>
<g clip-path="url(#clip0_90_544)">
<path d="M15 24.3694V10.521C14.9997 10.4541 15.0125 10.3878 15.0379 10.3259C15.0632 10.264 15.1006 10.2077 15.1477 10.1603C15.1949 10.1128 15.251 10.0752 15.3128 10.0495C15.3745 10.0239 15.4408 10.0106 15.5077 10.0106H23.6462C23.775 10.0078 23.9012 10.0466 24.0061 10.1212C24.111 10.1958 24.1891 10.3023 24.2287 10.4248C24.249 10.5073 24.2507 10.5933 24.2336 10.6765C24.2165 10.7597 24.1811 10.8381 24.1299 10.9059C24.0787 10.9737 24.0131 11.0292 23.9377 11.0685C23.8624 11.1078 23.7792 11.1297 23.6943 11.1328H16.7474C16.617 11.1328 16.492 11.1846 16.3998 11.2768C16.3076 11.369 16.2558 11.4941 16.2558 11.6245V16.0358C16.2558 16.1619 16.3059 16.2829 16.3951 16.3721C16.4843 16.4612 16.6053 16.5114 16.7314 16.5114H22.5267C22.6565 16.5091 22.7834 16.549 22.8885 16.6252C22.9935 16.7013 23.071 16.8095 23.1092 16.9335C23.1299 17.0176 23.1312 17.1053 23.1129 17.19C23.0946 17.2746 23.0573 17.354 23.0037 17.422C22.9501 17.49 22.8817 17.5449 22.8036 17.5825C22.7256 17.6201 22.64 17.6394 22.5534 17.6389H16.7608C16.6191 17.6389 16.4831 17.6952 16.3829 17.7954C16.2827 17.8956 16.2264 18.0315 16.2264 18.1733V24.3881C16.2279 24.5516 16.1652 24.7093 16.0518 24.8271C15.9384 24.945 15.7834 25.0138 15.6199 25.0187C15.4526 25.0117 15.2945 24.9402 15.1789 24.8191C15.0633 24.698 14.9992 24.5368 15 24.3694Z" fill="#231F20"/>
<path d="M27.3284 24.3535V10.6921C27.3234 10.5254 27.3814 10.363 27.4909 10.2372C27.6003 10.1114 27.7532 10.0315 27.9189 10.0134C28.0047 10.0092 28.0904 10.023 28.1706 10.0539C28.2507 10.0847 28.3236 10.132 28.3844 10.1926C28.4453 10.2532 28.4928 10.3258 28.524 10.4059C28.5552 10.4859 28.5693 10.5715 28.5655 10.6574V24.3642C28.5684 24.5301 28.5064 24.6907 28.3925 24.8115C28.2787 24.9323 28.1222 25.0038 27.9563 25.0108C27.7867 25.0045 27.6262 24.9323 27.5089 24.8096C27.3917 24.6868 27.3269 24.5232 27.3284 24.3535Z" fill="#231F20"/>
<path d="M44.9811 18.2161V22.0904C44.958 22.396 44.8361 22.6858 44.6337 22.916C43.9564 23.5857 43.1532 24.1147 42.2704 24.4724C41.3877 24.8301 40.4428 25.0094 39.4903 25C35.4317 25 32.1533 21.9621 32.1533 17.4894C32.1533 13.0166 35.4317 10.0081 39.4903 10.0081C40.4266 9.98185 41.3584 10.1475 42.2282 10.4949C43.098 10.8423 43.8876 11.364 44.5482 12.028C44.6006 12.0779 44.6414 12.1387 44.6677 12.2061C44.694 12.2735 44.7052 12.3459 44.7005 12.4181C44.7044 12.4962 44.6918 12.5742 44.6636 12.6471C44.6354 12.7201 44.5922 12.7862 44.5367 12.8414C44.4813 12.8966 44.415 12.9395 44.3419 12.9673C44.2689 12.9952 44.1908 13.0075 44.1127 13.0032C43.9686 13.0036 43.8295 12.9502 43.7226 12.8536C42.5937 11.7454 41.0722 11.1288 39.4903 11.1383C36.081 11.1383 33.4545 13.722 33.4545 17.4974C33.4545 21.238 36.081 23.8805 39.4903 23.8805C40.9495 23.869 42.3569 23.3386 43.4608 22.3843C43.5498 22.3069 43.6212 22.2112 43.6701 22.1038C43.719 21.9964 43.7442 21.8797 43.744 21.7617V19.0658C43.744 18.9531 43.6992 18.845 43.6196 18.7654C43.5399 18.6857 43.4318 18.6409 43.3192 18.6409H40.0594C39.929 18.6421 39.8023 18.5976 39.7013 18.5151C39.6003 18.4326 39.5313 18.3174 39.5064 18.1894C39.4931 18.1078 39.4979 18.0242 39.5203 17.9446C39.5428 17.8651 39.5824 17.7914 39.6364 17.7287C39.6904 17.6661 39.7574 17.616 39.8328 17.582C39.9082 17.5481 39.9901 17.531 40.0728 17.5321H44.2997C44.4807 17.5328 44.654 17.6052 44.7817 17.7334C44.9094 17.8616 44.9811 18.0352 44.9811 18.2161Z" fill="#231F20"/>
<path d="M54.7258 10.0239C58.9607 10.0239 61.7609 13.2783 61.7609 17.5052C61.7609 21.7322 58.9607 24.9865 54.7258 24.9865C50.4908 24.9865 47.6934 21.7295 47.6934 17.5052C47.6934 13.281 50.4721 10.0239 54.7258 10.0239ZM54.7258 11.1515C51.2096 11.1515 48.9972 13.8234 48.9972 17.5106C48.9972 21.1577 51.2096 23.8723 54.7258 23.8723C58.1992 23.8723 60.457 21.1577 60.457 17.5106C60.457 13.8207 58.1992 11.1515 54.7258 11.1515Z" fill="#231F20"/>
</g>
<defs>
<clipPath id="clip0_90_544">
<rect width="46.7581" height="15" fill="white" transform="translate(15 10)"/>
</clipPath>
</defs>
</svg>
