<svg width="59" height="35" viewBox="0 0 59 35" fill="none" xmlns="http://www.w3.org/2000/svg">
<rect width="58.1983" height="35" fill="white"/>
<g clip-path="url(#clip0_87_448)">
<path d="M42.9584 12.5662C42.5201 11.9523 40.7775 9.83577 39.5427 9.34359C39.4638 9.30616 39.3801 9.27982 39.294 9.26533C39.2271 9.25114 39.1589 9.24358 39.0905 9.24273C38.8132 9.2333 38.536 9.26494 38.2679 9.33664L38.1966 9.35577L38.1392 9.37142C38.0422 9.39535 37.9483 9.43036 37.8592 9.47577C36.9514 9.86534 35.2662 11.0584 31.3566 14.8671C31.3566 14.8671 30.6732 15.4201 31.0992 14.4392C31.5253 13.4584 32.1236 11.754 31.3984 10.6027C30.7619 9.59229 29.3114 7.89142 28.3236 7.66359C28.1791 7.62514 28.029 7.6122 27.8801 7.62533C27.4768 7.66151 27.0789 7.74319 26.694 7.86881C25.4192 8.24447 22.7462 9.62359 15.7062 15.1732C15.7062 15.1732 15.2453 15.5784 15.1845 15.6653C15.1236 15.7523 14.9271 16.0288 15.0888 16.2288C15.2627 16.4027 15.5045 16.4027 15.7358 16.4027C15.8231 16.4055 15.9102 16.413 15.9966 16.4253C16.6366 16.4984 17.8053 16.7732 19.301 17.7714C19.6853 18.0705 20.1966 18.2827 20.581 18.0271C20.9653 17.7714 26.4227 12.8253 26.934 13.3784C27.4453 13.9314 25.8262 16.0653 24.5879 17.8132C23.3497 19.561 18.8749 24.9766 18.8749 24.9766C18.8749 24.9766 17.8523 25.9575 19.174 25.9575C20.4958 25.9575 24.4123 26.2132 24.8349 26.0392C25.2575 25.8653 30.0384 19.7297 30.0384 19.7297C30.0384 19.7297 35.2297 13.1819 35.9219 13.674C36.0958 13.7992 36.0175 14.2879 35.6227 14.954C35.5132 15.1401 30.6349 22.714 30.6349 22.714C30.6349 22.714 30.1566 23.2358 31.1897 23.8219C32.1149 24.3523 33.5775 24.5906 35.1549 26.6375C35.6679 27.0932 35.8766 27.8549 36.4314 27.2584C37.0419 26.6027 39.7166 20.2845 41.4227 17.2132C43.1288 14.1419 43.4697 13.2897 42.9584 12.5662Z" fill="#E8B978" stroke="#E8B978" stroke-width="0.26"/>
<path d="M42.9336 12.4443C42.4971 11.8251 40.7545 9.71384 39.5232 9.22688C39.38 9.16575 39.2266 9.13212 39.071 9.12776C38.7936 9.11654 38.5161 9.14821 38.2484 9.22167L38.1771 9.23906L38.1197 9.25645C38.0222 9.28078 37.9278 9.31577 37.838 9.3608C36.9319 9.75036 35.2467 10.9434 31.3354 14.7521C31.3354 14.7521 30.6536 15.3069 31.0797 14.326C31.5058 13.3451 32.1041 11.6391 31.3788 10.4878C30.7423 9.47732 29.2919 7.77819 28.3041 7.55036C28.1592 7.51098 28.0083 7.49802 27.8588 7.5121C27.4562 7.54752 27.0588 7.62862 26.6745 7.75384C25.398 8.12949 22.7267 9.50862 15.6867 15.0582C15.6867 15.0582 15.2258 15.4634 15.1649 15.5504C15.1041 15.6373 14.9075 15.9121 15.0693 16.1138C15.2432 16.2878 15.4832 16.2878 15.7162 16.2878C15.8035 16.2906 15.8906 16.2982 15.9771 16.3104C16.6154 16.3834 17.7858 16.6582 19.2815 17.6547C19.6641 17.9538 20.1771 18.1678 20.5597 17.9121C20.9423 17.6564 26.4015 12.7086 26.9145 13.2634C27.4275 13.8182 25.8049 15.9504 24.5684 17.6982C23.3319 19.446 18.8467 24.853 18.8467 24.853C18.8467 24.853 17.8223 25.8338 19.1441 25.8338C20.4658 25.8338 24.3893 26.0895 24.8154 25.9191C25.2415 25.7486 30.0136 19.6043 30.0136 19.6043C30.0136 19.6043 35.2067 13.0565 35.8988 13.5504C36.0728 13.6756 35.9928 14.1643 35.5997 14.8286C35.4884 15.0165 30.6101 22.5904 30.6101 22.5904C30.6101 22.5904 30.1336 23.1121 31.1649 23.6982C32.0901 24.2286 33.5528 24.4669 35.1319 26.5121C35.6536 26.9678 35.8519 27.7295 36.4084 27.1347C37.0188 26.4773 39.6936 20.1591 41.3997 17.0895C43.1058 14.0199 43.4467 13.1695 42.9336 12.4443Z" fill="#E8B978"/>
</g>
<defs>
<clipPath id="clip0_87_448">
<rect width="28.1983" height="20" fill="white" transform="translate(15 7.5)"/>
</clipPath>
</defs>
</svg>
