<svg width="122" height="35" viewBox="0 0 122 35" fill="none" xmlns="http://www.w3.org/2000/svg">
<rect width="122" height="35" fill="white"/>
<g clip-path="url(#clip0_90_517)">
<path d="M65.8075 19.9986C65.8075 19.9986 66.6337 21.6932 69.1238 18.7479C69.6373 18.1421 70.2569 17.5 70.2569 17.5C70.2569 17.5 69.3733 17.701 68.5787 17.8294C64.7231 18.4548 65.8075 19.9986 65.8075 19.9986Z" fill="#ED1C24"/>
<path d="M74.704 15.0015C74.704 15.0015 73.8778 13.3069 71.3907 16.2522C70.8772 16.858 70.2432 17.5001 70.2432 17.5001C70.2432 17.5001 71.1239 17.2991 71.9214 17.1706C75.7999 16.5453 74.704 15.0015 74.704 15.0015Z" fill="#009245"/>
<path d="M65.8077 15.0015C65.8077 15.0015 64.7147 16.5453 68.5789 17.1706C69.3735 17.2991 70.2571 17.5001 70.2571 17.5001C70.2571 17.5001 69.6375 16.858 69.124 16.2522C66.6339 13.3069 65.8077 15.0015 65.8077 15.0015Z" fill="#8C00FA"/>
<path d="M74.7043 19.9986C74.7043 19.9986 75.8002 18.4548 71.936 17.8294C71.1385 17.701 70.2578 17.5 70.2578 17.5C70.2578 17.5 70.8775 18.1421 71.4053 18.7479C73.8781 21.6932 74.7043 19.9986 74.7043 19.9986Z" fill="#FBB03B"/>
<path d="M70.2577 12.5083C70.2577 12.5083 68.3357 12.3604 69.7127 15.9282C69.9995 16.6652 70.2577 17.5083 70.2577 17.5083C70.2577 17.5083 70.5188 16.6708 70.8028 15.9282C72.1826 12.352 70.2577 12.5083 70.2577 12.5083Z" fill="#005CE3"/>
<path d="M70.2577 22.5C70.2577 22.5 72.1769 22.648 70.8028 19.0801C70.5159 18.3431 70.2577 17.5 70.2577 17.5C70.2577 17.5 69.9967 18.3375 69.7127 19.0801C68.3357 22.648 70.2577 22.5 70.2577 22.5Z" fill="#F15A24"/>
<path d="M17.2288 19.9734H16.4226V21.6484H14.9883V12.9075H17.2173C19.8164 12.9075 20.9925 14.3843 20.9925 16.439C20.9925 18.4937 19.8278 19.9734 17.2288 19.9734ZM17.1025 14.2698H16.4026V18.611H17.1025C18.6459 18.611 19.5037 17.994 19.5037 16.439C19.5037 14.884 18.6545 14.2698 17.1025 14.2698Z" fill="black"/>
<path d="M26.9421 20.6045H23.339L22.9287 21.6318H21.5977L25 12.6787H25.4217L28.7609 21.6318H27.3867L26.9421 20.6045ZM23.8668 19.2812H26.4487L25.1807 15.6966L23.8668 19.2812Z" fill="black"/>
<path d="M28.959 14.2056V12.9075H34.2776V14.2056H32.3068V21.6428H30.8724V14.2056H28.959Z" fill="black"/>
<path d="M40.1383 19.6244L41.4579 21.6428H39.6764L38.6724 19.9678C38.5261 19.9678 38.3855 19.9678 38.2248 19.9678H37.4187V21.6428H35.9844V12.9075H38.2162C40.8153 12.9075 41.9886 14.3843 41.9886 16.439C41.9972 17.9047 41.4034 19.0605 40.1383 19.6244ZM38.1044 14.2698H37.4044V18.611H38.2363C39.7682 18.611 40.5084 17.994 40.5084 16.439C40.5084 14.884 39.6506 14.2698 38.1044 14.2698Z" fill="black"/>
<path d="M43.8447 21.6428V12.9075H45.2791V21.6428H43.8447Z" fill="black"/>
<path d="M48.6214 17.2544C48.6142 17.6687 48.6918 18.0803 48.8498 18.4651C49.0077 18.8499 49.2428 19.2003 49.5413 19.4957C49.8399 19.7912 50.1959 20.0259 50.5886 20.186C50.9813 20.3462 51.4029 20.4286 51.8287 20.4286C52.932 20.4092 53.9839 19.9715 54.7605 19.2086L55.6211 20.289C55.1327 20.7744 54.5493 21.1597 53.9053 21.422C53.2613 21.6842 52.5698 21.8183 51.8717 21.8161C49.4304 21.8161 47.1211 20.1215 47.1211 17.232C47.1211 14.6106 49.2066 12.7234 51.8459 12.7234C53.3749 12.7234 54.4593 13.4297 55.317 14.2253L54.4564 15.2667C53.5585 14.5213 52.7352 14.1221 51.6565 14.1221C50.0615 14.1276 48.6214 15.3616 48.6214 17.2544Z" fill="black"/>
<path d="M62.4291 12.9077L60.8972 14.566L63.2467 21.643H61.6631L59.83 15.6436L58.826 16.7603V21.6542H57.3916V12.9077H58.826V15.021L60.7796 12.9021L62.4291 12.9077Z" fill="black"/>
<path d="M78.2725 13.1338H79.7068V20.5431H83.1923V21.8663H78.2839L78.2725 13.1338Z" fill="black"/>
<path d="M93.488 17.5336C93.4995 18.1318 93.3863 18.7261 93.1554 19.2807C92.9245 19.8352 92.5807 20.3385 92.1446 20.7603C91.7085 21.1821 91.1892 21.5136 90.6179 21.7349C90.0467 21.9561 89.4353 22.0626 88.8206 22.0478C88.2037 22.0497 87.5925 21.932 87.0228 21.7015C86.4531 21.471 85.9363 21.1324 85.5026 20.7054C85.0689 20.2783 84.7269 19.7715 84.4967 19.2145C84.2665 18.6574 84.1527 18.0613 84.1618 17.461C84.1512 16.8639 84.2647 16.2709 84.4954 15.7176C84.7261 15.1643 85.0693 14.662 85.5044 14.2409C85.9395 13.8199 86.4575 13.4887 87.0273 13.2672C87.5972 13.0458 88.2072 12.9387 88.8206 12.9523C89.4378 12.9493 90.0494 13.066 90.6197 13.2957C91.19 13.5253 91.7076 13.8633 92.1422 14.2898C92.5767 14.7163 92.9195 15.2229 93.1506 15.7798C93.3817 16.3368 93.4964 16.933 93.488 17.5336ZM85.6593 17.4694C85.6593 19.2672 86.9932 20.6296 88.8149 20.6296C90.823 20.6296 91.9963 19.4208 91.9963 17.5336C91.9963 15.8585 90.7943 14.3622 88.8149 14.3622C86.8355 14.3622 85.665 15.5989 85.665 17.4749L85.6593 17.4694Z" fill="black"/>
<path d="M96.8249 17.5894C95.8209 17.0004 95.2156 16.1935 95.2156 15.1746C95.2156 13.6726 96.4032 12.9412 97.7085 12.9412C98.3867 12.9414 99.0525 13.1188 99.6363 13.4548L99.1486 14.5995C98.7275 14.3705 98.2565 14.2422 97.7745 14.2254C96.8507 14.2254 96.5495 14.6246 96.5495 15.0992C96.5495 15.5738 96.9569 16.026 97.763 16.5397L98.7125 17.1427C99.6621 17.7318 100.376 18.452 100.376 19.6218C100.376 21.0735 99.2289 22.0366 97.2868 22.0366C96.3518 22.0359 95.4315 21.8106 94.6074 21.3806L95.1353 20.1718C95.8278 20.5103 96.5922 20.6862 97.3671 20.6854C98.5146 20.6854 98.9621 20.3141 98.9621 19.5939C98.9621 19.1081 98.4486 18.5665 97.6712 18.0919L96.8249 17.5894Z" fill="black"/>
<path d="M102.089 21.8663V13.1338H107V14.4627H103.515V15.6436H106.788V16.9752H103.515V20.557H107V21.8803L102.089 21.8663Z" fill="black"/>
</g>
<defs>
<clipPath id="clip0_90_517">
<rect width="92" height="10" fill="white" transform="translate(15 12.5)"/>
</clipPath>
</defs>
</svg>
