<svg width="17" height="16" viewBox="0 0 17 16" fill="none" xmlns="http://www.w3.org/2000/svg">
<path d="M8.5 13C8.77778 13 9.01389 12.9028 9.20833 12.7083C9.40278 12.5139 9.5 12.2778 9.5 12C9.5 11.7222 9.40278 11.4861 9.20833 11.2917C9.01389 11.0972 8.77778 11 8.5 11C8.22222 11 7.98611 11.0972 7.79167 11.2917C7.59722 11.4861 7.5 11.7222 7.5 12C7.5 12.2778 7.59722 12.5139 7.79167 12.7083C7.98611 12.9028 8.22222 13 8.5 13ZM7.75 9.8125H9.27083C9.27083 9.29861 9.31597 8.93403 9.40625 8.71875C9.49653 8.50347 9.71528 8.22917 10.0625 7.89583C10.5486 7.42361 10.8854 7.02083 11.0729 6.6875C11.2604 6.35417 11.3542 5.98611 11.3542 5.58333C11.3542 4.81944 11.0938 4.19792 10.5729 3.71875C10.0521 3.23958 9.38889 3 8.58333 3C7.875 3 7.26042 3.1875 6.73958 3.5625C6.21875 3.9375 5.85417 4.44444 5.64583 5.08333L7 5.64583C7.125 5.25694 7.32292 4.95486 7.59375 4.73958C7.86458 4.52431 8.18056 4.41667 8.54167 4.41667C8.93056 4.41667 9.25 4.52778 9.5 4.75C9.75 4.97222 9.875 5.26389 9.875 5.625C9.875 5.94444 9.76736 6.22917 9.55208 6.47917C9.33681 6.72917 9.09722 6.97222 8.83333 7.20833C8.34722 7.65278 8.04514 8.01736 7.92708 8.30208C7.80903 8.58681 7.75 9.09028 7.75 9.8125ZM8.5 16C7.40278 16 6.36806 15.7917 5.39583 15.375C4.42361 14.9583 3.57292 14.3854 2.84375 13.6562C2.11458 12.9271 1.54167 12.0764 1.125 11.1042C0.708333 10.1319 0.5 9.09722 0.5 8C0.5 6.88889 0.708333 5.85069 1.125 4.88542C1.54167 3.92014 2.11458 3.07292 2.84375 2.34375C3.57292 1.61458 4.42361 1.04167 5.39583 0.625C6.36806 0.208333 7.40278 0 8.5 0C9.61111 0 10.6493 0.208333 11.6146 0.625C12.5799 1.04167 13.4271 1.61458 14.1562 2.34375C14.8854 3.07292 15.4583 3.92014 15.875 4.88542C16.2917 5.85069 16.5 6.88889 16.5 8C16.5 9.09722 16.2917 10.1319 15.875 11.1042C15.4583 12.0764 14.8854 12.9271 14.1562 13.6562C13.4271 14.3854 12.5799 14.9583 11.6146 15.375C10.6493 15.7917 9.61111 16 8.5 16ZM8.5 14.5C10.3056 14.5 11.8403 13.8681 13.1042 12.6042C14.3681 11.3403 15 9.80556 15 8C15 6.19444 14.3681 4.65972 13.1042 3.39583C11.8403 2.13194 10.3056 1.5 8.5 1.5C6.69444 1.5 5.15972 2.13194 3.89583 3.39583C2.63194 4.65972 2 6.19444 2 8C2 9.80556 2.63194 11.3403 3.89583 12.6042C5.15972 13.8681 6.69444 14.5 8.5 14.5Z" fill="#9D9C99"/>
</svg>
